**ABCDEFGHIJKLMNOPQRSTUVWXYZabcdefghijklmnopqrstuvwxyz**************************
**PARASOLID !"#$%&'()*+,-./:;<=>?@[\]^_`{|}~0123456789**************************
**PART1;
MC=x64/Windows NT;
MC_MODEL=genuineintel family 6 model 14 stepping 5, intel(r) core(tm) i5 cpu         760  @ 2.80ghz;
MC_ID=ds77;
OS=windows nt (x64);
OS_RELEASE=5.2 (workstation) (build 3790: service pack 2) ;
FRU=mdc_ugii_v7.0_djl_can_vrh;
APPL=unigraphics;
SITE=unknown;
USER=autoform;
FORMAT=text;
GUISE=transmit;
KEY=solid-xy;
FILE=D:\WorkPiece\solid-xy.x_t;
DATE=6-may-2014;
**PART2;
SCH=SCH_2201175_20000;
USFLD_SIZE=0;
**PART3;
**END_OF_HEADER*****************************************************************
T51 : TRANSMIT FILE created by modeller version 220117523 SCH_2201175_20000_1300
6186 0 12 27 CCCCCCCCCCCCCCCCCCCCCCCA16 index_map_offset0 0 1 dA9 index_map82 0
 A17 node_id_index_map82 0 A20 schema_embedding_map82 0 Z1 116 2 3 0 0 0 0 1e3 1
e-8 0 0 0 1 0 1 1 4 5 6 7 8 9 10 0 0 0 0 81 255 2 2 110 11 1 0 0 0 0 12 13 70 11
 CI9 list_type0 0 1 uI10 notransmit0 0 1 lCCCDCCDI12 finger_index0 0 1 dI12 fing
er_block1012 0 CZ3 0 4 T1 0 0 2 20 1 14 14 13 255 4 91 0 1 0 15 0 0 16 0 50 255
 5 90 0 15 17 0 0 +.4000040004582675 .364285996472412 .03 0 -1 0 0 0 -1 30 255 6
 86 0 18 19 0 0 +.4000040004582675 .364285996472412 .03 0 0 -1 29 255 7 67 0 20
 21 0 .4000040004582675 0 -.01 19 255 8 1 0 1 16 0 22 V16 255 9 73 0 ?23 0 24 19
 0 0 1 18 255 10 15 0 25 0 26 27 ?1 17 255 25 0 28 29 30 10 31 32 0 33 +18 26 10
 0 30 10 34 35 ?1 29 27 17 0 10 35 36 .4000040004582675 0 .03 29 35 12 0 26 37 2
7 0 0 .03 29 36 70 0 38 27 39 .4000040004582675 .364285996472412 -.01 18 38 60 0
 40 41 0 36 ?1 29 39 69 0 41 36 21 0 .364285996472412 -.01 18 41 58 0 42 43 38 3
9 ?1 29 21 68 0 43 39 7 0 0 -.01 18 43 56 0 44 20 41 21 ?1 17 44 0 45 46 23 43 4
2 47 0 48 +18 20 54 0 49 50 43 7 ?1 17 49 0 51 33 48 20 52 53 0 54 +18 50 2 0 29
 34 20 55 ?1 17 29 0 28 56 25 50 57 58 0 59 +18 34 5 0 60 26 50 37 ?1 29 55 4 0
 50 0 37 .4000040004582675 .364285996472412 .03 29 37 7 0 34 55 35 0 .3642859964
72412 .03 17 60 0 45 23 46 34 30 61 0 56 -15 255 45 79 0 44 62 0 17 23 0 45 44 6
0 41 63 9 0 64 +17 46 0 45 60 44 26 48 24 0 31 -17 30 0 28 25 56 26 60 61 0 46 +
16 61 11 0 ?30 32 65 66 0 0 1 17 56 0 28 30 29 34 67 65 0 63 +15 28 23 0 56 68 0
 17 67 0 69 70 63 50 56 65 0 0 -16 65 6 0 ?56 61 71 72 0 0 1 17 63 0 69 67 64 34
 23 9 0 0 -15 69 81 0 64 15 0 17 64 0 69 63 70 41 73 74 0 0 +17 70 0 69 64 67 38
 59 18 0 73 +17 73 0 75 76 42 38 64 74 0 0 -16 74 52 0 ?64 47 0 77 0 0 1 16 47 5
0 0 ?44 53 74 78 0 0 1 30 77 66 0 74 79 78 0 +.4000040004582675 .364285996472412
 -.01 -1 0 -888169536987207e-32 30 79 22 0 58 80 77 0 +.4000040004582675 0 .03 0
 1 0 30 78 65 0 47 77 81 0 +0 .364285996472412 -.01 0 -1 0 30 81 64 0 53 78 82 0
 +0 0 -.01 1 0 888169536987207e-32 16 53 48 0 ?49 71 47 81 0 0 1 30 82 63 0 71 8
1 83 0 +.4000040004582675 0 -.01 0 1 0 16 71 46 0 ?40 65 53 82 0 0 1 30 83 83 0
 84 82 85 0 +.4000040004582675 0 .03 0 0 -1 16 84 71 0 ?54 24 18 83 0 0 1 30 85
 84 0 24 83 19 0 +0 0 .03 0 0 -1 16 24 72 0 ?48 9 84 85 0 0 1 30 19 85 0 9 85 6
 0 +0 .364285996472412 .03 0 0 -1 17 48 0 51 49 31 43 46 24 0 52 +15 51 77 0 49
 86 0 17 31 0 51 48 33 26 25 32 0 0 -17 52 0 75 42 76 43 49 53 0 0 -15 75 45 0 7
3 87 0 17 42 0 75 73 52 41 44 47 0 23 -17 76 0 75 52 73 20 40 71 0 0 -17 40 0 88
 59 54 38 76 71 0 70 +15 88 75 0 40 89 0 17 59 0 88 57 40 50 70 18 0 67 -17 54 0
 88 40 57 20 33 84 0 76 +17 57 0 88 54 59 10 29 58 0 0 -17 33 0 51 31 49 10 54 8
4 0 57 -16 58 20 0 ?29 18 32 79 0 0 1 16 18 74 0 ?70 84 58 6 0 0 1 16 32 16 0 ?2
5 58 61 80 0 0 1 30 80 19 0 32 66 79 0 +0 0 .03 1 0 888169536987207e-32 30 66 14
 0 61 72 80 0 +0 .364285996472412 .03 0 -1 0 30 72 9 0 65 0 66 0 +.4000040004582
675 .364285996472412 .03 -1 0 -888169536987207e-32 14 255 89 76 90 ?68 86 88 4 9
1 -0 0 68 86 22 81 1 90 114 92 89 0 0 93 94 95 14 68 24 94 ?87 89 28 4 96 +0 0 8
7 89 22 14 86 78 93 ?89 62 51 4 97 -0 0 89 62 22 50 91 87 0 89 98 97 0 +.4000040
004582675 0 .03 -1 0 0 0 0 1 13 22 3 0 0 0 0 0 0 8 15 14 15 82 99 ?62 0 69 4 5 -
0 0 62 0 22 81 1 99 111 92 15 0 0 0 100 101 14 62 80 100 ?86 15 45 4 17 -0 0 86
 15 22 81 1 100 112 92 62 0 0 99 93 102 50 17 89 0 62 97 5 0 +0 .364285996472412
 .03 1 0 0 0 0 -1 50 97 88 0 86 91 17 0 +0 0 .03 0 1 0 0 0 1 80 255 1 92 0 103 8
001 0 0 0 0 3 5 0 0 0 FFFFTFTFFFFFFF2 81 1 93 113 92 86 0 0 100 90 104 83 255 3
 102 .5960784 .6666667 .6862745 83 3 104 .5960784 .6666667 .6862745 79 255 15 10
3 SDL/TYSA_COLOUR83 3 101 .5960784 .6666667 .6862745 50 98 62 0 87 96 91 0 +0 .3
64285996472412 -.01 -888169536987207e-32 0 1 1 0 888169536987207e-32 14 87 42 10
5 ?0 68 75 4 98 -0 0 0 68 22 50 96 25 0 68 0 98 0 +0 .364285996472412 .03 -88816
9536987207e-32 0 1 1 0 888169536987207e-32 81 1 105 116 92 87 0 0 94 0 106 81 1
 94 115 92 68 0 0 90 105 107 83 3 106 .5960784 .6666667 .6862745 83 3 107 .59607
84 .6666667 .6862745 83 3 95 .5960784 .6666667 .6862745 19 16 92 0 1 0 8 4 S74 4
 CI16 index_map_offset0 0 1 dCCZ20 14 2 0 0 2 105 0 0 0 0 0 0 0 0 0 0 0 0 0 0 0
 0 0 0 80 2 11 108 109 8004 0 0 0 0 3 5 0 0 0 FFTFFFFFFFFFFF2 3 83 1 12 7830.64
 84 255 8 13 Kg/Cu M 79 16 109 SDL/TYSA_DENSITY1 0 
