**ABCDEFGHIJKLMNOPQRSTUVWXYZabcdefghijklmnopqrstuvwxyz**************************
**PARASOLID !"#$%&'()*+,-./:;<=>?@[\]^_`{|}~0123456789**************************
**PART1;
MC=x64/Windows NT;
MC_MODEL=genuineintel family 6 model 14 stepping 5, intel(r) core(tm) i5 cpu         760  @ 2.80ghz;
MC_ID=ds77;
OS=windows nt (x64);
OS_RELEASE=5.2 (workstation) (build 3790: service pack 2) ;
FRU=mdc_ugii_v7.0_djl_can_vrh;
APPL=unigraphics;
SITE=unknown;
USER=autoform;
FORMAT=text;
GUISE=transmit;
KEY=solid-ZY-plane;
FILE=D:\WorkPiece\solid-ZY-plane.x_t;
DATE=7-may-2014;
**PART2;
SCH=SCH_2201175_20000;
USFLD_SIZE=0;
**PART3;
**END_OF_HEADER*****************************************************************
T51 : TRANSMIT FILE created by modeller version 220117523 SCH_2201175_20000_1300
6186 0 12 27 CCCCCCCCCCCCCCCCCCCCCCCA16 index_map_offset0 0 1 dA9 index_map82 0
 A17 node_id_index_map82 0 A20 schema_embedding_map82 0 Z1 116 2 3 0 0 0 0 1e3 1
e-8 0 0 0 1 0 1 1 4 5 6 7 8 9 10 0 0 0 0 81 255 2 2 110 11 1 0 0 0 0 12 13 70 11
 CI9 list_type0 0 1 uI10 notransmit0 0 1 lCCCDCCDI12 finger_index0 0 1 dI12 fing
er_block1012 0 CZ3 0 4 T1 0 0 2 20 1 14 14 13 255 4 3 0 1 0 15 0 0 16 0 50 255 5
 90 0 15 17 0 0 +.05 -.1 .07 0 0 1 1 0 0 30 255 6 86 0 18 19 0 0 +.05 -.1 .07 -1
 0 0 29 255 7 67 0 20 21 0 -.01 -.1 -.075 19 255 8 1 0 1 16 0 22 V16 255 9 73 0
 ?23 0 24 19 0 0 1 18 255 10 15 0 25 0 26 27 ?1 17 255 25 0 28 29 30 10 31 32 0
 33 -18 26 10 0 34 10 35 36 ?1 29 27 17 0 10 36 37 .05 -.1 -.075 29 36 12 0 26 3
8 27 .05 .1 -.075 29 37 70 0 39 27 40 -.01 -.1 .07 18 39 60 0 41 42 0 37 ?1 29 4
0 69 0 42 37 21 -.01 .1 .07 18 42 58 0 23 43 39 40 ?1 29 21 68 0 43 40 7 -.01 .1
 -.075 18 43 56 0 44 20 42 21 ?1 17 44 0 45 46 47 43 34 24 0 48 +18 20 54 0 31 4
9 43 7 ?1 17 31 0 50 48 33 20 25 32 0 30 +18 49 2 0 51 35 20 52 ?1 17 51 0 53 54
 55 49 41 18 0 29 -18 35 5 0 56 26 49 38 ?1 29 52 4 0 49 0 38 .05 -.1 .07 29 38
 7 0 35 52 36 .05 .1 .07 17 56 0 45 47 46 35 23 9 0 57 -15 255 45 79 0 46 58 0 1
7 47 0 45 44 56 26 57 59 0 60 +17 46 0 45 56 44 42 61 62 0 63 -17 23 0 53 55 54
 42 56 9 0 46 +17 57 0 64 65 60 35 47 59 0 54 -15 64 23 0 65 66 0 17 65 0 64 67
 57 49 54 68 0 0 -17 60 0 64 57 67 26 33 69 0 0 -16 59 11 0 ?47 69 68 70 0 0 1 1
7 54 0 53 23 51 35 65 68 0 0 +15 53 81 0 55 15 0 16 68 6 0 ?54 59 71 72 0 0 1 16
 71 46 0 ?73 68 74 75 0 0 1 30 72 9 0 68 0 70 0 +.05 -.1 .07 0 1 0 30 70 14 0 59
 72 76 0 +.05 .1 .07 0 0 -1 30 76 19 0 69 70 77 0 +.05 .1 -.075 0 -1 0 16 69 16
 0 ?33 78 59 76 0 0 1 30 77 22 0 78 76 79 0 +.05 -.1 -.075 0 0 1 16 78 20 0 ?29
 18 69 77 0 0 1 30 79 66 0 80 77 81 0 +-.01 -.1 .07 0 1 0 16 80 52 0 ?63 62 0 79
 0 0 1 30 81 65 0 62 79 82 0 +-.01 .1 .07 0 0 -1 16 62 50 0 ?61 74 80 81 0 0 1 3
0 82 64 0 74 81 75 0 +-.01 .1 -.075 0 -1 0 16 74 48 0 ?83 71 62 82 0 0 1 30 75 6
3 0 71 82 84 0 +-.01 -.1 -.075 0 0 1 30 84 83 0 32 75 85 0 +.05 -.1 -.075 -1 0 0
 16 32 71 0 ?31 24 18 84 0 0 1 30 85 84 0 24 84 19 0 +.05 .1 -.075 -1 0 0 16 24
 72 0 ?44 9 32 85 0 0 1 30 19 85 0 9 85 6 0 +.05 .1 .07 -1 0 0 16 18 74 0 ?41 32
 78 6 0 0 1 17 41 0 28 30 29 39 51 18 0 73 +15 28 75 0 30 86 0 17 30 0 28 25 41
 20 73 71 0 83 -17 29 0 28 41 25 49 67 78 0 65 +17 73 0 87 63 83 39 30 71 0 55 +
15 87 45 0 63 88 0 17 63 0 87 61 73 42 55 80 0 0 +17 83 0 87 73 61 20 48 74 0 0
 +17 55 0 53 51 23 39 63 80 0 0 -17 61 0 87 83 63 43 46 62 0 0 +17 48 0 50 34 31
 43 83 74 0 61 -15 50 77 0 48 89 0 17 34 0 50 33 48 26 44 24 0 47 -17 33 0 50 31
 34 10 60 69 0 67 +17 67 0 64 60 65 10 29 78 0 0 -14 255 89 78 90 ?86 58 50 4 91
 +0 0 86 58 22 81 1 90 113 92 89 0 0 93 94 95 14 86 76 94 ?66 89 28 4 96 +0 0 66
 89 22 14 58 80 93 ?89 15 45 4 17 +0 0 89 15 22 50 91 88 0 89 96 17 0 +.05 .1 -.
075 0 0 -1 -1 0 0 13 22 91 0 0 0 0 0 0 8 15 14 15 82 97 ?58 0 53 4 5 +0 0 58 0 2
2 81 1 97 111 92 15 0 0 0 93 98 80 255 1 92 0 99 8001 0 0 0 0 3 5 0 0 0 FFFFTFTF
FFFFFF2 81 1 93 112 92 58 0 0 97 90 100 83 255 3 98 .5960784 .6666667 .6862745 8
3 3 100 .5960784 .6666667 .6862745 79 255 15 99 SDL/TYSA_COLOUR50 96 87 0 86 101
 91 0 +.05 -.1 -.075 0 -1 0 0 0 -1 50 17 89 0 58 91 5 0 +.05 .1 .07 0 1 0 0 0 1
 50 101 62 0 88 102 96 0 +-.01 .1 .07 -1 0 0 0 0 1 14 88 42 103 ?0 66 87 4 101 +
0 0 0 66 22 50 102 25 0 66 0 101 0 +.05 .1 .07 -1 0 0 0 0 1 14 66 24 104 ?88 86
 64 4 102 -0 0 88 86 22 81 1 104 115 92 66 0 0 94 103 105 81 1 94 114 92 86 0 0
 90 104 106 81 1 103 116 92 88 0 0 104 0 107 83 3 105 .5960784 .6666667 .6862745
 83 3 107 .5960784 .6666667 .6862745 83 3 106 .5960784 .6666667 .6862745 83 3 95
 .5960784 .6666667 .6862745 19 16 92 0 1 0 8 4 S74 4 CI16 index_map_offset0 0 1
 dCCZ20 14 2 0 0 2 103 0 0 0 0 0 0 0 0 0 0 0 0 0 0 0 0 0 0 80 2 11 108 109 8004
 0 0 0 0 3 5 0 0 0 FFTFFFFFFFFFFF2 3 83 1 12 7830.64 84 255 8 13 Kg/Cu M 79 16 1
09 SDL/TYSA_DENSITY1 0 
