**ABCDEFGHIJKLMNOPQRSTUVWXYZabcdefghijklmnopqrstuvwxyz**************************
**PARASOLID !"#$%&'()*+,-./:;<=>?@[\]^_`{|}~0123456789**************************
**PART1;
MC=unknown;
MC_MODEL=unknown;
MC_ID=unknown;
OS=Windows;
OS_RELEASE=unknown;
FRU=Parasolid Version 24.1, build 224, 6/12/2012;
APPL=ANSYS DesignModeler;
SITE=Canonsburg PA;
USER=unknown;
FORMAT=text;
GUISE=transmit;
KEY=B1;
FILE=B1.x_t;
DATE=10/11/13 13:12:16;
**PART2;
SCH=SCH_2401224_20000;
USFLD_SIZE=0;
**PART3;
**END_OF_HEADER*****************************************************************
T51 : TRANSMIT FILE created by modeller version 240122417 SCH_2300000_200000 12
 1 236 2 3 0 0 0 0 1e3 1e-8 0 0 0 1 0 1 1 4 5 6 7 8 9 10 0 0 0 0 81 2 2 228 11 1
 12 0 13 14 15 0 70 3 0 4 T1 0 0 2 20 1 16 16 13 4 3 0 1 0 17 0 0 18 0 50 5 95 0
 17 19 0 0 +0 0 1e-4 0 -1 0 0 0 -1 30 6 91 0 9 20 0 0 +-.01 0 1e-4 0 0 -1 29 7 7
4 0 21 22 0 -.01 .005 0 19 8 1 0 1 18 0 23 V16 9 79 24 ?25 0 26 6 0 0 1 18 10 10
 27 28 0 29 30 ?1 81 2 27 120 11 10 0 0 31 32 33 34 17 28 0 35 36 37 10 38 26 0
 39 -18 29 5 31 40 10 21 41 ?1 29 30 12 0 10 41 22 -.01 .005 1e-4 29 41 7 0 29 4
2 30 -.01 0 1e-4 29 22 75 0 43 30 7 -.01 0 0 18 43 64 44 25 21 45 22 ?1 81 2 44
 116 11 43 0 0 46 47 48 49 17 25 0 50 51 52 43 40 9 0 53 +18 21 62 47 38 29 43 7
 ?1 18 45 155 54 36 43 55 56 ?1 81 2 54 156 11 45 0 0 57 58 59 60 17 36 0 35 61
 28 45 62 63 0 64 +18 55 151 57 65 45 66 67 ?1 29 56 208 0 45 67 68 .01 .005 1e-
4 29 67 209 0 55 0 56 .01 0 1e-4 29 68 205 0 69 56 42 .01 0 0 18 69 161 70 51 66
 0 68 ?1 29 42 204 0 66 68 41 .01 .005 0 18 66 159 58 71 55 69 42 ?1 81 2 58 160
 11 66 0 0 54 70 72 73 17 71 0 74 75 76 66 37 77 0 61 +15 74 47 0 71 78 0 17 75
 0 74 79 71 69 80 81 0 82 -17 76 0 74 71 79 21 53 83 0 0 +17 37 0 35 28 61 21 71
 77 0 76 -16 77 48 84 ?71 85 83 86 0 0 1 17 61 0 35 37 36 66 87 88 0 80 +15 35 8
1 0 37 89 0 17 87 0 90 91 80 45 61 88 0 0 -16 88 139 92 ?61 93 94 95 0 0 1 17 80
 0 90 87 82 66 75 81 0 0 +15 90 173 0 80 96 0 17 82 0 90 80 91 69 97 93 0 0 +16
 81 133 32 ?80 94 0 98 0 0 1 81 2 32 134 11 81 0 0 27 99 100 101 16 94 145 102 ?
64 88 81 103 0 0 1 30 98 197 0 81 103 95 0 +.01 0 0 -693889390390723e-30 1 0 30
 103 201 0 94 0 98 0 +.01 0 1e-4 -693889390390723e-30 1 0 30 95 193 0 88 98 104
 0 +.01 .005 1e-4 0 0 -1 30 104 192 0 93 95 105 0 +.01 0 1e-4 0 0 -1 16 93 135 9
9 ?82 106 88 104 0 0 1 30 105 9 0 85 104 107 0 +0 0 1e-4 -1 0 0 16 85 6 108 ?52
 109 77 105 0 0 1 30 107 14 0 109 105 110 0 +-.01 0 1e-4 693889390390723e-30 1 0
 16 109 11 111 ?39 63 85 107 0 0 1 30 110 19 0 63 107 112 0 +-.01 .005 1e-4 1 26
0208521396521e-30 0 16 63 16 113 ?36 26 109 110 0 0 1 30 112 72 0 106 110 114 0
 +0 0 0 -1 0 0 16 106 54 115 ?79 83 93 112 0 0 1 30 114 71 0 83 112 86 0 +-.01 0
 0 693889390390723e-30 1 0 16 83 51 116 ?76 77 106 114 0 0 1 30 86 70 0 77 114 2
0 0 +-.01 .005 0 1 260208521396521e-30 0 30 20 90 0 26 86 6 0 +-.01 .005 1e-4 0
 0 -1 16 26 78 46 ?38 9 63 20 0 0 1 81 2 46 111 11 26 0 0 24 44 117 118 17 38 0
 119 53 39 21 28 26 0 37 +15 119 83 0 53 120 0 17 53 0 119 40 38 43 76 83 0 79 -
17 39 0 119 38 40 10 121 109 0 62 +17 40 0 119 39 53 29 25 9 0 52 -17 121 0 122
 65 62 29 39 109 0 0 -17 62 0 122 121 64 10 36 63 0 0 -15 122 27 0 65 123 0 17 6
4 0 122 62 65 45 91 94 0 87 +17 65 0 122 64 121 55 52 85 0 91 -17 91 0 90 82 87
 55 64 94 0 97 -17 97 0 50 52 51 55 82 93 0 0 -15 50 85 0 51 17 0 17 52 0 50 25
 97 29 65 85 0 121 +17 51 0 50 97 25 69 79 106 0 75 -17 79 0 74 76 75 43 51 106
 0 0 +14 17 86 124 ?120 0 50 4 5 +0 0 120 0 23 81 2 124 232 11 17 0 0 125 113 12
6 127 14 120 84 128 ?89 17 119 4 19 +0 0 89 17 23 13 23 97 0 0 0 0 0 0 8 17 81 2
 128 106 11 120 0 0 116 24 129 130 14 89 82 125 ?123 120 35 4 131 +0 0 123 120 2
3 50 19 94 0 120 131 5 0 +-.01 0 1e-4 -1 693889390390723e-30 0 -693889390390723e
-30 -1 0 50 131 93 0 89 132 19 0 +-.01 .005 1e-4 -260208521396521e-30 1 0 -1 -26
0208521396521e-30 0 50 132 68 0 78 133 131 0 +0 0 0 0 0 -1 -1 0 0 14 78 45 134 ?
96 123 74 4 132 +0 0 96 123 23 50 133 29 0 123 135 132 0 +0 0 1e-4 0 0 -1 -1 0 0
 14 123 28 14 ?78 89 122 4 133 -0 0 78 89 23 50 135 187 0 96 0 133 0 +.01 0 1e-4
 1 693889390390723e-30 0 693889390390723e-30 -1 0 14 96 171 13 ?0 78 90 4 135 +0
 0 0 78 23 81 2 13 172 11 96 0 0 70 2 136 137 80 2 11 138 139 9000 0 0 0 0 3 6 0
 0 0 FFTFTFTTTFFFTF3 1 81 2 70 162 11 69 0 0 58 13 140 141 84 12 136 F185.r(X159
)82 1 137 186 84 12 140 F185.r(X180)82 1 141 193 79 18 139 AnsysParaAttrDef.381
 2 14 229 11 123 0 0 2 134 142 143 81 2 134 230 11 78 0 0 14 125 144 145 84 10 1
42 F153.Cap1t82 1 143 156 81 2 125 231 11 89 0 0 134 124 146 147 84 10 144 F153.
Cap1b82 1 145 157 84 13 146 F153.F64.E13182 1 147 158 81 2 116 53 11 83 0 0 111
 128 148 149 81 2 24 110 11 9 0 0 128 46 150 151 84 13 129 F153.F64.E12682 1 130
 159 84 28 150 F153.F64.E126..F153.F64.E12182 1 151 172 81 2 111 24 11 109 0 0 0
 116 152 153 84 25 148 F153.Cap1b..F153.F64.E12682 1 149 168 84 25 152 F153.Cap1
t..F153.F64.E12682 1 153 164 81 2 113 233 11 63 0 0 124 108 154 155 84 13 126 F1
53.F64.E12182 1 127 160 81 2 108 234 11 85 0 0 113 84 156 157 84 25 154 F153.Cap
1t..F153.F64.E13182 1 155 162 81 2 84 235 11 77 0 0 108 115 158 159 84 25 156 F1
53.Cap1t..F153.F64.E12182 1 157 165 81 2 115 236 11 106 0 0 84 0 160 161 84 25 1
58 F153.Cap1b..F153.F64.E13182 1 159 166 84 25 160 F153.Cap1b..F153.F64.E12182 1
 161 169 84 28 117 F153.F64.E131..F153.F64.E12682 1 118 171 81 2 99 136 11 93 0
 0 32 92 162 163 81 2 92 140 11 88 0 0 99 102 164 165 84 12 162 F185.r(X172)82 1
 163 187 81 2 102 146 11 94 0 0 92 57 166 167 84 12 164 F185.r(X171)82 1 165 188
 81 2 57 152 11 55 0 0 102 54 168 169 84 12 166 F185.r(X164)82 1 167 189 84 12 1
68 F185.r(X176)82 1 169 192 84 12 100 F185.r(X168)82 1 101 190 84 12 72 F185.r(X
179)82 1 73 194 84 12 59 F185.r(X175)82 1 60 191 81 2 47 117 11 21 0 0 44 31 170
 171 81 2 31 119 11 29 0 0 47 27 172 173 84 9 170 F153.Vtx382 1 171 179 84 9 172
 F153.Vtx582 1 173 176 84 9 48 F153.Vtx282 1 49 180 84 9 33 F153.Vtx682 1 34 175
 19 18 98 0 1 0 8 4 S74 20 16 2 0 0 115 12 0 0 0 0 0 0 0 0 0 0 0 0 0 0 0 0 0 0 8
1 1 12 114 174 1 0 2 0 0 175 80 1 174 176 177 9000 0 0 0 0 3 6 0 0 0 FFTFFFFFTFF
FFF1 82 1 175 0 79 13 177 BodyAttrDef.484 6 15 F153.B1 0 
