**ABCDEFGHIJKLMNOPQRSTUVWXYZabcdefghijklmnopqrstuvwxyz**************************
**PARASOLID !"#$%&'()*+,-./:;<=>?@[\]^_`{|}~0123456789**************************
**PART1;
MC=unknown;
MC_MODEL=unknown;
MC_ID=unknown;
OS=Windows;
OS_RELEASE=unknown;
FRU=Parasolid Version 24.1, build 224, 6/12/2012;
APPL=ANSYS DesignModeler;
SITE=Canonsburg PA;
USER=unknown;
FORMAT=text;
GUISE=transmit;
KEY=B2;
FILE=B2.x_t;
DATE=10/11/13 13:14:50;
**PART2;
SCH=SCH_2401224_20000;
USFLD_SIZE=0;
**PART3;
**END_OF_HEADER*****************************************************************
T51 : TRANSMIT FILE created by modeller version 240122417 SCH_2300000_200000 74
 2 1 2 0 0 2 3 12 2 354 4 5 0 0 0 0 1e3 1e-8 0 0 3 1 0 1 1 6 7 8 9 10 11 12 0 0
 0 0 12 3 91 13 14 0 0 0 0 1e3 1e-8 0 2 0 1 0 1 1 15 16 17 18 19 20 21 0 0 0 0 8
1 2 13 83 22 3 23 0 24 25 26 0 70 14 0 4 T3 0 0 2 20 1 27 27 13 15 6 0 3 0 28 0
 0 29 0 50 16 74 0 28 30 0 0 +0 0 0 1 0 0 0 1 0 30 17 82 0 31 32 0 0 +0 0 0 -1 0
 0 29 18 69 0 33 34 0 0 .005 0 19 19 4 0 3 29 0 35 V16 20 25 36 ?37 0 38 39 0 0
 3 18 21 37 40 41 0 42 43 ?3 81 2 40 38 22 21 0 0 44 45 46 47 17 41 0 48 37 49 2
1 50 38 0 51 +18 42 35 44 52 21 53 54 ?3 29 43 66 0 21 54 55 -.01 0 1e-4 29 54 6
5 0 42 56 43 -.01 .005 1e-4 29 55 67 0 57 43 34 0 0 1e-4 18 57 28 58 59 60 61 55
 ?3 29 34 68 0 61 55 18 0 .005 1e-4 18 61 27 62 63 57 0 34 ?3 81 2 62 91 22 61 0
 0 64 0 65 66 17 63 0 67 59 68 61 69 70 0 71 -15 67 41 0 63 28 0 17 59 0 67 72 6
3 57 73 74 0 50 +17 68 0 67 63 72 33 75 76 0 69 -17 69 0 77 78 71 33 63 70 0 79
 +16 70 21 80 ?69 81 82 83 0 0 3 17 71 0 77 69 52 61 84 82 0 73 +15 77 53 0 71 8
5 0 17 52 0 77 71 78 42 86 87 0 88 -17 84 0 89 90 73 42 71 82 0 0 -16 82 19 91 ?
71 70 92 93 0 0 3 17 73 0 89 84 50 61 59 74 0 0 -15 89 50 0 73 94 0 17 50 0 89 7
3 90 57 41 38 0 49 -16 74 7 95 ?59 96 0 97 0 0 3 81 2 95 87 22 74 0 0 98 58 99 1
00 16 96 8 101 ?88 87 74 102 0 0 3 30 97 78 0 74 83 93 0 +0 0 1e-4 0 -1 0 30 83
 77 0 70 103 97 0 +0 .005 1e-4 0 0 -1 30 93 79 0 82 97 104 0 +-.01 .005 1e-4 1 2
60208521396521e-30 0 30 104 80 0 38 93 32 0 +0 0 1e-4 -1 0 0 16 38 23 105 ?41 20
 81 104 0 0 3 30 32 81 0 106 104 17 0 +-.01 .005 0 1 260208521396521e-30 0 16 10
6 12 107 ?79 76 87 32 0 0 3 81 2 107 13 22 106 0 0 108 109 110 111 17 79 0 112 7
5 113 33 78 106 0 0 +16 76 14 25 ?75 31 106 114 0 0 3 16 87 10 108 ?86 106 96 11
5 0 0 3 81 2 108 11 22 87 0 0 101 107 116 117 17 86 0 118 119 88 120 52 87 0 78
 +30 115 59 0 87 39 121 0 +-.01 .005 1e-4 0 0 -1 30 39 58 0 20 0 115 0 +-.01 0 1
e-4 0 0 -1 30 121 60 0 92 115 102 0 +-.01 0 0 693889390390723e-30 1 0 16 92 17 1
22 ?113 82 31 121 0 0 3 30 102 61 0 96 121 114 0 +-.01 0 1e-4 693889390390723e-3
0 1 0 30 114 75 0 76 102 103 0 +0 0 0 0 -1 0 30 103 76 0 81 114 83 0 +0 0 1e-4 0
 0 1 16 81 22 98 ?49 38 70 103 0 0 3 81 2 98 86 22 81 0 0 80 95 123 124 17 49 0
 48 41 125 57 72 81 0 0 +15 48 56 0 125 126 0 17 125 0 48 49 37 60 127 31 0 75 -
17 72 0 67 68 59 60 49 81 0 125 -18 60 29 64 72 33 57 128 ?3 81 2 64 90 22 60 0
 0 129 62 130 131 18 33 30 129 68 120 60 18 ?3 29 128 62 0 60 0 132 0 0 0 29 132
 63 0 120 128 56 -.01 .005 0 18 120 31 133 86 53 33 132 ?3 29 56 64 0 53 132 54
 -.01 0 0 18 53 33 134 127 42 120 56 ?3 81 2 134 34 22 53 0 0 133 44 135 136 17
 127 0 112 113 75 53 125 31 0 37 +15 112 47 0 79 137 0 17 113 0 112 79 127 120 1
19 92 0 0 +17 75 0 112 127 79 60 68 76 0 0 +16 31 15 109 ?127 92 76 17 0 0 3 17
 37 0 48 125 41 53 51 20 0 119 +17 51 0 118 88 119 21 37 20 0 90 -17 119 0 118 5
1 86 53 113 92 0 0 -15 118 44 0 119 138 0 14 138 42 139 ?137 28 118 15 140 +0 0
 137 28 35 81 2 139 43 22 138 0 0 45 141 142 143 14 137 45 141 ?94 138 112 15 30
 +0 0 94 138 35 14 28 39 45 ?138 0 67 15 16 +0 0 138 0 35 50 140 57 0 138 0 144
 0 +-.01 0 1e-4 -1 693889390390723e-30 0 -693889390390723e-30 -1 0 13 35 5 0 0 0
 0 0 0 19 28 50 144 70 0 126 140 145 0 +0 0 1e-4 0 -1 0 0 0 -1 14 126 54 24 ?0 8
5 48 15 144 +0 0 0 85 35 50 145 71 0 85 144 146 0 +-.01 .005 1e-4 -2602085213965
21e-30 1 0 -1 -260208521396521e-30 0 14 85 51 147 ?126 94 77 15 145 +0 0 126 94
 35 50 146 72 0 94 145 30 0 +0 0 1e-4 0 0 -1 -1 0 0 14 94 48 148 ?85 137 89 15 1
46 -0 0 85 137 35 50 30 73 0 137 146 16 0 +0 0 0 0 0 -1 -1 0 0 81 2 148 49 22 94
 0 0 141 147 149 150 80 2 22 151 152 9000 0 0 0 0 3 6 0 0 0 FFTFTFTTTFFFTF3 1 81
 2 141 46 22 137 0 0 139 148 153 154 81 2 147 52 22 85 0 0 148 24 155 156 84 10
 149 F153.Cap1t82 1 150 203 81 2 24 55 22 126 0 0 147 13 157 158 84 13 155 F153.
F64.E13182 1 156 204 84 13 157 F153.F64.E12182 1 158 205 84 10 153 F153.Cap1b82
 1 154 202 79 18 152 AnsysParaAttrDef.381 2 45 40 22 28 0 0 40 139 159 160 84 4
 159 F19782 1 160 201 84 13 142 F153.F64.E12682 1 143 159 17 88 0 118 86 51 42 9
0 96 0 84 +17 90 0 89 50 84 21 88 96 0 0 -81 2 109 16 22 31 0 0 107 122 161 162
 81 2 122 18 22 92 0 0 109 91 163 164 84 25 161 F153.Cap1b..F153.F64.E12182 1 16
2 212 81 2 91 20 22 82 0 0 122 105 165 166 84 25 163 F153.Cap1b..F153.F64.E12682
 1 164 168 81 2 105 24 22 38 0 0 91 36 167 168 84 25 165 F153.Cap1t..F153.F64.E1
3182 1 166 210 81 2 36 26 22 20 0 0 105 133 169 170 84 25 167 F153.Cap1t..F153.F
64.E12182 1 168 217 81 2 133 32 22 120 0 0 36 134 171 172 84 28 169 F153.F64.E12
6..F153.F64.E12182 1 170 172 84 9 171 F153.Vtx382 1 172 179 81 2 44 36 22 42 0 0
 134 40 173 174 84 9 135 F153.Vtx282 1 136 180 84 9 173 F153.Vtx682 1 174 175 81
 2 129 89 22 33 0 0 58 64 175 176 81 2 58 88 22 57 0 0 95 129 177 178 84 9 175 F
197.Vtx282 1 176 222 84 9 177 F197.Vtx182 1 178 224 84 9 130 F197.Vtx382 1 131 2
25 81 2 80 85 22 70 0 0 25 98 179 180 84 19 123 F197..F153.F64.E12182 1 124 215
 81 2 25 84 22 76 0 0 13 80 181 182 84 19 179 F197..F153.F64.E13182 1 180 214 84
 16 181 F197..F153.Cap1b82 1 182 213 17 78 0 77 52 69 120 79 106 0 113 -81 2 101
 9 22 96 0 0 0 108 183 184 84 28 116 F153.F64.E131..F153.F64.E12682 1 117 171 84
 25 183 F153.Cap1t..F153.F64.E12682 1 184 164 84 25 110 F153.Cap1b..F153.F64.E13
182 1 111 211 84 16 99 F197..F153.Cap1t82 1 100 216 84 9 65 F197.Vtx482 1 66 223
 84 9 46 F153.Vtx582 1 47 176 19 29 1 0 3 0 19 15 S74 20 27 2 0 0 62 23 0 0 0 0
 0 0 0 0 0 0 0 0 0 0 0 0 0 0 81 1 23 3 185 3 0 13 0 0 186 80 1 185 187 188 9000
 0 0 0 0 3 6 0 0 0 FFTFFFFFTFFFFF1 82 1 186 1 79 13 188 BodyAttrDef.484 9 26 F19
7.P0.B81 2 4 228 22 2 189 0 190 191 192 0 70 5 0 4 T2 0 0 2 20 1 193 193 13 6 3
 0 2 0 194 0 0 195 0 50 7 95 0 194 196 0 0 +0 0 1e-4 0 -1 0 0 0 -1 30 8 247 0 11
 197 0 0 +0 0 0 0 -1 0 29 9 344 0 198 199 0 0 0 1e-4 19 10 1 0 2 195 0 200 V16 1
1 321 201 ?202 0 203 8 0 0 2 18 12 286 204 205 0 206 207 ?2 81 2 204 354 22 12 0
 0 208 0 209 210 17 205 0 211 212 213 12 214 215 0 216 -18 206 284 217 202 12 19
8 199 ?2 29 207 341 0 12 218 199 0 .005 1e-4 29 218 334 0 219 220 207 0 .005 0 2
9 199 342 0 206 207 9 0 0 0 18 219 331 208 212 198 221 218 ?2 29 220 204 0 222 2
23 218 .01 .005 0 18 222 159 224 225 226 227 220 ?2 29 223 205 0 227 228 220 .01
 0 0 18 227 161 229 230 222 0 223 ?2 29 228 208 0 221 231 223 .01 .005 1e-4 18 2
21 155 232 233 219 226 228 ?2 29 231 209 0 226 0 228 .01 0 1e-4 18 226 151 234 2
35 221 222 231 ?2 81 2 234 152 22 226 0 0 236 232 237 238 17 235 0 239 240 214 2
26 241 242 0 243 -15 239 27 0 244 245 0 17 240 0 239 244 235 221 243 246 0 247 +
17 214 0 239 235 244 198 205 215 0 241 +17 241 0 248 249 250 198 235 242 0 0 +16
 242 6 251 ?241 252 253 254 0 0 2 17 243 0 255 256 247 226 240 246 0 250 -15 255
 173 0 257 258 0 17 256 0 255 257 243 227 250 259 0 0 +17 247 0 255 243 257 221
 260 261 0 0 -16 246 145 236 ?240 261 262 263 0 0 2 17 250 0 248 241 230 226 256
 259 0 0 -15 248 267 0 249 194 0 17 230 0 248 250 249 227 264 265 0 266 -16 259
 135 267 ?256 265 261 268 0 0 2 81 2 267 136 22 259 0 0 269 270 271 272 16 265 5
4 273 ?264 253 259 274 0 0 2 16 261 139 270 ?260 259 246 275 0 0 2 30 268 192 0
 259 275 254 0 +.01 0 1e-4 0 0 -1 30 275 193 0 261 276 268 0 +.01 .005 1e-4 0 0
 -1 30 254 9 0 242 268 277 0 +0 0 1e-4 -1 0 0 30 277 19 0 252 254 274 0 +-.01 .0
05 1e-4 1 260208521396521e-30 0 16 252 255 278 ?233 215 242 277 0 0 2 30 274 72
 0 265 277 197 0 +0 0 0 -1 0 0 30 197 70 0 253 274 8 0 +-.01 .005 0 1 2602085213
96521e-30 0 16 253 238 279 ?225 242 265 197 0 0 2 81 2 279 239 22 253 0 0 273 27
8 280 281 17 225 0 282 266 283 222 284 253 0 260 +15 282 246 0 283 285 0 17 266
 0 282 264 225 227 257 262 0 256 -17 283 0 282 225 264 219 202 11 0 0 -17 284 0
 286 216 260 219 225 253 0 283 -17 260 0 286 284 233 222 247 261 0 257 +15 286 2
63 0 216 287 0 17 233 0 286 260 216 221 244 252 0 240 +17 257 0 255 247 256 222
 266 262 0 0 +16 262 133 269 ?257 246 0 276 0 0 2 81 2 269 134 22 262 0 0 0 267
 288 289 30 276 197 0 262 263 275 0 +.01 0 0 -693889390390723e-30 1 0 30 263 201
 0 246 290 276 0 +.01 0 1e-4 -693889390390723e-30 1 0 30 290 303 0 215 291 263 0
 +0 0 1e-4 0 -1 0 16 215 258 292 ?214 293 252 290 0 0 2 30 291 304 0 203 294 290
 0 +0 0 1e-4 0 0 1 16 203 266 295 ?213 11 293 291 0 0 2 30 294 305 0 293 0 291 0
 +0 .005 1e-4 0 0 -1 16 293 262 296 ?212 203 215 294 0 0 2 81 2 296 348 22 293 0
 0 292 295 297 298 17 212 0 211 202 205 219 216 293 0 284 +15 211 293 0 212 299
 0 17 202 0 211 213 212 206 283 11 0 249 +17 216 0 286 233 284 12 212 293 0 244
 -17 244 0 239 214 240 12 233 252 0 0 -17 213 0 211 205 202 198 249 203 0 214 +1
7 249 0 248 230 241 206 213 203 0 264 -17 264 0 282 283 266 206 230 265 0 0 +18
 198 283 300 213 206 219 9 ?2 81 2 300 352 22 198 0 0 217 208 301 302 81 2 217 3
51 22 206 0 0 201 300 303 304 81 2 208 353 22 219 0 0 300 204 305 306 84 9 301 F
197.Vtx682 1 302 220 84 9 305 F197.Vtx782 1 306 218 81 2 201 350 22 11 0 0 295 2
17 307 308 84 9 303 F197.Vtx582 1 304 221 81 2 295 349 22 203 0 0 296 201 309 31
0 84 16 307 F153.Cap1b..F19782 1 308 209 84 19 309 F153.F64.E121..F19782 1 310 2
08 14 299 296 311 ?0 258 211 6 312 -0 0 0 258 200 81 2 311 340 22 299 0 0 278 29
2 313 314 14 258 171 190 ?299 285 255 6 315 +0 0 299 285 200 50 312 302 0 299 0
 315 0 +0 0 0 1 0 0 0 1 0 13 200 97 0 0 0 0 0 0 10 194 14 194 86 316 ?287 0 248
 6 7 +0 0 287 0 200 81 2 316 232 22 194 0 0 317 251 318 319 14 287 82 317 ?245 1
94 286 6 196 +0 0 245 194 200 81 2 317 231 22 287 0 0 320 316 321 322 14 245 28
 191 ?285 287 239 6 323 -0 0 285 287 200 50 196 93 0 287 324 7 0 +-.01 .005 1e-4
 -260208521396521e-30 1 0 -1 -260208521396521e-30 0 50 324 68 0 285 323 196 0 +0
 0 0 0 0 -1 -1 0 0 14 285 45 320 ?258 245 282 6 324 +0 0 258 245 200 50 323 29 0
 245 315 324 0 +0 0 1e-4 0 0 -1 -1 0 0 50 315 187 0 258 312 323 0 +.01 0 1e-4 1
 693889390390723e-30 0 693889390390723e-30 -1 0 81 2 320 230 22 285 0 0 191 317
 325 326 81 2 191 229 22 245 0 0 4 320 327 328 84 10 325 F153.Cap1b82 1 326 157
 84 10 327 F153.Cap1t82 1 328 156 84 13 321 F153.F64.E13182 1 322 158 81 2 251 2
34 22 242 0 0 316 273 329 330 84 13 318 F153.F64.E12182 1 319 160 81 2 273 236 2
2 265 0 0 251 279 331 332 84 25 329 F153.Cap1t..F153.F64.E12182 1 330 165 84 25
 331 F153.Cap1b..F153.F64.E12182 1 332 169 81 2 190 172 22 258 0 0 229 4 333 334
 81 2 229 162 22 227 0 0 224 190 335 336 84 12 333 F185.r(X159)82 1 334 186 81 2
 224 160 22 222 0 0 232 229 337 338 84 12 335 F185.r(X180)82 1 336 193 81 2 232
 156 22 221 0 0 234 224 339 340 84 12 337 F185.r(X179)82 1 338 194 84 12 339 F18
5.r(X175)82 1 340 191 81 2 278 256 22 252 0 0 279 311 341 342 81 2 292 347 22 21
5 0 0 311 296 343 344 84 4 313 F19782 1 314 200 84 16 343 F153.Cap1t..F19782 1 3
44 206 84 25 341 F153.Cap1t..F153.F64.E13182 1 342 162 84 19 297 F153.F64.E131..
F19782 1 298 207 84 12 288 F185.r(X168)82 1 289 190 84 25 280 F153.Cap1b..F153.F
64.E13182 1 281 166 81 2 270 140 22 261 0 0 267 236 345 346 81 2 236 146 22 246
 0 0 270 234 347 348 84 12 345 F185.r(X171)82 1 346 188 84 12 347 F185.r(X164)82
 1 348 189 84 12 271 F185.r(X172)82 1 272 187 84 12 237 F185.r(X176)82 1 238 192
 84 9 209 F197.Vtx882 1 210 219 19 195 98 0 2 0 10 6 S74 20 193 2 0 0 204 189 0
 0 0 0 0 0 0 0 0 0 0 0 0 0 0 0 0 0 81 1 189 114 185 2 0 4 0 0 349 82 1 349 0 84
 6 192 F153.B1 0 
