**ABCDEFGHIJKLMNOPQRSTUVWXYZabcdefghijklmnopqrstuvwxyz**************************
**PARASOLID !"#$%&'()*+,-./:;<=>?@[\]^_`{|}~0123456789**************************
**PART1;
MC=unknown;
MC_MODEL=unknown;
MC_ID=unknown;
OS=Windows;
OS_RELEASE=unknown;
FRU=Parasolid Version 24.1, build 224, 6/12/2012;
APPL=ANSYS DesignModeler;
SITE=Canonsburg PA;
USER=unknown;
FORMAT=text;
GUISE=transmit;
KEY=B3;
FILE=B3.x_t;
DATE=10/11/13 14:11:01;
**PART2;
SCH=SCH_2401224_20000;
USFLD_SIZE=0;
**PART3;
**END_OF_HEADER*****************************************************************
T51 : TRANSMIT FILE created by modeller version 240122417 SCH_2300000_200000 12
 1 122 2 3 0 0 0 0 1e3 1e-8 0 0 0 1 0 1 1 4 5 6 7 8 9 10 0 0 0 0 81 1 2 114 11 1
 12 0 0 0 13 70 3 0 4 T1 0 0 2 20 1 14 14 13 4 97 0 1 0 15 0 0 16 0 51 5 96 0 15
 17 0 0 -0 0 .005 0 0 -1 .0101 -1 0 0 30 6 92 0 9 18 0 0 +-.0101 0 .005 0 0 -1 2
9 7 73 0 19 20 0 .0101 0 0 19 8 1 0 1 16 0 21 V16 9 80 22 ?23 0 24 6 0 0 1 18 10
 15 25 26 0 27 28 ?1 81 2 25 121 29 10 0 0 30 31 32 33 17 26 0 34 35 36 10 37 38
 0 39 +18 27 10 31 40 10 41 42 ?1 29 28 17 0 10 42 43 .0101 0 .005 29 42 12 0 27
 44 28 .01 0 .005 29 43 76 0 45 28 46 -.0101 0 0 18 45 66 47 48 49 0 43 ?1 29 46
 75 0 49 43 20 -.01 0 0 18 49 64 50 51 52 45 46 ?1 29 20 74 0 52 46 7 .01 0 0 18
 52 62 53 54 19 49 20 ?1 81 2 53 117 29 52 0 0 50 55 56 57 17 54 0 58 59 37 52 4
0 60 0 61 +18 19 60 55 59 62 52 7 ?1 81 2 55 118 29 19 0 0 53 63 64 65 17 59 0 5
8 39 54 19 61 66 0 67 +18 62 2 30 68 41 19 69 ?1 81 2 30 120 29 62 0 0 63 25 70
 71 17 68 0 72 23 73 62 74 75 0 35 -18 41 5 63 74 27 62 44 ?1 29 69 4 0 62 0 44
 -.0101 0 .005 29 44 7 0 41 69 42 -.01 0 .005 81 2 63 119 29 41 0 0 55 30 76 77
 17 74 0 34 36 35 41 68 75 0 73 +15 34 27 0 35 78 0 17 36 0 34 26 74 27 79 80 0
 0 -17 35 0 34 74 26 62 81 82 0 83 +16 75 6 84 ?74 80 82 85 0 0 1 17 73 0 72 68
 86 41 51 24 0 79 -15 72 85 0 86 87 0 17 86 0 72 73 23 49 48 88 0 89 +17 51 0 90
 91 79 49 73 24 0 86 +16 24 79 92 ?51 9 60 18 0 0 1 17 79 0 90 51 40 41 36 80 0
 0 +15 90 83 0 91 93 0 17 40 0 90 79 91 27 54 60 0 37 -16 80 11 94 ?79 38 75 95
 0 0 1 81 2 94 24 29 80 0 0 84 96 97 98 16 38 16 96 ?26 99 80 100 0 0 1 31 95 14
 0 80 85 100 0 +0 0 .005 0 0 1 1 0 0 .01 30 85 9 0 75 0 95 0 +-.0101 0 .005 1 0
 0 30 100 19 0 38 95 101 0 +.01 0 .005 1 0 0 31 101 22 0 82 100 102 0 +0 0 .005
 0 0 1 1 0 0 .0101 16 82 20 103 ?35 75 66 101 0 0 1 30 102 72 0 88 101 104 0 +-.
0101 0 0 1 0 0 16 88 54 105 ?86 106 107 102 0 0 1 31 104 71 0 106 102 108 0 +0 0
 0 0 0 1 1 0 0 .01 16 106 51 109 ?89 66 88 104 0 0 1 30 108 70 0 66 104 110 0 +.
01 0 0 1 0 0 16 66 48 111 ?59 82 106 108 0 0 1 31 110 69 0 107 108 112 0 +0 0 0
 0 0 1 1 0 0 .0101 16 107 57 113 ?114 88 0 110 0 0 1 30 112 89 0 99 110 115 0 +.
0101 0 .005 0 0 -1 16 99 77 116 ?67 60 38 112 0 0 1 30 115 90 0 60 112 18 0 +.01
 0 .005 0 0 -1 16 60 78 117 ?54 24 99 115 0 0 1 30 18 91 0 24 115 6 0 +-.01 0 .0
05 0 0 -1 81 2 117 111 29 60 0 0 92 116 118 119 80 2 29 120 121 9000 0 0 0 0 3 6
 0 0 0 FFTFTFTTTFFFTF3 1 81 2 92 110 29 24 0 0 22 117 122 123 81 2 116 112 29 99
 0 0 117 12 124 125 84 26 118 F104.F64.E94..F104.F64.E6582 1 119 122 81 2 12 113
 29 1 0 2 116 47 126 0 84 26 124 F104.F64.E94..F104.F64.E7582 1 125 121 81 2 47
 115 29 45 0 0 12 50 127 128 84 6 126 F104.B81 2 50 116 29 49 0 0 47 53 129 130
 84 9 127 F104.Vtx182 1 128 132 84 9 129 F104.Vtx282 1 130 131 81 2 22 109 29 9
 0 0 131 92 132 133 84 26 122 F104.F64.E65..F104.F64.E8582 1 123 123 81 2 131 10
8 29 15 0 0 134 22 135 136 84 26 132 F104.F64.E85..F104.F64.E7582 1 133 124 14 1
5 88 131 ?87 0 137 4 5 -0 0 87 0 21 81 2 134 107 29 87 0 0 138 131 139 140 84 12
 135 F104.F64.E7582 1 136 112 14 87 86 134 ?93 15 72 4 17 -0 0 93 15 21 81 2 138
 106 29 93 0 0 141 134 142 143 84 12 139 F104.F64.E8582 1 140 111 14 93 84 138 ?
144 87 90 4 145 +0 0 144 87 21 81 2 141 105 29 144 0 0 146 138 147 148 84 12 142
 F104.F64.E6582 1 143 110 14 144 82 141 ?78 93 58 4 149 -0 0 78 93 21 81 2 146 1
04 29 78 0 0 150 141 151 152 84 12 147 F104.F64.E9482 1 148 109 14 78 28 146 ?15
3 144 34 4 154 +0 0 153 144 21 81 2 150 103 29 153 0 0 113 146 155 156 84 10 151
 F104.Cap1t82 1 152 107 14 153 45 150 ?0 78 157 4 158 -0 0 0 78 21 81 2 113 59 2
9 107 0 0 105 150 159 160 84 10 155 F104.Cap1b82 1 156 108 81 2 105 56 29 88 0 0
 109 113 161 162 84 24 159 F104.Cap1b..F104.F64.E7582 1 160 118 81 2 109 53 29 1
06 0 0 111 105 163 164 84 24 161 F104.Cap1b..F104.F64.E8582 1 162 120 81 2 111 5
0 29 66 0 0 103 109 165 166 84 24 163 F104.Cap1b..F104.F64.E6582 1 164 119 81 2
 103 26 29 82 0 0 96 111 167 168 84 24 165 F104.Cap1b..F104.F64.E9482 1 166 117
 81 2 96 25 29 38 0 0 94 103 169 170 84 24 167 F104.Cap1t..F104.F64.E7582 1 168
 114 84 24 169 F104.Cap1t..F104.F64.E9482 1 170 113 15 157 47 0 171 153 0 50 158
 68 0 153 154 149 0 +0 0 0 0 0 1 1 0 0 13 21 3 0 0 0 0 0 0 8 15 50 154 29 0 78 0
 158 0 +0 0 .005 0 0 1 1 0 0 50 149 93 0 144 158 145 0 +.01 0 .005 0 1 0 0 0 1 5
1 145 94 0 93 149 17 0 -0 0 .005 0 0 -1 .01 -1 0 0 50 17 95 0 87 145 5 0 +-.0101
 0 .005 0 1 0 0 0 1 17 171 0 157 61 48 19 114 107 0 0 -17 61 0 157 89 171 52 59
 66 0 91 -17 48 0 157 171 89 45 86 88 0 23 -17 114 0 137 83 67 45 171 107 0 0 +1
5 137 87 0 114 15 0 17 83 0 137 81 114 62 23 9 0 0 -17 67 0 137 114 81 19 39 99
 0 171 +17 81 0 137 67 83 10 35 82 0 0 -17 39 0 58 37 59 10 67 99 0 81 -15 58 81
 0 59 144 0 17 37 0 58 54 39 27 26 38 0 36 -17 23 0 72 86 68 45 83 9 0 114 +17 8
9 0 157 48 61 49 91 106 0 0 +17 91 0 90 40 51 52 89 106 0 0 -79 18 121 AnsysPara
AttrDef.381 2 84 23 29 75 0 0 0 94 172 173 84 24 97 F104.Cap1t..F104.F64.E6582 1
 98 115 84 24 172 F104.Cap1t..F104.F64.E8582 1 173 116 84 9 76 F104.Vtx582 1 77
 127 84 9 70 F104.Vtx682 1 71 128 84 9 64 F104.Vtx482 1 65 129 84 9 56 F104.Vtx3
82 1 57 130 81 2 31 122 29 27 0 0 25 0 174 175 84 9 174 F104.Vtx882 1 175 126 84
 9 32 F104.Vtx782 1 33 125 19 16 98 0 1 0 8 4 S74 20 14 2 0 0 31 2 0 0 0 0 0 0 0
 0 0 0 0 0 0 0 0 0 0 0 80 1 11 176 177 9000 0 0 0 0 3 6 0 0 0 FFTFFFFFTFFFFF1 82
 1 13 0 79 13 177 BodyAttrDef.41 0 
