**ABCDEFGHIJKLMNOPQRSTUVWXYZabcdefghijklmnopqrstuvwxyz**************************
**PARASOLID !"#$%&'()*+,-./:;<=>?@[\]^_`{|}~0123456789**************************
**PART1;
MC=unknown;
MC_MODEL=unknown;
MC_ID=unknown;
OS=Windows;
OS_RELEASE=unknown;
FRU=Parasolid Version 24.1, build 224, 6/12/2012;
APPL=ANSYS DesignModeler;
SITE=Canonsburg PA;
USER=unknown;
FORMAT=text;
GUISE=transmit;
KEY=B4;
FILE=B4.x_t;
DATE=10/11/13 14:10:42;
**PART2;
SCH=SCH_2401224_20000;
USFLD_SIZE=0;
**PART3;
**END_OF_HEADER*****************************************************************
T51 : TRANSMIT FILE created by modeller version 240122417 SCH_2300000_200000 74
 2 1 2 0 0 2 3 12 2 240 4 5 0 0 0 0 1e3 1e-8 0 0 3 1 0 1 1 6 7 8 9 10 11 12 0 0
 0 0 12 3 91 13 14 0 0 0 0 1e3 1e-8 0 2 0 1 0 1 1 15 16 17 18 19 20 21 0 0 0 0 8
1 2 13 83 22 3 23 0 24 25 26 0 70 14 0 4 T3 0 0 2 20 1 27 27 13 15 6 0 3 0 28 0
 0 29 0 50 16 74 0 30 31 0 0 +0 0 0 1 0 0 0 1 0 31 17 82 0 32 33 0 0 +0 0 0 0 0
 1 1 0 0 .0101 29 18 69 0 21 34 0 0 .0101 0 19 19 4 0 3 29 0 35 V16 20 26 36 ?37
 0 38 39 0 0 3 18 21 38 40 41 0 42 18 ?3 81 2 40 90 22 21 0 0 43 44 45 46 17 41
 0 47 48 49 21 50 32 0 51 -18 42 36 52 53 21 54 55 ?3 81 2 52 37 22 42 0 0 56 57
 58 59 17 53 0 47 49 48 42 60 61 0 62 +18 54 34 56 63 42 64 34 ?3 29 55 65 0 42
 65 66 -.01 0 0 29 65 64 0 64 67 55 0 .0101 .005 29 66 66 0 68 55 69 -.0101 0 0
 18 68 27 70 50 71 0 66 ?3 29 69 67 0 72 66 34 -.01 0 .005 18 72 31 73 74 64 75
 69 ?3 29 34 68 0 54 69 18 -.0101 0 .005 81 2 73 32 22 72 0 0 70 56 76 77 17 74
 0 78 62 79 72 80 81 0 82 +18 64 33 83 84 54 72 65 ?3 18 75 30 43 79 72 71 67 ?3
 81 2 43 89 22 75 0 0 83 40 85 86 17 79 0 78 74 60 75 87 88 0 80 +18 71 29 44 60
 75 68 89 ?3 29 67 63 0 75 89 65 0 .01 .005 29 89 62 0 71 0 67 0 .01 0 81 2 44 9
1 22 71 0 0 40 0 90 91 17 60 0 78 79 62 71 53 61 0 48 -15 78 44 0 60 92 0 17 62
 0 78 60 74 42 93 94 0 95 +16 61 19 96 ?53 97 98 33 0 0 3 17 48 0 47 53 41 71 99
 38 0 87 -15 47 50 0 48 100 0 17 99 0 101 37 87 21 48 38 0 0 +16 38 25 25 ?99 20
 102 103 0 0 3 17 87 0 101 99 104 71 79 88 0 0 -15 101 56 0 104 30 0 17 104 0 10
1 87 37 75 84 105 0 0 -16 88 9 106 ?79 81 32 107 0 0 3 81 2 106 85 22 88 0 0 25
 36 108 109 16 81 10 110 ?74 94 88 111 0 0 3 16 32 7 112 ?50 88 0 17 0 0 3 30 10
7 75 0 88 113 114 0 -0 .01 .005 0 0 -1 30 113 61 0 98 115 107 0 +-.0101 0 .005 1
 0 0 30 114 76 0 105 107 39 0 +0 0 .005 0 1 0 16 105 14 116 ?84 117 94 114 0 0 3
 30 39 77 0 20 114 103 0 -0 .0101 .005 0 0 -1 30 103 78 0 38 39 111 0 +0 0 0 0 1
 0 31 111 79 0 81 103 118 0 +0 0 .005 0 0 1 1 0 0 .01 31 118 80 0 117 111 33 0 +
0 0 .005 0 0 1 1 0 0 .0101 16 117 15 119 ?63 98 105 118 0 0 3 31 33 81 0 61 118
 17 0 +0 0 0 0 0 1 1 0 0 .01 81 2 119 16 22 117 0 0 120 121 122 123 17 63 0 124
 82 84 54 125 117 0 126 +16 98 17 121 ?82 61 117 113 0 0 3 81 2 121 18 22 98 0 0
 119 96 127 128 17 82 0 124 80 63 72 126 98 0 93 +15 124 47 0 80 129 0 17 80 0 1
24 84 82 75 74 81 0 104 -17 126 0 130 131 93 54 82 98 0 132 -17 93 0 130 126 95
 72 62 94 0 0 -15 130 53 0 95 133 0 17 95 0 130 93 131 42 49 97 0 0 +16 94 12 12
0 ?62 105 81 134 0 0 3 81 2 120 13 22 94 0 0 110 119 135 136 30 134 59 0 94 137
 115 0 +-.01 0 .005 0 0 -1 30 137 58 0 102 0 134 0 +-.0101 0 .005 0 0 -1 30 115
 60 0 97 134 113 0 +-.0101 0 0 1 0 0 16 97 21 138 ?95 102 61 115 0 0 3 81 2 138
 22 22 97 0 0 96 139 140 141 16 102 23 139 ?131 38 97 137 0 0 3 81 2 139 24 22 1
02 0 0 138 70 142 143 17 131 0 130 95 126 68 132 102 0 0 +17 132 0 144 125 50 54
 131 102 0 0 -15 144 41 0 51 28 0 17 125 0 144 51 132 64 63 117 0 37 -17 50 0 14
4 132 51 68 41 32 0 49 +17 51 0 144 50 125 21 37 20 0 99 -17 49 0 47 41 53 68 95
 97 0 131 -17 37 0 101 104 99 64 51 20 0 0 +14 28 39 57 ?92 0 144 15 31 -0 0 92
 0 35 81 2 57 40 22 28 0 0 52 145 146 147 14 92 42 145 ?129 28 78 15 148 +0 0 12
9 28 35 51 31 73 0 28 148 16 0 -0 0 .005 0 0 -1 .0101 -1 0 0 13 35 5 0 0 0 0 0 0
 19 28 51 148 72 0 92 149 31 0 -0 0 .005 0 0 -1 .01 -1 0 0 50 149 71 0 100 150 1
48 0 +0 0 0 0 0 1 1 0 0 14 100 48 151 ?133 129 47 15 149 -0 0 133 129 35 50 150
 70 0 129 152 149 0 +0 0 .005 0 0 1 1 0 0 14 129 45 153 ?100 92 124 15 150 +0 0
 100 92 35 50 152 57 0 133 0 150 0 +-.0101 0 .005 0 1 0 0 0 1 14 133 51 154 ?30
 100 130 15 152 -0 0 30 100 35 81 2 154 52 22 133 0 0 151 24 155 156 14 30 54 24
 ?0 133 101 15 16 +0 0 0 133 35 81 2 24 55 22 30 0 0 154 13 157 158 80 2 22 159
 160 9000 0 0 0 0 3 6 0 0 0 FFTFTFTTTFFFTF3 1 84 4 157 F14282 1 158 146 79 18 16
0 AnsysParaAttrDef.381 2 151 49 22 100 0 0 153 154 161 162 84 12 155 F104.F64.E8
582 1 156 111 81 2 153 46 22 129 0 0 145 151 163 164 84 10 161 F104.Cap1b82 1 16
2 147 81 2 145 43 22 92 0 0 57 153 165 166 84 10 163 F104.Cap1t82 1 164 148 84 1
2 165 F104.F64.E6582 1 166 149 84 12 146 F104.F64.E7582 1 147 150 81 2 70 28 22
 68 0 0 139 73 167 168 84 26 142 F104.F64.E85..F104.F64.E7582 1 143 124 84 9 167
 F104.Vtx182 1 168 132 81 2 96 20 22 61 0 0 121 138 169 170 84 24 140 F104.Cap1b
..F104.F64.E8582 1 141 120 84 24 169 F104.Cap1b..F104.F64.E6582 1 170 156 81 2 1
10 11 22 81 0 0 112 120 171 172 84 26 135 F104.F64.E65..F104.F64.E8582 1 136 123
 81 2 112 8 22 32 0 0 0 110 173 174 84 24 171 F104.Cap1t..F104.F64.E6582 1 172 1
62 84 24 173 F104.Cap1b..F104.F64.E7582 1 174 155 17 84 0 124 63 80 64 104 105 0
 125 +84 24 127 F104.Cap1t..F104.F64.E8582 1 128 116 84 24 122 F104.Cap1t..F104.
F64.E7582 1 123 161 81 2 116 87 22 105 0 0 36 83 175 176 81 2 36 86 22 20 0 0 10
6 116 177 178 81 2 83 88 22 64 0 0 116 43 179 180 84 16 175 F142..F104.Cap1t82 1
 176 160 84 9 179 F142.Vtx182 1 180 168 84 18 177 F142..F104.F64.E7582 1 178 159
 81 2 25 84 22 38 0 0 13 106 181 182 84 18 108 F142..F104.F64.E6582 1 109 158 84
 16 181 F142..F104.Cap1b82 1 182 157 84 9 90 F142.Vtx882 1 91 170 84 9 85 F142.V
tx282 1 86 169 81 2 56 35 22 54 0 0 73 52 183 184 84 9 76 F104.Vtx582 1 77 127 8
4 9 183 F104.Vtx682 1 184 128 84 9 58 F104.Vtx282 1 59 131 84 9 45 F142.Vtx382 1
 46 167 19 29 1 0 3 0 19 15 S74 20 27 2 0 0 23 44 0 0 0 0 0 0 0 0 0 0 0 0 0 0 0
 0 0 0 81 1 23 2 185 3 0 13 0 0 186 80 1 185 187 188 9000 0 0 0 0 3 6 0 0 0 FFTF
FFFFTFFFFF1 82 1 186 1 79 13 188 BodyAttrDef.484 9 26 F142.P0.B81 1 4 114 185 2
 189 0 0 0 190 70 5 0 4 T2 0 0 2 20 1 191 191 13 6 222 0 2 0 192 0 0 193 0 51 7
 96 0 194 195 0 0 -0 0 .005 0 0 -1 .0101 -1 0 0 30 8 133 0 196 197 0 0 +0 0 0 0
 1 0 29 9 230 0 198 199 0 0 .0101 .005 19 10 224 0 2 193 0 200 V16 11 148 201 ?2
02 0 203 204 0 0 2 18 12 176 205 206 0 207 199 ?2 81 2 205 240 22 12 0 0 208 0 2
09 210 17 206 0 211 202 212 12 213 196 0 214 -18 207 175 215 202 12 198 216 ?2 2
9 199 229 0 12 216 9 0 .01 0 29 216 227 0 207 217 199 0 .01 .005 29 217 210 0 21
8 219 216 0 .0101 0 18 218 209 208 212 198 220 217 ?2 29 219 73 0 221 222 217 .0
101 0 0 18 221 60 223 224 225 226 219 ?2 29 222 74 0 226 227 219 .01 0 0 18 226
 62 228 229 221 0 222 ?2 29 227 17 0 220 230 222 .0101 0 .005 18 220 15 231 232
 218 225 227 ?2 29 230 12 0 225 0 227 .01 0 .005 18 225 10 233 234 220 221 230 ?
2 81 2 233 122 22 225 0 0 231 235 236 237 17 234 0 238 239 240 225 229 241 0 242
 -15 238 149 0 214 243 0 17 239 0 238 214 234 207 244 245 0 246 +17 240 0 238 23
4 214 226 247 248 0 0 -17 229 0 249 224 242 226 234 241 0 250 +16 241 78 251 ?22
9 196 252 197 0 0 2 17 242 0 249 229 253 225 232 254 0 244 -15 249 81 0 224 192
 0 17 253 0 249 242 224 220 255 252 0 256 -17 232 0 257 258 244 220 242 254 0 25
3 +16 254 16 259 ?232 252 245 260 0 0 2 17 244 0 257 232 246 225 239 245 0 0 -15
 257 145 0 246 261 0 17 246 0 257 244 258 207 262 203 0 0 -16 245 11 263 ?239 25
4 264 265 0 0 2 81 2 263 24 22 245 0 0 0 259 266 267 16 264 20 268 ?258 245 269
 270 0 0 2 31 265 14 0 245 271 260 0 +0 0 .005 0 0 1 1 0 0 .01 30 271 189 0 203
 272 265 0 +0 0 .005 0 1 0 30 260 19 0 254 265 270 0 +.01 0 .005 1 0 0 31 270 22
 0 264 260 273 0 +0 0 .005 0 0 1 1 0 0 .0101 31 273 71 0 248 270 274 0 +0 0 0 0
 0 1 1 0 0 .01 16 248 51 275 ?247 269 276 273 0 0 2 30 274 70 0 269 273 277 0 +.
01 0 0 1 0 0 16 269 48 278 ?224 264 248 274 0 0 2 31 277 69 0 276 274 279 0 +0 0
 0 0 0 1 1 0 0 .0101 16 276 57 280 ?281 248 0 277 0 0 2 30 279 89 0 252 277 197
 0 +.0101 0 .005 0 0 -1 16 252 77 282 ?255 241 254 279 0 0 2 30 197 90 0 241 279
 8 0 +.01 0 .005 0 0 -1 81 2 282 112 22 252 0 0 251 189 283 284 17 255 0 285 281
 256 221 253 252 0 286 +15 285 87 0 281 194 0 17 281 0 285 287 255 218 286 276 0
 213 +17 256 0 285 255 287 220 258 264 0 0 -17 286 0 288 250 213 221 281 276 0 0
 -15 288 47 0 247 289 0 17 250 0 288 247 286 226 224 269 0 240 -17 213 0 288 286
 247 218 206 196 0 0 +17 247 0 288 213 250 12 240 248 0 0 +16 196 131 290 ?213 2
91 241 8 0 0 2 81 2 290 233 22 196 0 0 235 292 293 294 16 291 152 295 ?287 203 1
96 272 0 0 2 81 2 295 236 22 291 0 0 201 296 297 298 17 287 0 285 256 281 198 21
2 291 0 0 +16 203 144 292 ?262 11 291 271 0 0 2 30 272 190 0 291 204 271 0 -0 .0
101 .005 0 0 -1 30 204 191 0 11 0 272 0 -0 .01 .005 0 0 -1 81 2 292 234 22 203 0
 0 290 201 299 300 17 262 0 211 212 202 198 246 203 0 258 +15 211 185 0 262 301
 0 17 212 0 211 206 262 218 287 291 0 281 -17 202 0 211 262 206 207 214 11 0 239
 +18 198 172 296 262 207 218 9 ?2 17 258 0 257 246 232 198 256 264 0 287 +81 2 2
96 237 22 198 0 0 295 215 302 303 81 2 215 238 22 207 0 0 296 208 304 305 84 9 3
02 F142.Vtx482 1 303 165 81 2 208 239 22 218 0 0 215 205 306 307 84 9 304 F142.V
tx582 1 305 164 84 9 306 F142.Vtx682 1 307 163 17 214 0 238 240 239 12 202 11 0
 247 -14 301 183 235 ?0 194 211 6 308 -0 0 0 194 200 81 2 235 226 22 301 0 0 233
 290 309 310 14 194 88 311 ?301 243 285 6 7 -0 0 301 243 200 50 308 188 0 301 0
 312 0 +0 0 0 1 0 0 0 1 0 13 200 223 0 0 0 0 0 0 10 192 14 192 82 313 ?261 0 249
 6 314 -0 0 261 0 200 81 2 313 105 22 192 0 0 315 316 317 318 14 261 28 315 ?289
 192 257 6 312 +0 0 289 192 200 50 314 93 0 192 319 195 0 +.01 0 .005 0 1 0 0 0
 1 50 319 68 0 289 312 314 0 +0 0 0 0 0 1 1 0 0 51 195 94 0 243 314 7 0 -0 0 .00
5 0 0 -1 .01 -1 0 0 14 243 84 316 ?194 289 238 6 195 +0 0 194 289 200 81 2 316 1
06 22 243 0 0 313 311 320 321 14 289 45 322 ?243 261 288 6 319 -0 0 243 261 200
 81 2 322 103 22 289 0 0 280 315 323 324 81 2 280 59 22 276 0 0 275 322 325 326
 81 2 315 104 22 261 0 0 322 313 327 328 84 10 323 F104.Cap1b82 1 324 108 84 10
 327 F104.Cap1t82 1 328 107 81 2 275 53 22 248 0 0 278 280 329 330 84 24 325 F10
4.Cap1b..F104.F64.E7582 1 326 118 81 2 278 50 22 269 0 0 268 275 331 332 84 24 3
29 F104.Cap1b..F104.F64.E6582 1 330 119 81 2 268 26 22 264 0 0 259 278 333 334 8
4 24 331 F104.Cap1b..F104.F64.E9482 1 332 117 81 2 259 25 22 254 0 0 263 268 335
 336 84 24 333 F104.Cap1t..F104.F64.E7582 1 334 114 84 24 335 F104.Cap1t..F104.F
64.E9482 1 336 113 81 2 311 108 22 194 0 0 316 251 337 338 84 12 320 F104.F64.E6
582 1 321 110 81 2 251 111 22 241 0 0 311 282 339 340 84 12 337 F104.F64.E7582 1
 338 112 84 26 339 F104.F64.E94..F104.F64.E6582 1 340 122 50 312 29 0 261 308 31
9 0 +0 0 .005 0 0 1 1 0 0 84 12 317 F104.F64.E9482 1 318 109 84 4 309 F14282 1 3
10 145 81 2 201 235 22 11 0 0 292 295 341 342 84 16 299 F104.Cap1t..F14282 1 300
 152 84 18 341 F104.F64.E65..F14282 1 342 153 84 18 297 F104.F64.E75..F14282 1 2
98 154 84 16 293 F104.Cap1b..F14282 1 294 151 17 224 0 249 253 229 221 250 269 0
 255 +81 2 189 113 22 2 0 4 282 228 343 0 84 26 283 F104.F64.E94..F104.F64.E7582
 1 284 121 81 2 228 117 22 226 0 0 189 223 344 345 84 6 343 F104.B81 2 223 118 2
2 221 0 0 228 231 346 347 84 9 344 F104.Vtx382 1 345 130 81 2 231 121 22 220 0 0
 223 233 348 349 84 9 346 F104.Vtx482 1 347 129 84 9 348 F104.Vtx782 1 349 125 8
4 24 266 F104.Cap1t..F104.F64.E6582 1 267 115 84 9 236 F104.Vtx882 1 237 126 84
 9 209 F142.Vtx782 1 210 166 19 193 98 0 2 0 10 6 S74 20 191 2 0 0 205 4 0 0 0 0
 0 0 0 0 0 0 0 0 0 0 0 0 0 0 82 1 190 0 1 0 
