**ABCDEFGHIJKLMNOPQRSTUVWXYZabcdefghijklmnopqrstuvwxyz**************************
**PARASOLID !"#$%&'()*+,-./:;<=>?@[\]^_`{|}~0123456789**************************
**PART1;
MC=SDLINT105;
MC_MODEL=unknown;
MC_ID=unknown;
OS=Windows NT;
OS_RELEASE=5.0;
FRU=Unigraphics Solutions;
APPL=SolidEdge;
SITE=Huntsville, AL;
USER=chopra
FORMAT=text;
GUISE=transmit;
KEY=C:\Program Files\Parasolid\Example Application\Example Parts\blend2;
FILE=C:\Program Files\Parasolid\Example Application\Example Parts\blend2.x_t;
DATE=Fri, May 31 02;
**PART2;
SCH=SCH_1400104_14000;
USFLD_SIZE=0;
**PART3;
**END_OF_HEADER*****************************************************************
T51 : TRANSMIT FILE created by modeller version 140010423 SCH_1400104_14000_1300
6185 0 12 255 1 160 2 3 0 0 0 0 1e3 1e-8 0 0 0 1 0 1 1 4 5 6 7 8 9 10 81 255 3 2
 157 11 1 12 0 0 0 13 14 15 70 11 CI9 list_type0 0 1 uI10 notransmit0 0 1 lCCCDC
CDI12 finger_index0 0 1 dI12 finger_block1012 0 CZ3 0 4 T1 0 0 8 20 1 16 16 13 2
55 4 3 0 1 0 17 0 0 18 0 50 255 5 83 0 19 20 0 0 +-.05 0 .05 612303176911189e-31
 1 0 -1 612303176911189e-31 0 30 255 6 79 0 9 21 0 0 +-.05 0 .05 0 0 -1 29 255 7
 20 0 10 22 0 -.05 .075 .05 19 255 8 33 0 1 18 0 23 V16 255 9 73 0 ?24 0 25 6 0
 0 1 18 255 10 17 0 26 0 27 7 ?1 17 255 26 0 28 29 30 10 31 32 0 33 -18 27 11 0
 34 10 35 22 ?1 17 34 0 36 37 38 27 39 40 0 29 -18 35 5 0 41 27 42 43 ?1 29 22 1
4 0 27 43 7 .05 .075 .05 29 43 8 0 35 44 22 .05 -612303176911189e-32 .05 29 44 4
 0 42 45 43 -.05 0 .05 18 42 2 0 46 35 47 44 ?1 29 45 62 0 47 48 44 -.05 .075 0
 18 47 48 0 31 42 49 45 ?1 29 48 63 0 49 50 45 .05 .075 0 18 49 49 0 39 47 51 48
 ?1 29 50 64 0 51 52 48 .05 -612303176911189e-32 0 18 51 50 0 53 49 54 50 ?1 29
 52 65 0 54 0 50 -.05 0 0 18 54 47 0 24 51 0 52 ?1 17 24 0 55 56 57 54 46 9 0 58
 +15 255 55 71 0 41 19 0 17 56 0 55 41 24 51 59 60 0 0 +17 57 0 55 24 41 42 61 6
2 0 0 -17 46 0 63 33 58 42 24 9 0 64 -17 58 0 63 46 31 54 65 66 0 59 +15 63 74 0
 46 17 0 17 31 0 63 58 33 47 26 32 0 65 +17 65 0 67 68 59 47 58 66 0 30 -16 66 3
8 69 ?58 60 70 71 0 0 1 17 59 0 67 65 72 54 56 60 0 0 -15 67 54 0 65 73 0 17 72
 0 67 59 68 51 38 74 0 56 -16 60 41 75 ?56 74 66 76 0 0 1 81 1 75 42 77 60 78 0
 69 79 80 16 74 44 79 ?38 81 60 82 0 0 1 30 76 61 0 60 83 82 0 +-.05 0 0 1 -6123
03176911189e-31 0 31 255 83 155 0 70 84 76 0 +487620910533078e-32 .0256371681415
9295 .084925 0 0 -1 1 -612303176911189e-31 0 .01125174714289824 30 82 60 0 74 76
 85 0 +.05 -612303176911189e-32 0 1850371707708595e-31 1 0 30 85 59 0 81 82 71 0
 +.05 .075 0 -1 0 0 16 81 35 86 ?30 87 74 85 0 0 1 30 71 58 0 66 85 88 0 +-.05 .
075 0 0 -1 0 30 88 7 0 62 71 89 0 +-.05 0 .05 1 -612303176911189e-31 0 16 62 6 0
 ?61 90 87 88 0 0 1 30 89 13 0 90 88 91 0 +.05 -612303176911189e-32 .05 18503717
07708595e-31 1 0 16 90 12 0 ?92 93 62 89 0 0 1 30 91 19 0 93 89 94 0 +.05 .075 .
05 -1 0 0 16 93 18 0 ?95 32 90 91 0 0 1 30 94 24 0 87 91 96 0 +-.05 .075 .05 0 -
1 0 16 87 23 0 ?64 62 81 94 0 0 1 30 96 76 0 32 94 97 0 +-.05 .075 .05 0 0 -1 16
 32 66 0 ?31 40 93 96 0 0 1 30 97 77 0 40 96 21 0 +.05 .075 .05 0 0 -1 16 40 67
 0 ?39 25 32 97 0 0 1 30 21 78 0 25 97 6 0 +.05 -612303176911189e-32 .05 0 0 -1
 16 25 70 0 ?53 9 40 21 0 0 1 17 53 0 36 38 37 51 41 25 0 72 +15 36 68 0 34 98 0
 17 38 0 36 34 53 49 72 74 0 0 +17 37 0 36 53 34 35 92 90 0 61 -17 41 0 55 57 56
 35 53 25 0 37 -17 92 0 99 95 61 27 37 90 0 0 +17 61 0 99 92 64 35 57 62 0 0 +15
 99 25 0 64 100 0 17 64 0 99 61 95 42 33 87 0 57 +17 95 0 99 64 92 10 29 93 0 0
 +17 33 0 63 31 46 10 64 87 0 95 -17 29 0 28 39 26 27 95 93 0 92 -15 28 30 0 29
 101 0 17 39 0 28 30 29 49 34 40 0 68 +17 30 0 28 26 39 47 68 81 0 0 +17 68 0 67
 72 65 49 30 81 0 38 -14 255 101 31 102 ?100 98 28 4 103 -0 0 73 100 23 81 1 102
 117 104 101 105 0 106 107 0 14 100 26 108 ?73 101 109 4 110 -0 0 101 98 23 14 9
8 69 106 ?101 19 36 4 20 -0 0 100 19 23 50 103 81 0 101 111 20 0 +.05 .075 .05 0
 -1 0 0 0 -1 14 73 53 107 ?112 100 67 4 113 +0 0 112 101 23 13 23 32 0 0 0 0 0 0
 8 17 14 17 75 114 ?19 0 63 4 111 -0 0 19 0 23 81 1 114 114 104 17 115 0 0 116 0
 14 19 72 116 ?98 17 55 4 5 -0 0 98 17 23 50 111 80 0 17 110 103 0 +-.05 .075 .0
5 1 0 0 0 0 -1 50 110 29 0 100 113 111 0 +-.05 .075 .05 0 0 -1 -1 0 0 50 113 57
 0 73 117 110 0 +-.05 .075 0 0 0 -1 -1 0 0 51 255 117 152 0 112 118 113 0 +48762
0910533078e-32 .02563716814159295 .084925 0 0 -1 .01125174714289824 -1 0 0 14 11
2 133 119 ?120 73 121 4 117 +0 0 120 73 23 50 118 153 0 120 0 117 0 +48762091053
3078e-32 .02563716814159295 .084925 0 0 -1 -1 0 0 14 120 140 122 ?0 112 123 4 11
8 -0 0 0 112 23 81 1 122 160 104 120 124 0 119 0 0 15 123 144 0 125 120 0 17 125
 0 123 125 125 0 126 70 0 0 -17 126 0 121 126 126 0 125 70 0 0 +16 70 129 0 ?126
 66 127 83 0 0 1 16 127 130 128 ?129 70 0 84 0 0 1 81 1 128 131 130 127 131 0 0
 0 132 17 129 0 109 129 129 0 133 127 0 0 +31 84 156 0 127 0 83 0 +4876209105330
78e-32 .02563716814159295 .05 0 0 -1 1 -612303176911189e-31 0 .01125174714289824
 15 109 122 0 129 100 99 17 133 0 134 133 133 0 129 127 0 0 -15 134 139 0 133 11
2 0 80 255 1 130 135 136 9000 0 0 0 0 3 6 0 0 0 FFFFTFTTFFFFFF1 81 1 131 132 137
 127 0 128 138 0 139 82 255 1 132 387 80 1 137 140 141 9000 0 0 0 0 3 6 0 0 0 FF
FFTFTTFFFFFF1 81 1 138 46 137 74 0 79 78 131 142 82 1 139 17 81 1 79 45 77 74 13
8 0 75 0 143 81 1 78 43 137 60 0 75 144 138 145 82 1 142 17 81 1 144 40 137 66 0
 69 146 78 147 82 1 145 17 81 1 69 39 77 66 144 0 86 75 148 81 1 146 37 137 81 0
 86 0 144 149 82 1 147 17 81 1 86 36 77 81 146 0 0 69 150 82 1 149 17 80 1 77 13
0 151 9000 0 0 0 0 3 6 0 0 0 FFFFTFTFFFFFFF1 82 1 150 99 79 255 23 151 SolidEdge
/MNKR_ATTR_SID82 1 148 100 82 1 143 98 79 27 141 SolidEdge/MNKR_ATTR_TYPE_EX79 2
6 136 SolidEdge/MNKR_ATTR_SID_EX15 121 138 0 126 112 134 80 1 104 137 152 9000 1
 1 1 1 1 1 1 1 0 FFFFTFTTFFFFFF1 81 1 124 141 153 120 154 122 155 0 156 81 1 119
 159 104 112 155 0 108 122 0 81 1 155 134 153 112 157 119 158 124 159 81 1 108 1
58 104 100 160 0 107 119 0 81 1 160 86 153 100 161 108 0 162 163 81 1 107 119 10
4 73 162 0 102 108 0 81 1 162 89 153 73 164 107 160 115 165 80 1 153 166 167 900
0 0 0 0 0 3 6 0 0 0 FFFFTFFFFFFFFF1 81 3 164 87 168 73 0 162 161 169 170 171 0 8
1 1 115 93 153 17 169 114 162 105 172 82 1 165 320 81 3 169 90 168 17 0 115 164
 173 174 175 0 81 1 105 97 153 101 173 102 115 176 177 82 1 172 320 81 3 173 94
 168 101 0 105 169 178 179 180 0 81 1 176 101 153 98 178 106 105 158 181 82 1 17
7 320 81 3 178 98 168 98 0 176 173 182 183 184 0 81 1 106 116 104 98 176 0 116 1
02 0 81 1 158 105 153 19 182 116 176 155 185 82 1 181 320 81 3 182 102 168 19 0
 158 178 157 186 187 0 81 1 116 115 104 19 158 0 114 106 0 82 1 185 320 80 3 168
 188 189 9000 0 0 0 0 3 6 0 0 0 FFFFTFTTFFFFFF1 1 3 81 3 157 137 168 112 0 155 1
82 154 190 191 0 82 1 186 0 82 1 187 5 81 3 154 143 168 120 0 124 157 0 192 193
 0 82 1 190 0 82 1 191 8 82 1 192 0 82 1 193 6 79 27 189 MONIKER/MONIKER_DATA_AT
TRIB82 1 183 0 82 1 184 4 82 1 179 0 82 1 180 3 82 1 174 0 82 1 175 2 81 3 161 8
4 168 100 0 160 0 164 194 195 0 82 1 170 0 82 1 171 1 82 1 194 0 82 1 195 0 79 2
3 167 SolidEdge/MNKR_ATTR_CID82 1 163 320 82 1 159 468 82 1 156 468 79 17 152 So
lidEdge/Display50 20 82 0 98 103 5 0 +.05 -612303176911189e-32 .05 -1 1850371707
708595e-31 0 -1850371707708595e-31 -1 0 82 1 80 97 19 18 1 0 1 0 8 4 S74 255 20
 16 8 0 131 79 154 124 122 12 128 2 0 0 0 0 0 0 0 0 0 0 0 0 81 2 12 120 196 1 0
 2 0 0 197 198 80 2 196 11 199 9000 2 2 2 2 3 6 0 0 0 FFTFFFFFFFFFFF2 3 83 255 1
 197 320 84 255 6 198 SE 5.079 22 199 MONIKER/BODY_ID_ATTRIB80 3 11 168 200 9000
 0 0 0 0 3 6 0 0 0 FFTFFFFFFFFFFF3 3 1 84 38 13 {53a85994-bac5-11d2-a151-0060b0c
3f267}84 2 14 SE82 1 15 0 79 25 200 MONIKER/GUID_TABLE_ATTRIB1 0 
