**ABCDEFGHIJKLMNOPQRSTUVWXYZabcdefghijklmnopqrstuvwxyz**************************
**PARASOLID !"#$%&'()*+,-./:;<=>?@[\]^_`{|}~0123456789**************************
**PART1;
MC=SDLINT105;
MC_MODEL=unknown;
MC_ID=unknown;
OS=Windows NT;
OS_RELEASE=5.0;
FRU=Unigraphics Solutions;
APPL=SolidEdge;
SITE=Huntsville, AL;
USER=chopra
FORMAT=text;
GUISE=transmit;
KEY=C:\Program Files\Parasolid\Example Application\Example Parts\blend3;
FILE=C:\Program Files\Parasolid\Example Application\Example Parts\blend3.x_t;
DATE=Fri, May 31 02;
**PART2;
SCH=SCH_1400104_14000;
USFLD_SIZE=0;
**PART3;
**END_OF_HEADER*****************************************************************
T51 : TRANSMIT FILE created by modeller version 140010423 SCH_1400104_14000_1300
6185 0 12 255 1 324 2 3 0 0 0 0 1e3 1e-8 0 0 0 1 0 1 1 4 5 6 7 8 9 10 81 255 3 2
 319 11 1 12 0 0 0 13 14 15 70 11 CI9 list_type0 0 1 uI10 notransmit0 0 1 lCCCDC
CDI12 finger_index0 0 1 dI12 finger_block1012 0 CZ3 0 4 T1 0 0 7 20 1 16 16 13 2
55 4 3 0 1 0 17 0 0 18 0 50 255 5 117 0 19 20 0 0 +-.0338498630136977 .029115616
43835535 .15 1 0 0 0 0 -1 30 255 6 166 0 9 21 0 0 +-.0338498630136977 .044568427
68820305 .15 1 -1211306375749066e-31 0 29 255 7 160 0 10 22 0 .0717238356164364
 .04456842768820305 .15 19 255 8 45 0 1 18 0 23 V16 255 9 164 0 ?24 0 25 6 0 0 1
 18 255 10 158 0 24 0 26 7 ?1 17 255 24 0 27 28 29 10 30 9 0 31 +18 26 29 0 32 1
0 33 22 ?1 17 32 0 34 35 30 26 36 37 0 38 +18 33 11 0 39 26 40 41 ?1 29 22 32 0
 26 41 7 .03605657705894635 .02911561643835535 .15 29 41 14 0 33 42 22 .07172383
56164364 0 .15 29 42 8 0 40 43 41 -.0338498630136977 0 .15 18 40 5 0 44 33 45 42
 ?1 29 43 4 0 45 46 42 -.0338498630136977 .02911561643835535 .15 18 45 2 0 47 40
 48 43 ?1 29 46 84 0 48 49 43 .03605657705894635 .02911561643835535 0 18 48 66 0
 50 45 51 46 ?1 29 49 85 0 51 52 46 .03605657705894635 .0863999999999976 0 18 51
 67 0 53 48 54 49 ?1 29 52 86 0 54 55 49 .0717238356164364 .0863999999999976 0 1
8 54 68 0 56 51 57 52 ?1 29 55 87 0 57 58 52 .0717238356164364 0 0 18 57 69 0 59
 54 60 55 ?1 29 58 88 0 60 61 55 -.0338498630136977 0 0 18 60 70 0 62 57 63 58 ?
1 29 61 89 0 63 64 58 -.0338498630136977 .02911561643835535 0 18 63 65 0 65 60 6
6 61 ?1 29 64 309 0 66 67 61 .0717238356164364 .0863999999999976 .06869203539823
01 18 66 238 0 28 63 68 64 ?1 29 67 315 0 68 69 64 .03605657705894635 .044568427
68820305 .15 18 68 240 0 29 66 70 67 ?1 29 69 316 0 70 0 67 .03605657705894635 .
0863999999999976 .0686920353982301 18 70 239 0 71 68 0 69 ?1 17 71 0 27 29 28 70
 72 73 0 74 +15 255 27 272 0 71 75 0 17 29 0 27 24 71 68 74 76 0 30 +17 28 0 27
 71 24 66 31 77 0 72 -17 72 0 78 56 79 66 71 73 0 80 -16 73 212 0 ?71 77 76 81 0
 0 1 17 74 0 82 53 36 70 29 76 0 79 -15 82 42 0 36 83 0 17 53 0 82 84 74 51 79 8
5 0 86 +17 36 0 82 74 38 68 32 37 0 0 -16 76 226 87 ?29 73 0 88 0 0 1 17 79 0 78
 72 89 70 53 85 0 0 -15 78 92 0 79 90 0 17 89 0 78 79 56 51 91 92 0 0 +16 85 171
 0 ?53 93 94 95 0 0 1 16 93 180 0 ?56 96 85 97 0 0 1 16 94 90 0 ?50 85 37 98 0 0
 1 30 95 107 0 85 98 97 0 +.03605657705894635 .0863999999999976 .15 0 0 -1 30 98
 106 0 94 99 95 0 +.03605657705894635 .02911561643835535 .15 0 0 -1 30 97 108 0
 93 95 100 0 +.0717238356164364 .0863999999999976 .15 0 0 -1 30 100 109 0 96 97
 101 0 +.0717238356164364 0 .15 0 0 -1 16 96 97 0 ?59 102 93 100 0 0 1 30 101 11
0 0 102 100 21 0 +-.0338498630136977 0 .15 0 0 -1 16 102 100 0 ?62 25 96 101 0 0
 1 30 21 111 0 25 101 6 0 +-.0338498630136977 .02911561643835535 .15 0 0 -1 16 2
5 103 0 ?65 9 102 21 0 0 1 17 65 0 103 104 105 63 47 25 0 106 +15 103 101 0 44 1
9 0 17 104 0 103 44 65 60 107 108 0 0 +17 105 0 103 65 44 45 109 110 0 0 -17 47
 0 111 112 106 45 65 25 0 35 -17 106 0 111 47 50 63 113 114 0 107 +15 111 104 0
 47 17 0 17 50 0 111 106 112 48 38 94 0 113 +17 113 0 115 86 107 48 106 114 0 84
 -16 114 50 116 ?106 108 77 117 0 0 1 17 107 0 115 113 118 63 104 108 0 0 -15 11
5 74 0 113 119 0 17 118 0 115 107 120 60 121 122 0 104 -16 108 53 123 ?104 122 1
14 124 0 0 1 81 1 123 54 125 108 126 0 116 127 128 16 122 56 127 ?121 129 108 13
0 0 0 1 30 124 83 0 108 131 130 0 +-.0338498630136977 .02911561643835535 0 0 -1
 0 30 131 298 0 77 81 124 0 +.0717238356164364 .0352405154664896 .16813064904848
55 0 -.457486801069265 .889216411706065 30 130 82 0 122 124 132 0 +-.03384986301
36977 0 0 1 0 0 30 132 81 0 129 130 133 0 +.0717238356164364 0 0 0 1 0 16 129 59
 134 ?135 92 122 132 0 0 1 30 133 80 0 92 132 136 0 +.0717238356164364 .08639999
99999976 0 -1 0 0 16 92 62 137 ?89 138 129 133 0 0 1 30 136 79 0 138 133 117 0 +
.03605657705894635 .0863999999999976 0 -1211306375749066e-31 -1 0 16 138 47 139
 ?84 140 92 136 0 0 1 30 117 78 0 114 136 141 0 +.03605657705894635 .02911561643
835535 0 -1 -198519446754737e-30 0 30 141 7 0 110 117 142 0 +-.0338498630136977
 .02911561643835535 .15 0 -1 0 16 110 6 0 ?109 143 140 141 0 0 1 30 142 13 0 143
 141 144 0 +-.0338498630136977 0 .15 1 0 0 16 143 12 0 ?145 146 110 142 0 0 1 30
 144 19 0 146 142 147 0 +.0717238356164364 0 .15 0 1 0 16 146 18 0 ?148 37 143 1
44 0 0 1 30 147 31 0 37 144 99 0 +.03605657705894635 .0863999999999976 .15 -1211
306375749066e-31 -1 0 16 37 162 0 ?32 94 146 147 0 0 1 30 99 36 0 140 147 98 0 +
.03605657705894635 .02911561643835535 .15 -1 -198519446754737e-30 0 16 140 35 0
 ?35 110 138 99 0 0 1 17 35 0 34 109 32 45 112 140 0 105 +15 34 165 0 30 149 0 1
7 109 0 34 145 35 40 105 110 0 0 +17 112 0 111 50 47 26 35 140 0 0 -17 145 0 34
 148 109 33 150 143 0 0 +17 148 0 34 30 145 10 151 146 0 0 +17 150 0 152 62 39 4
0 145 143 0 109 -15 152 98 0 39 153 0 17 62 0 152 121 150 60 44 102 0 118 +17 39
 0 152 150 121 33 59 96 0 151 -17 121 0 152 39 62 57 118 122 0 0 +17 59 0 154 13
5 151 57 39 96 0 120 +17 151 0 154 59 31 33 148 146 0 145 -15 154 95 0 80 155 0
 17 31 0 154 151 80 10 28 77 0 148 +17 80 0 154 31 135 66 56 93 0 0 -16 77 214 0
 ?31 114 73 131 0 0 1 17 135 0 154 80 59 54 120 129 0 0 +17 56 0 78 89 72 54 80
 93 0 91 +17 91 0 115 120 86 54 89 92 0 135 -17 120 0 115 118 91 57 135 129 0 12
1 -17 86 0 115 91 113 51 84 138 0 89 -17 84 0 82 38 53 48 86 138 0 0 +17 38 0 82
 36 84 26 50 94 0 112 -14 255 155 96 156 ?90 153 154 4 157 -0 0 90 153 23 81 1 1
56 320 158 155 159 0 160 161 0 14 90 93 161 ?83 155 78 4 162 -0 0 149 155 23 14
 153 99 163 ?155 19 152 4 20 -0 0 155 19 23 50 157 115 0 155 162 20 0 +.07172383
56164364 0 .15 -1 0 0 0 0 1 13 23 44 0 0 0 0 0 0 8 17 14 17 105 164 ?19 0 111 4
 165 -0 0 19 0 23 81 1 164 149 158 17 166 0 0 167 0 14 19 102 167 ?153 17 103 4
 5 -0 0 153 17 23 50 165 112 0 17 168 169 0 +.03605657705894635 .029115616438355
35 .15 198519446754737e-30 -1 0 1 198519446754737e-30 0 50 168 41 0 149 170 165
 0 +-.0338498630136977 .02911561643835535 .15 0 0 1 1 0 0 50 169 113 0 83 165 16
2 0 +.03605657705894635 .0863999999999976 .15 1 -1211306375749066e-31 0 12113063
75749066e-31 1 0 14 83 43 171 ?149 90 82 4 169 -0 0 119 149 23 50 162 114 0 90 1
69 157 0 +.0717238356164364 .0863999999999976 .15 0 -1 0 0 0 -1 81 1 171 322 158
 83 172 0 161 173 0 14 149 38 173 ?119 83 34 4 168 +0 0 83 90 23 14 119 73 160 ?
75 149 115 4 170 -0 0 75 83 23 81 1 160 156 158 119 174 0 163 156 0 14 75 267 17
5 ?0 119 27 4 176 -0 0 0 119 23 50 170 77 0 119 176 168 0 +-.0338498630136977 .0
2911561643835535 0 0 0 1 1 0 0 50 176 291 0 75 0 170 0 +.238814476639816 .086399
9999999976 .0686920353982301 -1077113508920264e-31 -.889216411706065 -.457486801
069265 0 .457486801069265 -.889216411706065 81 1 175 324 158 75 177 0 173 0 0 80
 255 1 158 178 179 9000 1 1 1 1 1 1 1 1 0 FFFFTFTTFFFFFF1 81 1 177 268 180 75 18
1 175 182 0 183 81 1 173 323 158 149 184 0 171 175 0 81 1 184 120 180 149 185 17
3 0 174 186 80 1 180 187 188 9000 0 0 0 0 3 6 0 0 0 FFFFTFFFFFFFFF1 81 3 185 118
 189 149 0 184 0 190 191 192 0 81 1 174 123 180 119 190 160 184 166 193 82 255 1
 186 395 81 3 190 121 189 119 0 174 185 194 195 196 0 81 1 166 127 180 17 194 16
4 174 172 197 82 1 193 395 81 3 194 124 189 17 0 166 190 198 199 200 0 81 1 172
 131 180 83 198 171 166 201 202 82 1 197 395 81 3 198 128 189 83 0 172 194 203 2
04 205 0 81 1 201 135 180 90 203 161 172 159 206 82 1 202 395 81 3 203 132 189 9
0 0 201 198 207 208 209 0 81 1 161 321 158 90 201 0 156 171 0 81 1 159 139 180 1
55 207 156 201 210 211 82 1 206 395 81 3 207 136 189 155 0 159 203 212 213 214 0
 81 1 210 143 180 153 212 163 159 182 215 82 1 211 395 81 3 212 140 189 153 0 21
0 207 216 217 218 0 81 1 163 151 158 153 210 0 167 160 0 81 1 182 147 180 19 216
 167 210 177 219 82 1 215 395 81 3 216 144 189 19 0 182 212 181 220 221 0 81 1 1
67 150 158 19 182 0 164 163 0 82 1 219 395 80 3 189 222 223 9000 0 0 0 0 3 6 0 0
 0 FFFFTFTTFFFFFF1 1 3 81 3 181 271 189 75 0 177 216 0 224 225 0 82 1 220 0 82 1
 221 7 82 1 224 0 82 1 225 12 79 255 27 223 MONIKER/MONIKER_DATA_ATTRIB82 1 217
 0 82 1 218 6 82 1 213 0 82 1 214 5 82 1 208 0 82 1 209 4 82 1 204 0 82 1 205 3
 82 1 199 0 82 1 200 2 82 1 195 0 82 1 196 1 82 1 191 0 82 1 192 0 79 23 188 Sol
idEdge/MNKR_ATTR_CID82 1 183 597 79 17 179 SolidEdge/Display50 20 116 0 153 157
 5 0 +-.0338498630136977 0 .15 0 1 0 0 0 1 17 44 0 103 105 104 40 62 102 0 150 -
17 30 0 34 32 148 68 24 9 0 36 -81 1 139 48 125 138 226 0 0 116 227 80 1 125 228
 229 9000 0 0 0 0 3 6 0 0 0 FFFFTFTFFFFFFF1 81 1 226 49 178 138 0 139 0 230 231
 81 1 116 51 125 114 230 0 139 123 232 82 1 227 257 81 1 230 52 178 114 0 116 22
6 126 233 82 1 232 301 80 1 178 234 235 9000 0 0 0 0 3 6 0 0 0 FFFFTFTTFFFFFF1 8
1 1 126 55 178 108 0 123 230 236 237 82 1 233 17 81 1 236 58 178 122 0 127 126 2
38 239 82 1 237 17 81 1 127 57 125 122 236 0 123 134 240 81 1 238 61 178 129 0 1
34 236 241 242 82 1 239 17 81 1 134 60 125 129 238 0 127 137 243 81 1 241 64 178
 92 0 137 238 244 245 82 1 242 17 81 1 137 63 125 92 241 0 134 87 246 81 1 244 2
29 178 76 0 87 241 0 247 82 1 245 17 81 1 87 228 125 76 244 0 137 0 248 82 1 247
 17 82 1 248 442 82 1 246 217 82 1 243 168 82 1 240 122 79 27 235 SolidEdge/MNKR
_ATTR_TYPE_EX82 1 231 17 79 23 229 SolidEdge/MNKR_ATTR_SID30 81 299 0 73 88 131
 0 +.238814476639816 .0863999999999976 .0686920353982301 -1 1211306375749066e-31
 0 30 88 307 0 76 0 81 0 +.03605657705894635 .0863999999999976 .0686920353982301
 -554156678956246e-31 -.457486801069265 .889216411706066 82 1 128 66 19 18 1 0 1
 0 8 4 S74 255 20 16 7 0 244 87 181 177 175 12 2 0 0 0 0 0 0 0 0 0 0 0 0 0 81 2
 12 157 249 1 0 2 0 0 250 251 80 2 249 11 252 9000 2 2 2 2 3 6 0 0 0 FFTFFFFFFFF
FFF2 3 83 255 1 250 395 84 255 6 251 SE 5.079 22 252 MONIKER/BODY_ID_ATTRIB80 3
 11 189 253 9000 0 0 0 0 3 6 0 0 0 FFTFFFFFFFFFFF3 3 1 84 38 13 {bfee01ed-bac8-1
1d2-a151-0060b0c3f267}84 2 14 SE82 1 15 0 79 25 253 MONIKER/GUID_TABLE_ATTRIB1 0
 
