**ABCDEFGHIJKLMNOPQRSTUVWXYZabcdefghijklmnopqrstuvwxyz**************************
**PARASOLID !"#$%&'()*+,-./:;<=>?@[\]^_`{|}~0123456789**************************
**PART1;
MC=SDLINT105;
MC_MODEL=unknown;
MC_ID=unknown;
OS=Windows NT;
OS_RELEASE=5.0;
FRU=Unigraphics Solutions;
APPL=SolidEdge;
SITE=Huntsville, AL;
USER=chopra
FORMAT=text;
GUISE=transmit;
KEY=C:\Program Files\Parasolid\Example Application\Example Parts\blend1;
FILE=C:\Program Files\Parasolid\Example Application\Example Parts\blend1.x_t;
DATE=Fri, May 31 02;
**PART2;
SCH=SCH_1400104_14000;
USFLD_SIZE=0;
**PART3;
**END_OF_HEADER*****************************************************************
T51 : TRANSMIT FILE created by modeller version 140010423 SCH_1400104_14000_1300
6185 0 12 255 1 234 2 3 0 0 0 0 1e3 1e-8 0 0 0 1 0 1 1 4 5 6 7 8 9 10 81 255 3 2
 229 11 1 12 0 0 0 13 14 15 70 11 CI9 list_type0 0 1 uI10 notransmit0 0 1 lCCCDC
CDI12 finger_index0 0 1 dI12 finger_block1012 0 CZ3 0 4 T1 0 0 7 20 1 16 16 13 2
55 4 3 0 1 0 17 0 0 18 0 50 255 5 83 0 19 20 0 0 +-.05 0 .05 0 1 0 0 0 1 31 255
 6 199 0 9 21 0 0 --.05 .01 .04 1 -1850371707708595e-31 0 1850371707708595e-31 1
 0 .01 29 255 7 190 0 10 22 0 -.05 0 .04 19 255 8 33 0 1 18 0 23 V16 255 9 197 0
 ?24 0 25 6 0 0 1 18 255 10 188 0 26 0 27 7 ?1 17 255 26 0 28 29 30 10 31 25 0 3
2 +18 27 179 0 33 10 34 22 ?1 17 33 0 35 36 37 27 38 39 0 30 +18 34 170 0 38 27
 40 41 ?1 29 22 181 0 27 41 7 .05 0 .04 29 41 172 0 34 42 22 .05 .01 .05 29 42 1
69 0 40 43 41 -.05 .01 .05 18 40 167 0 24 34 44 42 ?1 29 43 20 0 44 45 42 -.05 .
075 .05 18 44 17 0 46 40 47 43 ?1 29 45 14 0 47 48 43 .05 .075 .05 18 47 11 0 49
 44 50 45 ?1 29 48 62 0 50 51 45 -.05 .075 0 18 50 48 0 52 47 53 48 ?1 29 51 63
 0 53 54 48 .05 .075 0 18 53 49 0 55 50 56 51 ?1 29 54 64 0 56 57 51 .05 0 0 18
 56 50 0 36 53 58 54 ?1 29 57 65 0 58 0 54 -.05 0 0 18 58 47 0 29 56 0 57 ?1 17
 29 0 28 59 26 58 32 60 0 61 +15 255 28 71 0 30 19 0 17 59 0 28 30 29 56 62 63 0
 0 +17 32 0 64 24 61 10 29 60 0 65 -16 60 189 0 ?29 66 67 68 0 0 1 17 61 0 64 32
 52 58 69 70 0 62 +15 64 74 0 32 71 0 17 52 0 64 61 72 50 46 73 0 69 +17 69 0 74
 75 62 50 61 70 0 76 -16 70 38 77 ?61 63 78 79 0 0 1 17 62 0 74 69 80 58 59 63 0
 0 -15 74 54 0 69 81 0 17 80 0 74 62 75 56 82 83 0 59 -16 63 41 84 ?59 83 70 85
 0 0 1 81 1 84 42 86 63 87 0 77 88 89 16 83 44 88 ?82 90 63 91 0 0 1 30 255 85 6
1 0 63 92 91 0 +-.05 0 0 1 0 0 31 92 153 0 78 93 85 0 +487620910533078e-32 .0256
3716814159295 .084925 0 0 -1 1 -612303176911189e-31 0 .01125174714289824 30 91 6
0 0 83 85 94 0 +.05 0 0 -1850371707708595e-31 1 0 30 94 59 0 90 91 79 0 +.05 .07
5 0 -1 0 0 16 90 35 95 ?76 96 83 94 0 0 1 30 79 58 0 70 94 97 0 +-.05 .075 0 -18
50371707708595e-31 -1 0 30 97 13 0 98 79 99 0 +.05 0 .05 -1850371707708595e-31 1
 0 16 98 171 0 ?49 100 96 97 0 0 1 30 99 19 0 100 97 101 0 +.05 .075 .05 -1 0 0
 16 100 18 0 ?102 73 98 99 0 0 1 30 101 24 0 96 99 103 0 +-.05 .075 .05 -1850371
707708595e-31 -1 0 16 96 23 0 ?104 98 90 101 0 0 1 30 103 76 0 73 101 105 0 +-.0
5 .075 .05 0 0 -1 16 73 66 0 ?52 106 100 103 0 0 1 30 105 77 0 106 103 107 0 +.0
5 .075 .05 0 0 -1 16 106 67 0 ?55 67 73 105 0 0 1 30 107 78 0 67 105 68 0 +.05 0
 .05 0 0 -1 16 67 180 0 ?36 60 106 107 0 0 1 30 68 79 0 60 107 108 0 +-.05 0 .05
 0 0 -1 30 108 175 0 66 68 109 0 +.05 .01 .05 1 0 0 16 66 173 0 ?110 39 60 108 0
 0 1 31 109 184 0 39 108 21 0 -.05 .01 .04 -1 -1850371707708595e-31 0 1850371707
708595e-31 -1 0 .01 16 39 182 0 ?33 25 66 109 0 0 1 30 21 193 0 25 109 6 0 --.05
 0 .04 1 0 0 16 25 191 0 ?26 9 39 21 0 0 1 17 110 0 111 49 104 34 112 66 0 37 +1
5 111 25 0 104 17 113 17 49 0 111 102 110 47 37 98 0 114 +17 104 0 111 110 102 4
0 72 96 0 112 +17 112 0 115 65 38 40 110 66 0 0 -17 37 0 35 33 114 34 49 98 0 0
 -15 35 68 0 37 116 0 17 114 0 35 37 82 47 55 106 0 117 -17 82 0 35 114 36 53 80
 83 0 0 +17 55 0 118 76 117 53 114 106 0 75 +17 117 0 118 55 46 47 102 100 0 0 -
15 118 30 0 117 119 0 17 46 0 118 117 76 44 52 73 0 72 -17 102 0 111 104 49 44 1
17 100 0 0 +17 76 0 118 46 55 50 75 90 0 0 +17 72 0 64 52 24 44 104 96 0 102 -17
 24 0 64 72 32 40 65 9 0 104 +17 65 0 115 31 112 10 24 9 0 0 -15 115 210 0 65 12
0 0 17 31 0 115 38 65 27 26 25 0 0 -17 38 0 115 112 31 34 33 39 0 110 -14 255 12
0 209 121 ?0 122 115 4 123 +0 0 0 124 23 81 1 121 234 125 120 126 0 127 0 0 14 1
22 138 128 ?120 124 129 4 130 -0 0 124 81 23 51 255 123 221 0 120 0 130 0 +-.05
 .01 .04 -1 0 0 .01 0 0 1 14 124 131 131 ?122 81 132 4 133 +0 0 120 122 23 13 23
 32 0 0 0 0 0 0 8 17 14 17 26 134 ?71 0 111 4 135 +0 0 71 0 23 81 1 134 230 125
 17 136 0 128 137 0 14 71 75 137 ?19 17 64 4 138 -0 0 19 17 23 50 135 29 0 17 13
9 138 0 +-.05 0 .05 0 0 1 1 0 0 50 139 57 0 81 133 135 0 +-.05 0 0 0 0 1 1 0 0 5
0 138 80 0 71 135 140 0 +-.05 .075 .05 1 -1850371707708595e-31 0 185037170770859
5e-31 1 0 50 140 81 0 119 138 20 0 +.05 .075 .05 0 -1 0 0 0 -1 14 119 31 141 ?81
 116 118 4 140 -0 0 81 116 23 50 20 82 0 116 140 5 0 +.05 0 .05 -1 -185037170770
8595e-31 0 1850371707708595e-31 -1 0 14 116 69 127 ?119 19 35 4 20 -0 0 119 19 2
3 81 1 127 233 125 116 142 0 143 121 0 14 19 72 143 ?116 71 28 4 5 -0 0 116 71 2
3 81 1 143 232 125 19 144 0 137 127 0 80 255 1 125 145 146 9000 1 1 1 1 1 1 1 1
 0 FFFFTFTTFFFFFF1 81 1 144 105 147 19 148 143 142 149 150 81 1 137 231 125 71 1
51 0 134 143 0 81 1 151 93 147 71 152 137 153 154 155 80 1 147 156 157 9000 0 0
 0 0 3 6 0 0 0 FFFFTFFFFFFFFF1 81 3 152 90 158 71 0 151 159 160 161 162 0 81 1 1
53 89 147 81 159 163 0 151 164 81 1 154 97 147 119 160 141 151 142 165 82 255 1
 155 320 81 3 160 94 158 119 0 154 152 166 167 168 0 81 1 141 116 125 119 154 0
 0 163 0 81 1 142 101 147 116 166 127 154 144 169 82 1 165 320 81 3 166 98 158 1
16 0 142 160 148 170 171 0 82 1 169 320 80 3 158 172 173 9000 0 0 0 0 3 6 0 0 0
 FFFFTFTTFFFFFF1 1 3 81 3 148 102 158 19 0 144 166 136 174 175 0 82 1 170 0 82 1
 171 4 81 3 136 125 158 17 149 134 148 176 177 178 0 82 1 174 0 82 1 175 5 81 1
 149 124 147 17 0 136 144 179 180 81 3 176 135 158 124 0 179 136 181 182 183 0 8
2 1 177 0 82 1 178 0 81 1 179 132 147 124 176 131 149 184 185 81 3 181 141 158 1
22 0 184 176 186 187 188 0 82 1 182 0 82 1 183 8 81 1 184 139 147 122 181 128 17
9 126 189 81 3 186 227 158 120 0 126 181 0 190 191 0 82 1 187 0 82 1 188 6 81 1
 126 228 147 120 186 121 184 0 192 82 1 190 0 82 1 191 9 82 1 192 478 81 1 128 1
64 125 122 184 0 131 134 0 82 1 189 468 81 1 131 163 125 124 179 0 163 128 0 81
 1 163 118 125 81 153 0 141 131 0 14 81 53 163 ?124 119 74 4 139 -0 0 122 119 23
 82 1 185 468 82 1 180 320 79 255 27 173 MONIKER/MONIKER_DATA_ATTRIB82 1 167 0 8
2 1 168 3 81 3 159 87 158 81 0 153 0 152 193 194 0 82 1 164 320 82 1 193 0 82 1
 194 1 82 1 161 0 82 1 162 2 79 23 157 SolidEdge/MNKR_ATTR_CID82 1 150 320 79 17
 146 SolidEdge/Display51 133 150 0 124 130 139 0 +487620910533078e-32 .025637168
14159295 .084925 0 0 -1 .01125174714289824 -1 0 0 50 130 151 0 122 123 133 0 +48
7620910533078e-32 .02563716814159295 .084925 0 0 -1 -1 0 0 15 132 136 0 195 124
 196 17 195 0 132 195 195 0 197 78 0 0 +15 196 137 0 198 124 0 17 198 0 196 198
 198 0 199 200 0 0 -17 199 0 113 199 199 0 198 200 0 0 +16 200 128 201 ?199 78 0
 93 0 0 1 81 1 201 129 86 200 202 0 88 0 203 16 78 127 0 ?195 70 200 92 0 0 1 31
 93 154 0 200 0 92 0 +487620910533078e-32 .02563716814159295 .05 0 0 -1 1 -61230
3176911189e-31 0 .01125174714289824 80 1 86 204 205 9000 0 0 0 0 3 6 0 0 0 FFFFT
FTFFFFFFF1 81 1 202 130 145 200 0 201 206 0 207 81 1 88 45 86 83 206 0 84 201 20
8 82 1 203 387 81 1 206 46 145 83 0 88 87 202 209 82 1 208 98 80 1 145 210 211 9
000 0 0 0 0 3 6 0 0 0 FFFFTFTTFFFFFF1 81 1 87 43 145 63 0 84 212 206 213 82 1 20
9 17 81 1 212 40 145 70 0 77 214 87 215 82 1 213 17 81 1 77 39 86 70 212 0 95 84
 216 81 1 214 37 145 90 0 95 0 212 217 82 1 215 17 81 1 95 36 86 90 214 0 0 77 2
18 82 1 217 17 82 1 218 99 82 1 216 100 79 27 211 SolidEdge/MNKR_ATTR_TYPE_EX82
 1 207 17 79 23 205 SolidEdge/MNKR_ATTR_SID15 113 121 0 199 17 0 17 197 0 129 19
7 197 0 195 78 0 0 -15 129 142 0 197 122 0 17 75 0 74 80 69 53 76 90 0 82 -17 36
 0 35 82 33 56 30 67 0 80 +17 30 0 28 26 59 27 36 67 0 31 -82 1 89 97 19 18 1 0
 1 0 8 4 S74 255 20 16 7 0 202 201 186 126 121 12 2 0 0 0 0 0 0 0 0 0 0 0 0 0 81
 2 12 119 219 1 0 2 0 0 220 221 80 2 219 11 222 9000 2 2 2 2 3 6 0 0 0 FFTFFFFFF
FFFFF2 3 83 255 1 220 320 84 255 6 221 SE 5.079 22 222 MONIKER/BODY_ID_ATTRIB80
 3 11 158 223 9000 0 0 0 0 3 6 0 0 0 FFTFFFFFFFFFFF3 3 1 84 38 13 {53a85994-bac5
-11d2-a151-0060b0c3f267}84 2 14 SE82 1 15 0 79 25 223 MONIKER/GUID_TABLE_ATTRIB1
 0 
