**ABCDEFGHIJKLMNOPQRSTUVWXYZabcdefghijklmnopqrstuvwxyz**************************
**PARASOLID !"#$%&'()*+,-./:;<=>?@[\]^_`{|}~0123456789**************************
**PART1;
MC=unknown;
MC_MODEL=unknown;
MC_ID=unknown;
OS=unknown;
OS_RELEASE=unknown;
FRU=sdl_parasolid_customer_support;
APPL=parasolid_acceptance_tests;
SITE=unknown;
USER=unknown;
FORMAT=text;
GUISE=transmit;
KEY=Block;
FILE=Block.xmt_txt;
DATE=unknown;
**PART2;
SCH=SCH_2601153_26105;
USFLD_SIZE=0;
**PART3;
**END_OF_HEADER*****************************************************************
T51 : TRANSMIT FILE created by modeller version 260115323 SCH_2601153_26105_1300
6194 0 12 30 CCCCCCCCCCCCCDI5 owner1040 0 CCCCCCCCCA13 boundary_mesh1006 0 A16 i
ndex_map_offset0 0 1 dA9 index_map82 0 A17 node_id_index_map82 0 A20 schema_embe
dding_map82 0 A5 child12 0 A14 lowest_node_id0 0 1 dZ1 62 0 0 0 0 0 0 1e3 1e-8 0
 0 0 1 0 1 1 2 3 4 5 6 7 8 0 0 0 0 0 0 0 13 255 2 3 0 1 0 9 0 0 10 0 50 255 3 54
 0 9 11 0 0 +0 0 1 0 0 1 1 0 0 30 255 4 62 0 7 12 0 0 +0 -1 1 -1 0 0 29 255 5 58
 0 8 13 0 -.5 -1 1 19 8 CCCCCCCA5 owner12 0 Z6 1 0 1 10 0 14 V0 16 255 7 34 0 ?1
5 0 16 4 0 0 1 18 255 8 23 0 15 0 17 5 ?1 17 255 15 0 18 19 20 8 21 7 0 22 +18 1
7 21 0 23 8 24 13 ?1 17 23 0 25 26 27 17 22 16 0 28 +18 24 19 0 29 17 30 31 ?1 2
9 13 57 0 17 31 5 -.5 1 1 29 31 56 0 24 32 13 .5 1 1 29 32 55 0 30 33 31 .5 -1 1
 18 30 17 0 21 24 34 32 ?1 29 33 41 0 35 36 32 -.5 -1 0 18 35 11 0 19 37 38 33 ?
1 29 36 40 0 37 39 33 -.5 1 0 18 37 13 0 26 34 35 36 ?1 29 39 39 0 34 40 36 .5 1
 0 18 34 15 0 41 30 37 39 ?1 29 40 38 0 38 0 39 .5 -1 0 18 38 10 0 42 35 0 40 ?1
 17 42 0 43 44 45 38 20 46 0 47 -15 255 43 7 0 44 48 0 17 44 0 43 49 42 34 50 51
 0 0 +17 45 0 43 42 49 30 52 53 0 20 +17 20 0 18 15 47 30 42 46 0 0 +16 46 18 0
 ?20 54 51 55 0 0 1 17 47 0 18 20 19 38 56 57 0 50 +15 18 32 0 20 58 0 17 19 0 1
8 47 15 35 27 59 0 60 -17 56 0 61 62 50 35 47 57 0 0 -16 57 12 0 ?47 63 0 64 0 0
 1 17 50 0 61 56 65 38 44 51 0 0 -15 61 8 0 50 66 0 17 65 0 61 50 62 34 67 68 0
 44 -16 51 6 0 ?44 46 68 69 0 0 1 16 68 16 0 ?67 51 63 70 0 0 1 30 69 43 0 51 64
 70 0 +.5 0 0 0 1 0 30 64 42 0 57 0 69 0 +0 -1 0 1 0 0 30 70 44 0 68 69 71 0 +0
 1 0 -1 0 0 30 71 45 0 63 70 55 0 +-.5 0 0 0 -1 0 16 63 14 0 ?60 68 57 71 0 0 1
 30 55 50 0 46 71 72 0 +.5 -1 0 0 0 1 30 72 51 0 54 55 73 0 +.5 1 0 0 0 1 16 54
 20 0 ?49 74 46 72 0 0 1 30 73 52 0 74 72 75 0 +-.5 1 0 0 0 1 16 74 22 0 ?76 59
 54 73 0 0 1 30 75 53 0 59 73 77 0 +-.5 -1 0 0 0 1 16 59 24 0 ?27 53 74 75 0 0 1
 30 77 59 0 53 75 78 0 +.5 0 1 0 -1 0 16 53 25 0 ?45 79 59 77 0 0 1 30 78 60 0 7
9 77 12 0 +0 1 1 1 0 0 16 79 28 0 ?29 16 53 78 0 0 1 30 12 61 0 16 78 4 0 +-.5 0
 1 0 1 0 16 16 31 0 ?23 7 79 12 0 0 1 17 29 0 80 41 76 24 28 79 0 52 +15 80 26 0
 76 81 0 17 41 0 80 67 29 34 49 54 0 65 -17 76 0 80 29 67 17 26 74 0 0 +17 28 0
 82 22 52 17 29 79 0 76 -17 52 0 82 28 21 24 45 53 0 49 -15 82 35 0 21 9 0 17 21
 0 82 52 22 30 15 7 0 45 -17 49 0 43 45 44 24 41 54 0 0 +17 22 0 82 21 28 8 23 1
6 0 27 -17 27 0 25 23 60 8 19 59 0 0 +15 25 29 0 27 83 0 17 60 0 25 27 26 35 62
 63 0 56 +17 26 0 25 60 23 37 76 74 0 67 -17 62 0 61 65 56 37 60 63 0 0 -17 67 0
 80 76 41 37 65 68 0 62 +14 255 83 30 0 ?81 58 25 2 84 +0 0 81 58 14 14 81 27 0
 ?66 83 80 2 85 +0 0 66 83 14 14 58 33 0 ?83 9 18 2 11 +0 0 83 9 14 50 84 48 0 8
3 85 11 0 +-.5 0 0 -1 0 0 0 0 1 13 14 4 0 0 0 0 0 0 6 9 14 9 36 0 ?58 0 82 2 3 +
0 0 58 0 14 50 85 47 0 81 86 84 0 +0 1 0 0 1 0 0 0 1 50 11 49 0 58 84 3 0 +0 -1
 0 0 -1 0 0 0 -1 50 86 46 0 48 87 85 0 +.5 0 0 1 0 0 0 0 -1 14 48 2 0 ?0 66 43 2
 86 +0 0 0 66 14 50 87 37 0 66 0 86 0 +0 0 0 0 0 -1 -1 0 0 14 66 9 0 ?48 81 61 2
 87 +0 0 48 81 14 19 10 5 0 1 0 6 2 S0 1 0 
