**ABCDEFGHIJKLMNOPQRSTUVWXYZabcdefghijklmnopqrstuvwxyz**************************
**PARASOLID !"#$%&'()*+,-./:;<=>?@[\]^_`{|}~0123456789**************************
**PART1;
MC=unknown;
MC_MODEL=unknown;
MC_ID=unknown;
OS=unknown;
OS_RELEASE=unknown;
FRU=unknown;
APPL=File generated by 3D Reviewer Application Version 5.3.0.0;
SITE=unknown;
USER=unknown;
FORMAT=text;
GUISE=transmit;
KEY=brut;
FILE=X:\Documents\Virfac\Examples\MachiningAdvanced\brut.x_t;
DATE=unknown;
**PART2;
SCH=SCH_1100000_11004;
USFLD_SIZE=0;
**PART3;
**END_OF_HEADER*****************************************************************
T51 : TRANSMIT FILE created by modeller version 110000017 SCH_1100000_110040 10
 1 698 695 696 0 0 0 0 0 1e3 1e-008 0 0 0 1 0 1 693 12 2 692 691 151 0 0 0 0 1e3
 1e-008 693 0 0 1 0 1 1 78 218 689 146 76 65 61 13 3 3 0 0 0 0 0 0 76 4 14 4 4 1
56 ?14 0 5 78 147 +0 0 14 0 3 15 5 5 0 79 4 0 16 6 6 0 1e-006 119 9 0 0 0 0 2 18
 7 7 0 120 10 0 134 1e-006 2 18 8 8 0 119 21 12 131 1e-006 2 16 9 9 0 1e-006 80
 11 6 0 0 0 2 18 10 10 0 123 12 7 133 1e-006 2 16 11 11 0 1e-006 81 13 9 0 0 0 2
 18 12 12 0 124 8 10 132 1e-006 2 16 13 13 0 1e-006 84 16 11 0 0 0 2 14 14 14 16
1 ?18 4 15 78 158 +0 0 18 4 3 15 15 15 0 83 14 0 16 16 16 0 1e-006 120 17 13 0 0
 0 2 16 17 17 0 1e-006 85 20 16 0 0 0 2 14 18 18 166 ?28 14 19 78 163 +0 0 28 14
 3 15 19 19 0 87 18 0 16 20 20 0 1e-006 122 23 17 0 0 0 2 18 21 21 0 121 24 8 13
5 1e-006 2 18 22 22 0 122 35 26 136 1e-006 2 16 23 23 0 1e-006 88 25 20 0 0 0 2
 18 24 24 0 127 26 21 137 1e-006 2 16 25 25 0 1e-006 89 27 23 0 0 0 2 18 26 26 0
 128 22 24 138 1e-006 2 16 27 27 0 1e-006 92 30 25 0 0 0 2 14 28 28 171 ?32 18 2
9 78 168 +0 0 32 18 3 15 29 29 0 91 28 0 16 30 30 0 1e-006 121 31 27 0 0 0 2 16
 31 31 0 1e-006 93 34 30 0 0 0 2 14 32 32 176 ?42 28 33 78 173 +0 0 42 28 3 15 3
3 33 0 95 32 0 16 34 34 0 1e-006 126 37 31 0 0 0 2 18 35 35 0 125 38 22 142 1e-0
06 2 18 36 36 0 126 49 40 139 1e-006 2 16 37 37 0 1e-006 96 39 34 0 0 0 2 18 38
 38 0 110 40 35 141 1e-006 2 16 39 39 0 1e-006 97 41 37 0 0 0 2 18 40 40 0 107 3
6 38 140 1e-006 2 16 41 41 0 1e-006 100 44 39 0 0 0 2 14 42 42 181 ?46 32 43 78
 178 +0 0 46 32 3 15 43 43 0 99 42 0 16 44 44 0 1e-006 125 45 41 0 0 0 2 16 45 4
5 0 1e-006 101 48 44 0 0 0 2 14 46 46 186 ?53 42 47 78 183 +0 0 53 42 3 15 47 47
 0 103 46 0 16 48 48 0 1e-006 104 50 45 0 0 0 2 18 49 49 0 118 51 36 144 1e-006
 2 16 50 50 0 1e-006 105 52 48 0 0 0 2 18 51 51 0 115 59 49 143 1e-006 2 16 52 5
2 0 1e-006 108 55 50 0 0 0 2 14 53 53 191 ?56 46 54 78 188 +0 0 56 46 3 15 54 54
 0 107 53 0 16 55 55 0 1e-006 109 58 52 0 0 0 2 14 56 56 196 ?63 53 57 78 193 +0
 0 63 53 3 15 57 57 0 111 56 0 16 58 58 0 1e-006 112 60 55 0 0 0 2 18 59 59 0 12
9 61 51 146 1e-006 2 16 60 60 0 1e-006 113 62 58 0 0 0 2 18 61 61 0 130 0 59 145
 1e-006 2 16 62 62 0 1e-006 116 65 60 0 0 0 2 14 63 63 201 ?66 56 64 78 198 +0 0
 66 56 3 15 64 64 0 115 63 0 16 65 65 0 1e-006 117 0 62 0 0 0 2 14 66 66 206 ?68
 63 67 78 203 +0 0 68 63 3 15 67 67 0 119 66 0 14 68 68 211 ?71 66 69 78 208 +0
 0 71 66 3 15 69 69 0 121 68 70 15 70 70 0 123 68 0 14 71 71 216 ?74 68 72 78 21
3 +0 0 74 68 3 15 72 72 0 125 71 73 15 73 73 0 127 71 0 14 74 74 221 ?0 71 75 78
 218 -0 0 0 71 3 15 75 75 0 129 74 0 19 76 76 0 2 77 0 3 V19 77 77 0 2 0 76 78 S
13 78 78 0 2 0 4 0 0 77 0 17 79 0 5 80 82 7 119 6 293 0 -17 80 0 5 81 79 10 86 9
 271 0 +17 81 0 5 82 80 12 123 11 253 0 +17 82 0 5 79 81 8 84 13 239 0 -17 83 0
 15 84 86 8 120 16 329 82 -17 84 0 15 85 83 12 82 13 235 81 +17 85 0 15 86 84 10
 124 17 307 80 +17 86 0 15 83 85 7 80 9 275 79 -17 87 0 19 88 90 21 122 20 347 0
 -17 88 0 19 89 87 24 94 23 361 0 +17 89 0 19 90 88 26 127 25 379 0 +17 90 0 19
 87 89 22 92 27 401 0 -17 91 0 29 92 94 22 121 30 419 90 -17 92 0 29 93 91 26 90
 27 397 89 +17 93 0 29 94 92 24 128 31 433 88 +17 94 0 29 91 93 21 88 23 365 87
 -17 95 0 33 96 98 35 126 34 509 0 -17 96 0 33 97 95 38 102 37 487 0 +17 97 0 33
 98 96 40 103 39 469 0 +17 98 0 33 95 97 36 100 41 455 0 -17 99 0 43 100 102 36
 125 44 545 98 -17 100 0 43 101 99 40 98 41 451 97 +17 101 0 43 102 100 38 107 4
5 523 96 +17 102 0 43 99 101 35 96 37 491 95 -17 103 0 47 104 106 38 97 39 473 1
01 -17 104 0 47 105 103 49 110 48 595 0 +17 105 0 47 106 104 51 111 50 577 0 +17
 106 0 47 103 105 40 108 52 563 100 -17 107 0 54 108 110 40 101 45 527 106 -17 1
08 0 54 109 107 51 106 52 559 105 +17 109 0 54 110 108 49 115 55 613 104 +17 110
 0 54 107 109 38 104 48 599 103 -17 111 0 57 112 114 49 105 50 581 109 -17 112 0
 57 113 111 59 118 58 667 0 +17 113 0 57 114 112 61 129 60 649 0 +17 114 0 57 11
1 113 51 116 62 635 108 -17 115 0 64 116 118 51 109 55 617 114 -17 116 0 64 117
 115 61 114 62 631 113 +17 117 0 64 118 116 59 130 65 685 112 +17 118 0 64 115 1
17 49 112 58 671 111 -17 119 0 67 120 120 8 79 6 289 83 +17 120 0 67 119 119 7 8
3 16 325 86 +17 121 0 69 122 122 21 91 30 415 94 +17 122 0 69 121 121 22 87 20 3
43 91 +17 123 0 70 124 124 10 81 11 257 85 -17 124 0 70 123 123 12 85 17 311 84
 -17 125 0 72 126 126 35 99 44 541 102 +17 126 0 72 125 125 36 95 34 505 99 +17
 127 0 73 128 128 24 89 25 383 93 -17 128 0 73 127 127 26 93 31 437 92 -17 129 0
 75 130 130 59 113 60 653 117 -17 130 0 75 129 129 61 117 65 689 116 -29 131 131
 0 8 0 132 .004500000000000012 -.007191383079062988 -.01316373842835565 29 132 1
32 0 12 131 133 .04450000000000007 -.007191383079063091 -.01316373842835559 29 1
33 133 0 10 132 134 .04450000000000007 .007191383079063089 .0131637384283556 29
 134 134 0 7 133 135 .004500000000000012 .007191383079063006 .01316373842835564
 29 135 135 0 21 134 136 .04449999999999992 .01198563846510506 .0219395640472593
2 29 136 136 0 22 135 137 .04449999999999992 -.01198563846510513 -.0219395640472
5929 29 137 137 0 24 136 138 .1669059892324149 .01198563846510518 .0219395640472
5922 29 138 138 0 26 137 139 .1669059892324149 -.01198563846510518 -.02193956404
725922 29 139 139 0 36 138 140 .1669059892324149 -.04554542616739921 -.083370343
37958538 29 140 140 0 40 139 141 .19 -.06472244771156727 -.1184736458552004 29 1
41 141 0 38 140 142 .19 .06472244771156725 .1184736458552004 29 142 142 0 35 141
 143 .1669059892324149 .04554542616739923 .08337034337958538 29 143 143 0 51 142
 144 .2 -.06472244771156718 -.1184736458552004 29 144 144 0 49 143 145 .2 .06472
244771156721 .1184736458552004 29 145 145 0 61 144 146 .22 -.04828157157653604 -
.08837882395583034 29 146 146 0 59 145 0 .22 .04828157157653602 .088378823955830
34 51 147 147 0 4 0 158 292 +.11225 0 0 -1 0 0 .01500000000000003 0 1 0 80 1 148
 0 149 8001 0 0 0 0 3 5 0 0 FFFFTFTFFFFFFF2 79 15 149 SDL/TYSA_COLOUR81 1 150 15
0 148 4 0 156 0 159 153 70 151 151 2 0 0 4 2 20 4 152 152 1 T74 20 152 2 0 219 6
91 0 0 0 0 0 0 0 0 0 0 0 0 0 0 0 0 0 0 83 3 153 .8235294222831726 .8235294222831
726 1 80 1 154 148 155 8017 0 0 0 0 0 0 0 0 TTTTTTTTTTTTTF3 79 13 155 SDL/TYSA_N
AME81 1 156 156 154 4 150 0 0 161 157 84 7 157 Shaft.151 158 158 0 14 147 163 32
8 +.11225 0 0 -1 0 0 .01500000000000003 0 1 0 81 1 159 159 148 14 0 161 150 164
 160 83 3 160 .8235294222831726 .8235294222831726 1 81 1 161 161 154 14 159 0 15
6 166 162 84 7 162 Shaft.151 163 163 0 18 158 168 400 +.11225 0 0 -1 0 0 .024999
99999999999 0 1 0 81 1 164 164 148 18 0 166 159 169 165 83 3 165 .82352942228317
26 .8235294222831726 1 81 1 166 166 154 18 164 0 161 171 167 84 7 167 Shaft.151
 168 168 0 28 163 173 432 +.11225 0 0 -1 0 0 .02499999999999999 0 1 0 81 1 169 1
69 148 28 0 171 164 174 170 83 3 170 .8235294222831726 .8235294222831726 1 81 1
 171 171 154 28 169 0 166 176 172 84 7 172 Shaft.152 173 173 0 32 168 178 508 +.
1669059892324149 0 0 1 - 0 .09499999999999995 .8660254037844385 .500000000000000
3 0 1 0 81 1 174 174 148 32 0 176 169 179 175 83 3 175 .8235294222831726 .823529
4222831726 1 81 1 176 176 154 32 174 0 171 181 177 84 7 177 Shaft.152 178 178 0
 42 173 183 544 +.1669059892324149 0 0 1 - 0 .09499999999999995 .866025403784438
5 .5000000000000003 0 1 0 81 1 179 179 148 42 0 181 174 184 180 83 3 180 .823529
4222831726 .8235294222831726 1 81 1 181 181 154 42 179 0 176 186 182 84 7 182 Sh
aft.151 183 183 0 46 178 188 594 +.11225 0 0 -1 0 0 .135 0 1 0 81 1 184 184 148
 46 0 186 179 189 185 83 3 185 .8235294222831726 .8235294222831726 1 81 1 186 18
6 154 46 184 0 181 191 187 84 7 187 Shaft.151 188 188 0 53 183 193 612 +.11225 0
 0 -1 0 0 .135 0 1 0 81 1 189 189 148 53 0 191 184 194 190 83 3 190 .82352942228
31726 .8235294222831726 1 81 1 191 191 154 53 189 0 186 196 192 84 7 192 Shaft.1
52 193 193 0 56 188 198 666 +.22 0 0 -1 0 0 .100707133201754 .8638246397650071 .
5037926078604724 0 1 0 81 1 194 194 148 56 0 196 189 199 195 83 3 195 .823529422
2831726 .8235294222831726 1 81 1 196 196 154 56 194 0 191 201 197 84 7 197 Shaft
.152 198 198 0 63 193 203 684 +.22 0 0 -1 0 0 .100707133201754 .8638246397650071
 .5037926078604724 0 1 0 81 1 199 199 148 63 0 201 194 204 200 83 3 200 .8235294
222831726 .8235294222831726 1 81 1 201 201 154 63 199 0 196 206 202 84 7 202 Sha
ft.150 203 203 0 66 198 208 324 +.0045 0 .015 -1 0 0 0 1 0 81 1 204 204 148 66 0
 206 199 209 205 83 3 205 .8235294222831726 .8235294222831726 1 81 1 206 206 154
 66 204 0 201 211 207 84 7 207 Shaft.150 208 208 0 68 203 213 414 +.044499999999
99992 0 .025 -1 0 0 0 1 0 81 1 209 209 148 68 0 211 204 214 210 83 3 210 .823529
4222831726 .8235294222831726 1 81 1 211 211 154 68 209 0 206 216 212 84 7 212 Sh
aft.150 213 213 0 71 208 218 540 +.166905989232415 0 .09499999999999992 -1 0 0 0
 1 0 81 1 214 214 148 71 0 216 209 219 215 83 3 215 .8235294222831726 .823529422
2831726 1 81 1 216 216 154 71 214 0 211 221 217 84 7 217 Shaft.150 218 218 0 74
 213 0 688 +.22 0 0 -1 0 0 0 1 0 81 1 219 219 148 74 0 221 214 0 220 83 3 220 .8
235294222831726 .8235294222831726 1 81 1 221 221 154 74 219 0 216 691 222 84 7 2
22 Shaft.1134 223 0 0 0 0 0 0 +224 0 136 224 1 2 2 2 1 FFF1 225 226 227 45 4 225
 2.070796326794897 .10775 2.070796326794897 .06774999999999985 127 2 226 2 2 128
 2 227 .06774999999999985 .10775 134 228 0 0 0 0 0 0 +229 0 136 229 1 2 2 2 1 FF
F1 230 231 232 45 4 230 2.070796326794897 .06774999999999985 2.070796326794897 .
10775 127 2 231 2 2 128 2 232 .06774999999999985 .10775 137 233 233 0 2 0 235 23
6 +158 223 0 ?141 234 233 274 328 158 133 235 235 0 84 233 237 0 +233 .004500000
000000032 -.007191383079063059 -.01316373842835562 .04450000000000015 -.00719138
3079063059 -.01316373842835562 .06774999999999985 .10775 141 236 235 236 236 233
 137 237 237 0 2 235 239 240 +147 228 0 ?141 238 237 252 292 147 133 239 239 0 8
2 237 251 0 +237 .04450000000000015 -.007191383079063059 -.01316373842835562 .00
4500000000000032 -.007191383079063059 -.01316373842835562 .06774999999999985 .10
775 141 240 239 240 240 237 134 241 0 0 0 0 0 0 +242 0 136 242 1 2 2 2 1 FFF1 24
3 244 245 45 4 243 -1.070796326794897 .06774999999999988 2.070796326794897 .0677
4999999999988 127 2 244 2 2 128 2 245 .07818583470577051 .1253097245096175 134 2
46 0 0 0 0 0 0 +247 0 136 247 9 10 2 2 1 FFF1 248 249 250 45 20 248 -.0071913830
79063142 .03816373842835556 -.002596385147052242 .04067399723944023 .00298449842
8265935 .0413798695510174 .008740861857913 .0398385317762147 .01363304230662512
 .03603302974095664 .01664993859580497 .03051063812593315 .01720890176393992 .02
433788870126161 .01539571634477149 .01866128754335674 .01178638101107404 .014346
52038272912 .007191383079063142 .01183626157164445 127 2 249 10 10 128 2 250 .07
818583470577052 .1253097245096175 137 251 251 0 2 239 253 254 +147 241 0 ?141 25
2 251 270 238 147 133 253 253 0 81 251 255 0 +251 .04450000000000012 .0071913830
79063057 .01316373842835562 .04450000000000012 -.007191383079063059 -.0131637384
2835562 .07818583470577051 .1253097245096175 141 254 253 254 254 251 137 255 255
 0 2 253 257 258 +208 246 0 ?141 256 255 310 414 208 133 257 257 0 123 255 269 0
 +255 .04449999999999992 -.007191383079063142 -.01316373842835555 .0444999999999
9992 .007191383079063142 .01316373842835556 .07818583470577052 .1253097245096175
 141 258 257 258 258 255 134 259 0 0 0 0 0 0 +260 0 136 260 1 2 2 2 1 FFF1 261 2
62 263 45 4 261 5.21238898038469 .10775 5.21238898038469 .06774999999999985 127
 2 262 2 2 128 2 263 .06774999999999985 .10775 134 264 0 0 0 0 0 0 +265 0 136 26
5 1 2 2 2 1 FFF1 266 267 268 45 4 266 5.21238898038469 .06774999999999985 5.2123
8898038469 .10775 127 2 267 2 2 128 2 268 .06774999999999985 .10775 137 269 269
 0 2 257 271 272 +147 259 0 ?141 270 269 292 252 147 133 271 271 0 80 269 273 0
 +269 .004500000000000032 .007191383079063057 .01316373842835562 .04450000000000
015 .007191383079063057 .01316373842835562 .06774999999999985 .10775 141 272 271
 272 272 269 137 273 273 0 2 271 275 276 +158 264 0 ?141 274 273 306 234 158 133
 275 275 0 86 273 287 0 +273 .04450000000000015 .007191383079063057 .01316373842
835562 .004500000000000032 .007191383079063057 .01316373842835562 .0677499999999
9985 .10775 141 276 275 276 276 273 134 277 0 0 0 0 0 0 +278 0 136 278 9 10 2 2
 1 FFF1 279 280 281 45 20 279 .007191383079063042 .001836261571644409 .011786381
01107395 .004346520382729037 .01539571634477143 .008661287543356632 .01720890176
39399 .01433788870126148 .01664993859580499 .02051063812593302 .0136330423066251
8 .02603302974095653 .008740861857913094 .02983853177621462 .002984498428266047
 .03137986955101735 -.002596385147052128 .03067399723944022 -.007191383079063042
 .02816373842835559 127 2 280 10 10 128 2 281 .07818583470577034 .12530972450961
73 134 282 0 0 0 0 0 0 +283 0 136 283 1 2 2 2 1 FFF1 284 285 286 45 4 284 2.0707
96326794881 .10775 -1.070796326794897 .10775 127 2 285 2 2 128 2 286 .0781858347
0577051 .1253097245096173 137 287 287 0 2 275 289 290 +203 277 0 ?141 288 287 32
4 324 203 133 289 289 0 119 287 291 0 +287 .0045 .007191383079063042 .0131637384
2835559 .0045 -.007191383079063042 -.01316373842835559 .07818583470577034 .12530
97245096173 141 290 289 290 290 287 137 291 291 0 2 289 293 294 +147 282 0 ?141
 292 291 238 270 147 133 293 293 0 79 291 305 0 +291 .004500000000000004 -.00719
1383079062848 -.01316373842835573 .004500000000000004 .007191383079063057 .01316
373842835562 .07818583470577051 .1253097245096173 141 294 293 294 294 291 134 29
5 0 0 0 0 0 0 +296 0 136 296 1 2 2 2 1 FFF1 297 298 299 45 4 297 2.0707963267948
97 .06774999999999988 5.21238898038469 .06774999999999988 127 2 298 2 2 128 2 29
9 .1253097245096175 .1724336143134645 134 300 0 0 0 0 0 0 +301 0 136 301 9 10 2
 2 1 FFF1 302 303 304 45 20 302 .007191383079063169 .01183626157164447 .00259638
5147052274 .009326002760559792 -.002984498428265902 .008620130448982612 -.008740
861857912971 .0101614682237853 -.01363304230662509 .01396697025904334 -.01664993
859580496 .01948936187406683 -.01720890176393992 .02566211129873837 -.0153957163
447715 .03133871245664324 -.01178638101107406 .03565347961727088 -.0071913830790
63169 .03816373842835555 127 2 303 10 10 128 2 304 .1253097245096175 .1724336143
134643 137 305 305 0 2 293 307 308 +158 295 0 ?141 306 305 328 274 158 133 307 3
07 0 85 305 309 0 +305 .04450000000000012 -.007191383079063059 -.013163738428355
62 .04450000000000012 .007191383079063057 .01316373842835562 .1253097245096175 .
1724336143134645 141 308 307 308 308 305 137 309 309 0 2 307 311 312 +208 300 0
 ?141 310 309 342 256 208 133 311 311 0 124 309 323 0 +309 .04449999999999992 .0
07191383079063169 .01316373842835554 .04449999999999992 -.007191383079063169 -.0
1316373842835554 .1253097245096175 .1724336143134643 141 312 311 312 312 309 134
 313 0 0 0 0 0 0 +314 0 136 314 9 10 2 2 1 FFF1 315 316 317 45 20 315 -.00719138
3079063068 .02816373842835558 -.01178638101107397 .02565347961727094 -.015395716
34477144 .02133871245664334 -.0172089017639399 .01566211129873849 -.016649938595
80498 .009489361874066949 -.01363304230662516 .003966970259043445 -.008740861857
913066 .0001614682237853667 -.002984498428266015 -.001379869551017356 .002596385
147052159 -.0006739972394402168 .007191383079063068 .001836261571644422 127 2 31
6 10 10 128 2 317 .1253097245096173 .1724336143134642 134 318 0 0 0 0 0 0 +319 0
 136 319 1 2 2 2 1 FFF1 320 321 322 45 4 320 5.212388980384667 .10775 2.07079632
6794881 .10775 127 2 321 2 2 128 2 322 .1253097245096173 .1724336143134642 137 3
23 323 0 2 311 325 326 +203 313 0 ?141 324 323 288 288 203 133 325 325 0 120 323
 327 0 +323 .0045 -.007191383079063068 -.01316373842835558 .0045 .00719138307906
3068 .01316373842835558 .1253097245096173 .1724336143134642 141 326 325 326 326
 323 137 327 327 0 2 325 329 330 +158 318 0 ?141 328 327 234 306 158 133 329 329
 0 83 327 341 0 +327 .004500000000000004 .007191383079062754 .01316373842835578
 .004500000000000004 -.007191383079062848 -.01316373842835573 .1253097245096173
 .1724336143134642 141 330 329 330 330 327 134 331 0 0 0 0 0 0 +332 0 136 332 9
 10 2 2 1 FFF1 333 334 335 45 20 333 .01198563846510507 .003060435952740682 .019
64396835178993 .007244200637881729 .02565952724128572 .01443547923892773 .028681
50293989984 .02389648116876914 .02774989765967499 .03418439687655504 .0227217371
7770864 .04338838290159423 .01456810309652183 .04973088629369104 .00497416404711
0079 .05229978258502893 -.004327308578420216 .05112332873240039 -.01198563846510
507 .04693956404725934 127 2 334 10 10 128 2 335 .1303097245096173 .208849540849
3621 134 336 0 0 0 0 0 0 +337 0 136 337 1 2 2 2 1 FFF1 338 339 340 45 4 338 2.07
0796326794904 .06775000000000009 -1.070796326794892 .06775000000000009 127 2 339
 2 2 128 2 340 .1303097245096173 .2088495408493621 137 341 341 0 2 329 343 344 +
208 331 0 ?141 342 341 414 310 208 133 343 343 0 122 341 345 0 +341 .04449999999
999992 .01198563846510507 .02193956404725933 .04449999999999992 -.01198563846510
507 -.02193956404725933 .1303097245096173 .2088495408493621 141 344 343 344 344
 341 137 345 345 0 2 343 347 348 +163 336 0 ?141 346 345 360 400 163 133 347 347
 0 87 345 359 0 +345 .04449999999999992 -.01198563846510522 -.02193956404725922
 .04449999999999992 .01198563846510516 .02193956404725925 .1303097245096173 .208
8495408493621 141 348 347 348 348 345 134 349 0 0 0 0 0 0 +350 0 136 350 1 2 2 2
 1 FFF1 351 352 353 45 4 351 5.212388980384689 .06775000000000007 5.212388980384
689 -.05465598923241485 127 2 352 2 2 128 2 353 -.06120299461620746 .06120299461
620746 134 354 0 0 0 0 0 0 +355 0 136 355 1 2 2 2 1 FFF1 356 357 358 45 4 356 5.
21238898038469 -.05465598923241485 5.21238898038469 .06775000000000007 127 2 357
 2 2 128 2 358 -.06120299461620746 .06120299461620746 137 359 359 0 2 347 361 36
2 +163 349 0 ?141 360 359 378 346 163 133 361 361 0 88 359 363 0 +359 .044499999
99999993 .01198563846510505 .02193956404725932 .1669059892324148 .01198563846510
505 .02193956404725932 -.06120299461620746 .06120299461620746 141 362 361 362 36
2 359 137 363 363 0 2 361 365 366 +168 354 0 ?141 364 363 396 432 168 133 365 36
5 0 94 363 377 0 +363 .1669059892324148 .01198563846510507 .02193956404725931 .0
4449999999999993 .01198563846510507 .02193956404725931 -.06120299461620746 .0612
0299461620746 141 366 365 366 366 363 134 367 0 0 0 0 0 0 +368 0 136 368 1 2 2 2
 1 FFF1 369 370 371 45 4 369 -1.070796326794897 -.05465598923241487 2.0707963267
94895 -.05465598923241487 127 2 370 2 2 128 2 371 .1303097245096171 .20884954084
93619 134 372 0 0 0 0 0 0 +373 0 136 373 9 10 2 2 1 FFF1 374 375 376 45 20 374 -
.01198563846510532 .116939564047259 -.004327308578420547 .1211233287324 .0049741
64047109698 .1222997825850288 .01456810309652145 .1197308862936911 .022721737177
70831 .1133883829015944 .02774989765967477 .1041843968765553 .02868150293989975
 .09389648116876943 .02565952724128577 .08443547923892802 .01964396835179 .07724
420063788197 .01198563846510532 .07306043595274084 127 2 375 10 10 128 2 376 .13
03097245096171 .2088495408493619 137 377 377 0 2 365 379 380 +163 367 0 ?141 378
 377 400 360 163 133 379 379 0 89 377 381 0 +377 .1669059892324149 .011985638465
10505 .02193956404725932 .1669059892324149 -.01198563846510503 -.021939564047259
33 .1303097245096171 .2088495408493619 141 380 379 380 380 377 137 381 381 0 2 3
79 383 384 +213 372 0 ?141 382 381 436 540 213 133 383 383 0 127 381 395 0 +381
 .166905989232415 -.01198563846510532 -.02193956404725908 .166905989232415 .0119
8563846510532 .02193956404725908 .1303097245096171 .2088495408493619 141 384 383
 384 384 381 134 385 0 0 0 0 0 0 +386 0 136 386 1 2 2 2 1 FFF1 387 388 389 45 4
 387 2.070796326794897 .06775000000000007 2.070796326794897 -.05465598923241485
 127 2 388 2 2 128 2 389 -.06120299461620746 .06120299461620746 134 390 0 0 0 0
 0 0 +391 0 136 391 1 2 2 2 1 FFF1 392 393 394 45 4 392 2.070796326794897 -.0546
5598923241485 2.070796326794897 .06775000000000007 127 2 393 2 2 128 2 394 -.061
20299461620746 .06120299461620746 137 395 395 0 2 383 397 398 +168 385 0 ?141 39
6 395 418 364 168 133 397 397 0 92 395 399 0 +395 .04449999999999993 -.011985638
46510507 -.02193956404725931 .1669059892324148 -.01198563846510507 -.02193956404
725931 -.06120299461620746 .06120299461620746 141 398 397 398 398 395 137 399 39
9 0 2 397 401 402 +163 390 0 ?141 400 399 346 378 163 133 401 401 0 90 399 413 0
 +399 .1669059892324148 -.01198563846510507 -.02193956404725931 .044499999999999
93 -.01198563846510507 -.02193956404725931 -.06120299461620746 .0612029946162074
6 141 402 401 402 402 399 134 403 0 0 0 0 0 0 +404 0 136 404 9 10 2 2 1 FFF1 405
 406 407 45 20 405 -.01198563846510512 .04693956404725931 -.01964396835178997 .0
4275579936211825 -.02565952724128575 .03556452076107224 -.02868150293989984 .026
10351883123082 -.02774989765967498 .01581560312344492 -.0227217371777086 .006611
617098405742 -.01456810309652178 .0002691137063089467 -.004974164047110026 -.002
299782585028928 .004327308578420268 -.001123328732400362 .01198563846510512 .003
060435952740703 127 2 406 10 10 128 2 407 .2088495408493621 .287389357189107 134
 408 0 0 0 0 0 0 +409 0 136 409 1 2 2 2 1 FFF1 410 411 412 45 4 410 5.2123889803
84683 .06775000000000009 2.070796326794904 .06775000000000009 127 2 411 2 2 128
 2 412 .2088495408493621 .2873893571891066 137 413 413 0 2 401 415 416 +208 403
 0 ?141 414 413 256 342 208 133 415 415 0 121 413 417 0 +413 .04449999999999992
 -.01198563846510512 -.0219395640472593 .04449999999999992 .01198563846510512 .0
2193956404725931 .2088495408493621 .287389357189107 141 416 415 416 416 413 137
 417 417 0 2 415 419 420 +168 408 0 ?141 418 417 432 396 168 133 419 419 0 91 41
7 431 0 +417 .04449999999999992 .01198563846510491 .02193956404725939 .044499999
99999992 -.01198563846510522 -.02193956404725922 .2088495408493621 .287389357189
1066 141 420 419 420 420 417 134 421 0 0 0 0 0 0 +422 0 136 422 1 2 2 2 1 FFF1 4
23 424 425 45 4 423 2.070796326794895 -.05465598923241487 5.212388980384688 -.05
465598923241487 127 2 424 2 2 128 2 425 .2088495408493619 .2873893571891067 134
 426 0 0 0 0 0 0 +427 0 136 427 9 10 2 2 1 FFF1 428 429 430 45 20 428 .011985638
46510554 .07306043595274095 .004327308578420805 .06887667126759973 -.00497416404
7109429 .06770021741497098 -.0145681030965212 .07026911370630865 -.0227217371777
0813 .07661161709840524 -.02774989765967468 .08581560312344427 -.028681502939899
76 .09610351883123011 -.02565952724128588 .1055645207610716 -.01964396835179027
 .1127557993621177 -.01198563846510554 .1169395640472589 127 2 429 10 10 128 2 4
30 .2088495408493619 .2873893571891059 137 431 431 0 2 419 433 434 +168 421 0 ?1
41 432 431 364 418 168 133 433 433 0 93 431 435 0 +431 .1669059892324149 -.01198
563846510503 -.02193956404725933 .1669059892324149 .01198563846510503 .021939564
04725933 .2088495408493619 .2873893571891067 141 434 433 434 434 431 137 435 435
 0 2 433 437 438 +213 426 0 ?141 436 435 504 382 213 133 437 437 0 128 435 449 0
 +435 .166905989232415 .01198563846510554 .02193956404725897 .166905989232415 -.
01198563846510554 -.02193956404725897 .2088495408493619 .2873893571891059 141 43
8 437 438 438 435 134 439 0 0 0 0 0 0 +440 0 136 440 1 2 2 2 1 FFF1 441 442 443
 45 4 441 4.21238898038469 0 4.21238898038469 .02309401076758507 127 2 442 2 2 1
28 2 443 -.02309401076758506 .02309401076758506 134 444 0 0 0 0 0 0 +445 0 136 4
45 1 2 2 2 1 FFF1 446 447 448 45 4 446 4.21238898038469 .02309401076758507 4.212
38898038469 0 127 2 447 2 2 128 2 448 -.02309401076758506 .02309401076758506 137
 449 449 0 2 437 451 452 +178 439 0 ?141 450 449 490 544 178 133 451 451 0 100 4
49 453 0 +449 .1669059892324149 -.04554542616739928 -.08337034337958535 .19 -.06
472244771156742 -.1184736458552003 -.02309401076758506 .02309401076758506 141 45
2 451 452 452 449 137 453 453 0 2 451 455 456 +173 444 0 ?141 454 453 468 508 17
3 133 455 455 0 98 453 467 0 +453 .19 -.06472244771156742 -.1184736458552003 .16
69059892324149 -.04554542616739928 -.08337034337958535 -.02309401076758506 .0230
9401076758506 141 456 455 456 456 453 134 457 0 0 0 0 0 0 +458 0 136 458 1 2 2 2
 1 FFF1 459 460 461 45 4 459 7.353981633974483 .02309401076758507 4.212388980384
69 .02309401076758507 127 2 460 2 2 128 2 461 -.1570796326794896 .15707963267948
96 134 462 0 0 0 0 0 0 +463 0 136 463 1 2 2 2 1 FFF1 464 465 466 45 4 464 2.0707
96326794893 -.07775 -1.070796326794897 -.07775 127 2 465 2 2 128 2 466 -.1570796
326794896 .1570796326794896 137 467 467 0 2 455 469 470 +173 457 0 ?141 468 467
 486 454 173 133 469 469 0 97 467 471 0 +467 .19 .06472244771156741 .11847364585
52003 .19 -.06472244771156742 -.1184736458552003 -.1570796326794896 .15707963267
94896 141 470 469 470 470 467 137 471 471 0 2 469 473 474 +183 462 0 ?141 472 47
1 562 594 183 133 473 473 0 103 471 485 0 +471 .19 -.06472244771156699 -.1184736
458552006 .19 .06472244771156728 .1184736458552004 -.1570796326794896 .157079632
6794896 141 474 473 474 474 471 134 475 0 0 0 0 0 0 +476 0 136 476 1 2 2 2 1 FFF
1 477 478 479 45 4 477 1.070796326794897 0 1.070796326794897 .02309401076758507
 127 2 478 2 2 128 2 479 -.02309401076758506 .02309401076758506 134 480 0 0 0 0
 0 0 +481 0 136 481 1 2 2 2 1 FFF1 482 483 484 45 4 482 1.070796326794897 .02309
401076758507 1.070796326794897 0 127 2 483 2 2 128 2 484 -.02309401076758506 .02
309401076758506 137 485 485 0 2 473 487 488 +173 475 0 ?141 486 485 508 468 173
 133 487 487 0 96 485 489 0 +485 .1669059892324149 .04554542616739927 .083370343
37958535 .19 .06472244771156741 .1184736458552003 -.02309401076758506 .023094010
76758506 141 488 487 488 488 485 137 489 489 0 2 487 491 492 +178 480 0 ?141 490
 489 522 450 178 133 491 491 0 102 489 503 0 +489 .19 .06472244771156735 .118473
6458552003 .1669059892324149 .04554542616739923 .08337034337958538 -.02309401076
758506 .02309401076758506 141 492 491 492 492 489 134 493 0 0 0 0 0 0 +494 0 136
 494 9 10 2 2 1 FFF1 495 496 497 45 20 495 .04554542616739923 .01162965662041458
 .07464707973680164 .02752796242395054 .09750620351688563 .05485482110792529 .10
89897111716192 .09080662844132262 .1054496111067649 .129900708130909 .0863426012
7529271 .1648758550260579 .05535879176678288 .1889773679160257 .0189018233790182
9 .1987391738231097 -.0164437725979968 .1942686491831212 -.04554542616739923 .17
83703433795852 127 2 496 10 10 128 2 497 -.1570796326794896 .1570796326794896 13
4 498 0 0 0 0 0 0 +499 0 136 499 1 2 2 2 1 FFF1 500 501 502 45 4 500 4.212388980
384691 0 7.353981633974481 0 127 2 501 2 2 128 2 502 -.1570796326794896 .1570796
326794896 137 503 503 0 2 491 505 506 +213 493 0 ?141 504 503 540 436 213 133 50
5 505 0 126 503 507 0 +503 .166905989232415 .04554542616739923 .0833703433795853
4 .166905989232415 -.04554542616739923 -.08337034337958532 -.1570796326794896 .1
570796326794896 141 506 505 506 506 503 137 507 507 0 2 505 509 510 +173 498 0 ?
141 508 507 454 486 173 133 509 509 0 95 507 521 0 +507 .1669059892324149 -.0455
454261673992 -.08337034337958539 .1669059892324149 .04554542616739941 .083370343
37958528 -.1570796326794896 .1570796326794896 141 510 509 510 510 507 134 511 0
 0 0 0 0 0 +512 0 136 512 1 2 2 2 1 FFF1 513 514 515 45 4 513 4.21238898038469 .
02309401076758507 1.070796326794897 .02309401076758507 127 2 514 2 2 128 2 515 .
1570796326794896 .4712388980384689 134 516 0 0 0 0 0 0 +517 0 136 517 1 2 2 2 1
 FFF1 518 519 520 45 4 518 5.212388980384684 -.07775 2.070796326794893 -.07775 1
27 2 519 2 2 128 2 520 .1570796326794896 .4712388980384689 137 521 521 0 2 509 5
23 524 +178 511 0 ?141 522 521 544 490 178 133 523 523 0 101 521 525 0 +521 .19
 -.06472244771156742 -.1184736458552003 .19 .06472244771156741 .1184736458552003
 .1570796326794896 .4712388980384689 141 524 523 524 524 521 137 525 525 0 2 523
 527 528 +188 516 0 ?141 526 525 558 612 188 133 527 527 0 107 525 539 0 +525 .1
9 .06472244771156675 .1184736458552007 .19 -.06472244771156699 -.118473645855200
6 .1570796326794896 .4712388980384689 141 528 527 528 528 525 134 529 0 0 0 0 0
 0 +530 0 136 530 9 10 2 2 1 FFF1 531 532 533 45 20 531 -.0455454261673991 .1783
703433795854 -.07464707973680154 .1624720375760494 -.09750620351688558 .13514517
88920747 -.1089897111716192 .09919337155867739 -.1054496111067649 .0600992918690
91 -.08634260127529284 .02512414497394211 -.05535879176678304 .00102263208397418
4 -.01890182337901845 -.008739173823109847 .01644377259799664 -.0042686491831214
2 .0455454261673991 .0116296566204145 127 2 532 10 10 128 2 533 .157079632679489
6 .4712388980384688 134 534 0 0 0 0 0 0 +535 0 136 535 1 2 2 2 1 FFF1 536 537 53
8 45 4 536 1.070796326794898 0 4.212388980384691 0 127 2 537 2 2 128 2 538 .1570
796326794896 .4712388980384688 137 539 539 0 2 527 541 542 +213 529 0 ?141 540 5
39 382 504 213 133 541 541 0 125 539 543 0 +539 .166905989232415 -.0455454261673
991 -.08337034337958543 .166905989232415 .0455454261673991 .08337034337958542 .1
570796326794896 .4712388980384688 141 542 541 542 542 539 137 543 543 0 2 541 54
5 546 +178 534 0 ?141 544 543 450 522 178 133 545 545 0 99 543 557 0 +543 .16690
59892324149 .04554542616739912 .08337034337958543 .1669059892324149 -.0455454261
673992 -.08337034337958539 .1570796326794896 .4712388980384688 141 546 545 546 5
46 543 134 547 0 0 0 0 0 0 +548 0 136 548 1 2 2 2 1 FFF1 549 550 551 45 4 549 2.
070796326794895 -.07775 2.070796326794895 -.08775 127 2 550 2 2 128 2 551 -.0877
5 -.07775 134 552 0 0 0 0 0 0 +553 0 136 553 1 2 2 2 1 FFF1 554 555 556 45 4 554
 2.070796326794895 -.08775 2.070796326794895 -.07775 127 2 555 2 2 128 2 556 -.0
8775 -.07775 137 557 557 0 2 545 559 560 +188 547 0 ?141 558 557 598 526 188 133
 559 559 0 108 557 561 0 +557 .19 -.0647224477115672 -.1184736458552005 .2 -.064
7224477115672 -.1184736458552005 -.08775 -.07775 141 560 559 560 560 557 137 561
 561 0 2 559 563 564 +183 552 0 ?141 562 561 576 472 183 133 563 563 0 106 561 5
75 0 +561 .2 -.0647224477115672 -.1184736458552005 .19 -.0647224477115672 -.1184
736458552005 -.08775 -.07775 141 564 563 564 564 561 134 565 0 0 0 0 0 0 +566 0
 136 566 1 2 2 2 1 FFF1 567 568 569 45 4 567 -1.070796326794898 -.08775 2.070796
326794893 -.08775 127 2 568 2 2 128 2 569 .703672512351933 1.127787520586555 134
 570 0 0 0 0 0 0 +571 0 136 571 1 2 2 2 1 FFF1 572 573 574 45 4 572 2.0707963267
94895 .02 -1.070796326794897 .02 127 2 573 2 2 128 2 574 .703672512351933 1.1277
87520586555 137 575 575 0 2 563 577 578 +183 565 0 ?141 576 575 594 562 183 133
 577 577 0 105 575 579 0 +575 .2 .06472244771156718 .1184736458552005 .2 -.06472
244771156699 -.1184736458552006 .703672512351933 1.127787520586555 141 578 577 5
78 578 575 137 579 579 0 2 577 581 582 +193 570 0 ?141 580 579 634 666 193 133 5
81 581 0 111 579 593 0 +579 .2 -.06472244771156717 -.1184736458552004 .2 .064722
44771156736 .1184736458552003 .703672512351933 1.127787520586555 141 582 581 582
 582 579 134 583 0 0 0 0 0 0 +584 0 136 584 1 2 2 2 1 FFF1 585 586 587 45 4 585
 5.212388980384689 -.07775 5.212388980384689 -.08775 127 2 586 2 2 128 2 587 -.0
8775 -.07775 134 588 0 0 0 0 0 0 +589 0 136 589 1 2 2 2 1 FFF1 590 591 592 45 4
 590 5.212388980384688 -.08775 5.212388980384688 -.07775 127 2 591 2 2 128 2 592
 -.08775 -.07775 137 593 593 0 2 581 595 596 +183 583 0 ?141 594 593 472 576 183
 133 595 595 0 104 593 597 0 +593 .19 .06472244771156728 .1184736458552004 .2 .0
6472244771156728 .1184736458552004 -.08775 -.07775 141 596 595 596 596 593 137 5
97 597 0 2 595 599 600 +188 588 0 ?141 598 597 612 558 188 133 599 599 0 110 597
 611 0 +597 .2 .06472244771156718 .1184736458552005 .19 .06472244771156718 .1184
736458552005 -.08775 -.07775 141 600 599 600 600 597 134 601 0 0 0 0 0 0 +602 0
 136 602 1 2 2 2 1 FFF1 603 604 605 45 4 603 2.070796326794893 -.08775 5.2123889
80384686 -.08775 127 2 604 2 2 128 2 605 1.127787520586555 1.551902528821177 134
 606 0 0 0 0 0 0 +607 0 136 607 1 2 2 2 1 FFF1 608 609 610 45 4 608 5.2123889803
84688 .02 2.070796326794895 .02 127 2 609 2 2 128 2 610 1.127787520586555 1.5519
02528821177 137 611 611 0 2 599 613 614 +188 601 0 ?141 612 611 526 598 188 133
 613 613 0 109 611 615 0 +611 .2 -.06472244771156699 -.1184736458552006 .2 .0647
2244771156697 .1184736458552006 1.127787520586555 1.551902528821177 141 614 613
 614 614 611 137 615 615 0 2 613 617 618 +198 606 0 ?141 616 615 630 684 198 133
 617 617 0 115 615 629 0 +615 .2 .06472244771156716 .1184736458552004 .2 -.06472
244771156717 -.1184736458552004 1.127787520586555 1.551902528821177 141 618 617
 618 618 615 134 619 0 0 0 0 0 0 +620 0 136 620 1 2 2 2 1 FFF1 621 622 623 45 4
 621 2.070796326794897 .02 2.070796326794897 0 127 2 622 2 2 128 2 623 0 .039698
87546571364 134 624 0 0 0 0 0 0 +625 0 136 625 1 2 2 2 1 FFF1 626 627 628 45 4 6
26 2.070796326794897 0 2.070796326794897 .02 127 2 627 2 2 128 2 628 0 .03969887
546571364 137 629 629 0 2 617 631 632 +198 619 0 ?141 630 629 670 616 198 133 63
1 631 0 116 629 633 0 +629 .2 -.06472244771156738 -.1184736458552003 .22 -.04828
157157653611 -.08837882395583027 0 .03969887546571364 141 632 631 632 632 629 13
7 633 633 0 2 631 635 636 +193 624 0 ?141 634 633 648 580 193 133 635 635 0 114
 633 647 0 +633 .22 -.04828157157653611 -.08837882395583027 .2 -.064722447711567
38 -.1184736458552003 0 .03969887546571364 141 636 635 636 636 633 134 637 0 0 0
 0 0 0 +638 0 136 638 1 2 2 2 1 FFF1 639 640 641 45 4 639 -1.070796326794897 0 2
.070796326794895 0 127 2 640 2 2 128 2 641 .5212388980384689 .8353981633974481 1
34 642 0 0 0 0 0 0 +643 0 136 643 9 10 2 2 1 FFF1 644 645 646 45 20 644 -.048281
57157653611 .0883788239558303 -.01743163365648229 .1052322218530821 .02003735205
038763 .1099713136467773 .05868447596153233 .09962306640704698 .0915296405012299
7 .07407365304942816 .1117845055979172 .03699737118500002 .1155372774797996 -.00
4445288717096436 .1033638971112879 -.04255690397992007 .07913150949658993 -.0715
2542605857855 .04828157157653611 -.0883788239558303 127 2 645 10 10 128 2 646 .5
212388980384689 .8353981633974481 137 647 647 0 2 635 649 650 +193 637 0 ?141 64
8 647 666 634 193 133 649 649 0 113 647 651 0 +647 .22 .04828157157653602 .08837
882395583031 .22 -.04828157157653595 -.08837882395583037 .5212388980384689 .8353
981633974481 141 650 649 650 650 647 137 651 651 0 2 649 653 654 +218 642 0 ?141
 652 651 688 688 218 133 653 653 0 129 651 665 0 +651 .22 -.04828157157653611 -.
0883788239558303 .22 .04828157157653611 .0883788239558303 .5212388980384689 .835
3981633974481 141 654 653 654 654 651 134 655 0 0 0 0 0 0 +656 0 136 656 1 2 2 2
 1 FFF1 657 658 659 45 4 657 5.21238898038469 .02 5.21238898038469 0 127 2 658 2
 2 128 2 659 0 .03969887546571364 134 660 0 0 0 0 0 0 +661 0 136 661 1 2 2 2 1 F
FF1 662 663 664 45 4 662 5.212388980384688 0 5.212388980384688 .02 127 2 663 2 2
 128 2 664 0 .03969887546571364 137 665 665 0 2 653 667 668 +193 655 0 ?141 666
 665 580 648 193 133 667 667 0 112 665 669 0 +665 .2 .06472244771156736 .1184736
458552003 .22 .0482815715765361 .08837882395583027 0 .03969887546571364 141 668
 667 668 668 665 137 669 669 0 2 667 671 672 +198 660 0 ?141 670 669 684 630 198
 133 671 671 0 118 669 683 0 +669 .22 .04828157157653595 .08837882395583037 .2 .
06472244771156716 .1184736458552004 0 .03969887546571364 141 672 671 672 672 669
 134 673 0 0 0 0 0 0 +674 0 136 674 1 2 2 2 1 FFF1 675 676 677 45 4 675 2.070796
326794895 0 5.212388980384688 0 127 2 676 2 2 128 2 677 .8353981633974481 1.1495
57428756427 134 678 0 0 0 0 0 0 +679 0 136 679 9 10 2 2 1 FFF1 680 681 682 45 20
 680 .04828157157653597 -.08837882395583038 .01743163365648213 -.105232221853082
1 -.0200373520503878 -.1099713136467772 -.05868447596153251 -.09962306640704689
 -.09152964050123008 -.07407365304942803 -.1117845055979173 -.03699737118499985
 -.1155372774797996 .004445288717096624 -.1033638971112878 .04255690397992024 -.
07913150949658981 .07152542605857867 -.04828157157653597 .08837882395583038 127
 2 681 10 10 128 2 682 .8353981633974481 1.149557428756427 137 683 683 0 2 671 6
85 686 +198 673 0 ?141 684 683 616 670 198 133 685 685 0 117 683 687 0 +683 .22
 -.04828157157653595 -.08837882395583037 .22 .04828157157653595 .088378823955830
37 .8353981633974481 1.149557428756427 141 686 685 686 686 683 137 687 687 0 2 6
85 689 690 +218 678 0 ?141 688 687 652 652 218 133 689 689 0 130 687 0 0 +687 .2
2 .04828157157653597 .08837882395583038 .22 -.04828157157653597 -.08837882395583
038 .8353981633974481 1.149557428756427 141 690 689 690 690 687 81 1 691 691 154
 2 0 0 221 0 692 84 16 692 MechanicalTool.111 693 693 0 1 2 694 1 0 0 0 0 100 69
4 694 693 0 0 1 0 0 0 1 0 0 0 1 0 0 0 1 0 ?81 1 695 695 154 1 0 0 0 0 698 70 696
 696 1 0 0 4 1 20 4 697 697 1 T74 20 697 1 0 695 0 0 0 0 0 0 0 0 0 0 0 0 0 0 0 0
 0 0 0 84 7 698 brut_2D1 0 