**ABCDEFGHIJKLMNOPQRSTUVWXYZabcdefghijklmnopqrstuvwxyz**************************
**PARASOLID !"#$%&'()*+,-./:;<=>?@[\]^_`{|}~0123456789**************************
**PART1;
MC=unknown;
MC_MODEL=unknown;
MC_ID=unknown;
OS=unknown;
OS_RELEASE=unknown;
FRU=sdl_parasolid_customer_support;
APPL=psworkshop;
SITE=unknown;
USER=unknown;
FORMAT=text;
GUISE=transmit;
KEY=C:\Documents and Settings\shaned\My Documents\Visual Studio 2005\Projects\DotNetExampleApplication\DotNetExampleApplication\bin\Debug\bsurf.xmt_txt.x_t;
FILE=C:\documents and settings\shaned\my documents\visual studio 2005\projects\dotnetexampleapplication\dotnetexampleapplication\bin\debug\bsurf.xmt_txt.x_t;
DATE=unknown;
**PART2;
SCH=SCH_1701061_17100;
USFLD_SIZE=0;
**PART3;
**END_OF_HEADER*****************************************************************
T51 : TRANSMIT FILE created by modeller version 170106117 SCH_1700000_161000 12
 1 53 2 3 0 0 0 0 1e3 1e-8 0 0 0 1 0 3 1 4 5 6 7 8 9 10 81 2 2 53 11 1 0 0 0 0 1
2 13 70 3 0 4 T1 0 0 1 20 1 14 14 13 4 2 0 1 0 15 0 0 8 15 124 5 46 0 15 0 0 0 +
16 17 134 6 51 0 9 18 0 0 +19 20 29 7 40 0 10 21 0 .1 0 0 19 8 1 0 1 0 0 4 V16 9
 12 0 ?22 0 23 6 0 0 1 18 10 11 0 24 0 25 7 ?1 17 24 0 0 0 0 10 22 9 0 26 -18 25
 9 0 27 10 28 21 ?1 17 27 0 0 0 0 25 26 23 0 29 -18 28 7 0 30 25 31 32 ?1 29 21
 36 0 25 33 7 .1 .1 .02 29 33 32 0 31 32 21 0 0 0 18 31 6 0 22 28 0 33 ?1 29 32
 30 0 28 0 33 0 .1 .02 17 22 0 34 35 26 31 24 9 0 36 +15 34 4 0 35 15 0 17 35 0
 34 29 22 28 36 37 0 0 +17 26 0 34 22 29 10 27 23 0 0 +17 36 0 0 0 0 31 35 37 0
 0 -16 37 5 0 ?35 38 0 39 0 0 1 16 38 8 0 ?29 23 37 40 0 0 1 134 39 34 0 37 0 40
 0 +41 42 134 40 38 0 38 39 18 0 +43 44 136 41 3 4 3 2 1 FFF1 45 46 47 135 42 2
 0 45 12 45 0 0 0 0 .03 .02 0 .07 .03 0 .1 .02 127 2 46 4 4 128 2 47 0 1 134 18
 49 0 23 40 6 0 +48 49 136 43 3 4 3 2 1 FFF1 50 51 52 135 44 2 0 45 12 50 0 .1 .
02 .03 .1 .015 .07 .1 .015 .1 .1 .02 127 2 51 4 4 128 2 52 0 1 16 23 10 0 ?26 9
 38 18 0 0 1 136 48 3 4 3 2 5 FFF1 53 54 55 135 49 2 0 45 12 53 .1 .1 .02 .1 .07
 .03 .1 .03 .02 .1 0 0 127 2 54 4 4 128 2 55 0 1 17 29 0 34 26 35 25 30 38 0 0 +
17 30 0 0 0 0 28 29 38 0 35 -14 15 3 0 ?0 0 34 4 5 +0 0 0 0 4 136 19 3 4 3 2 5 F
FF1 56 57 58 135 20 2 0 45 12 56 .1 0 0 .07 0 .01 .03 0 .01 0 0 0 127 2 57 4 4 1
28 2 58 0 1 126 16 FF3 3 4 4 5 5 2 2 FFF2 3 59 60 61 62 63 125 17 0 1 0 1 0 1 0
 1 2 BBBBBBBB????0 0 0 0 45 48 59 0 0 0 .03 0 .01 .07 0 .01 .1 0 0 0 .03 .02 .03
 .03 .03 .07 .03 .03 .1 .03 .02 0 .07 .03 .03 .07 .04 .07 .07 .04 .1 .07 .03 0 .
1 .02 .03 .1 .015 .07 .1 .015 .1 .1 .02 127 2 60 4 4 127 2 61 4 4 128 2 62 0 1 1
28 2 63 0 1 74 20 14 1 0 2 0 0 0 0 0 0 0 0 0 0 0 0 0 0 0 0 0 0 0 80 2 11 64 65 9
000 0 0 0 0 3 5 0 0 0 FFTFFFFFFFFFFF2 1 83 24 12 -.485267877578735 .265651136636
734 -.833032429218292 0 -.854305922985077 -.3469566106796265 .387017101049423 0
 -.186214655637741 .899471819400787 .395314633846283 0 0 0 0 1 1 .05 .05 .02 .09
546838090494 0 0 0 82 1 13 0 79 12 65 SDL/ParaView1 0 
