**ABCDEFGHIJKLMNOPQRSTUVWXYZabcdefghijklmnopqrstuvwxyz**************************
**PARASOLID !"#$%&'()*+,-./:;<=>?@[\]^_`{|}~0123456789**************************
**PART1;
MC=x64/Windows NT;
MC_MODEL=genuineintel family 6 model 10 stepping 7, intel(r) core(tm) i5-2500 cpu @ 3.30ghz;
MC_ID=sd18;
OS=windows nt (x64);
OS_RELEASE=6.1 (workstation) (build 7601: service pack 1) ;
FRU=mdc_ugii_v7.0_djl_can_vrh;
APPL=unigraphics;
SITE=unknown;
USER=vidya;
FORMAT=text;
GUISE=transmit;
KEY=Cutting-punch;
FILE=D:\Nagaraj\Cutting-punch.x_t;
DATE=5-may-2014;
**PART2;
SCH=SCH_2500176_25001;
USFLD_SIZE=0;
**PART3;
**END_OF_HEADER*****************************************************************
T51 : TRANSMIT FILE created by modeller version 250017617 SCH_1000000_100040 12
 1 188 2 3 0 0 0 0 1e3 1e-8 0 0 0 1 0 1 1 4 5 6 7 8 9 10 81 1 2 188 11 1 12 0 0
 0 13 70 3 0 1 0 0 4 5 20 8 14 14 1 T13 4 3 0 1 0 15 0 0 16 0 50 5 126 0 15 17 0
 0 +.1 .08 .13 0 1 0 0 0 1 30 6 120 0 18 19 0 0 +.1 .08 .13 -1 0 0 29 7 91 0 20
 21 0 0 .05 .13 19 8 1 0 1 16 0 22 V16 9 101 23 ?24 0 25 19 0 0 1 18 10 25 0 26
 0 27 28 ?1 17 26 29 30 31 10 32 33 0 34 -18 27 20 0 35 10 36 37 ?1 29 28 27 0 1
0 37 38 .1 .05 .13 29 37 22 0 27 39 28 .1 .05 .0487938524157182 29 38 96 0 40 28
 41 0 .08 .13 18 40 82 0 42 43 0 38 ?1 29 41 95 0 43 38 44 0 .08 .03054 18 43 80
 0 24 45 40 41 ?1 29 44 94 0 45 41 46 0 .05 .03 18 45 78 0 47 48 43 44 ?1 29 46
 93 0 48 44 21 0 .04315959713348665 .0487938524157182 18 48 76 0 49 50 45 46 ?1
 29 21 92 0 50 46 7 0 .05 .0487938524157182 18 50 74 0 51 20 48 21 ?1 17 51 52 5
3 54 50 35 55 0 56 +18 20 72 0 32 57 50 7 ?1 17 32 58 56 34 20 26 33 0 31 +18 57
 2 0 59 60 20 61 ?1 17 59 62 63 64 57 42 18 0 30 -18 60 5 0 65 66 57 67 ?1 29 61
 4 0 57 0 67 .1 .08 .13 29 67 7 0 60 61 68 .1 .08 .03054 29 68 12 0 66 67 39 .1
 .05 .03 18 66 10 0 69 36 60 68 ?1 29 39 17 0 36 68 37 .1 .04315959713348665 .04
87938524157182 18 36 15 0 70 27 66 39 ?1 17 70 52 54 53 36 49 71 0 72 -15 52 107
 0 53 73 0 17 54 52 51 70 27 74 75 0 76 +17 53 52 70 51 48 77 78 0 79 -17 49 80
 81 72 48 70 71 0 53 +16 71 99 82 ?49 25 55 83 0 0 1 17 72 80 49 69 36 84 85 0 7
4 +15 80 109 0 81 86 0 17 69 80 72 81 66 47 25 0 87 -17 84 88 89 74 66 72 85 0 0
 -16 85 16 90 ?72 75 91 92 0 0 1 17 74 88 84 76 36 54 75 0 0 -15 88 33 0 93 94 0
 17 76 88 74 95 27 34 96 0 0 -16 75 21 97 ?54 96 85 98 0 0 1 81 1 97 165 99 75 0
 0 100 101 102 16 96 26 103 ?34 104 75 105 0 0 1 30 98 24 0 75 92 105 0 +.1 .043
15959713348665 .0487938524157182 0 1 0 30 92 19 0 85 106 98 0 +.1 .05 .03 0 -.34
2020143325667 .939692620785909 30 105 29 0 96 98 107 0 +.1 .05 .0487938524157182
 0 0 1 30 107 32 0 104 105 108 0 +.1 .05 .13 0 1 0 16 104 30 109 ?30 18 96 107 0
 0 1 30 108 90 0 110 107 111 0 +0 .08 .13 0 0 -1 16 110 70 112 ?113 114 0 108 0
 0 1 30 111 89 0 114 108 115 0 +0 .08 .03054 0 -.999838039355374 -.0179970847083
968 16 114 68 101 ?116 117 110 111 0 0 1 30 115 88 0 117 111 118 0 +0 .05 .03 0
 -.342020143325667 .939692620785909 16 117 66 119 ?79 78 114 115 0 0 1 30 118 87
 0 78 115 120 0 +0 .04315959713348665 .0487938524157182 0 1 0 16 78 64 121 ?77 1
22 117 118 0 0 1 30 120 86 0 122 118 123 0 +0 .05 .0487938524157182 0 0 1 16 122
 62 124 ?125 126 78 120 0 0 1 30 123 85 0 126 120 127 0 +0 .05 .13 0 1 0 16 126
 60 100 ?128 129 122 123 0 0 1 30 127 115 0 33 123 130 0 +.1 .05 .13 -1 0 0 16 3
3 97 131 ?32 55 18 127 0 0 1 30 130 116 0 55 127 83 0 +.1 .05 .0487938524157182
 -1 0 0 16 55 98 132 ?51 71 33 130 0 0 1 30 83 117 0 71 130 133 0 +.1 .043159597
13348665 .0487938524157182 -1 0 0 30 133 118 0 25 83 19 0 +.1 .05 .03 -1 0 0 16
 25 100 134 ?47 9 71 133 0 0 1 30 19 119 0 9 133 6 0 +.1 .08 .03054 -1 0 0 81 1
 134 167 99 25 0 0 101 135 136 17 47 137 138 87 45 69 25 0 81 +15 137 111 0 138
 139 0 17 138 137 65 47 43 116 114 0 113 -17 87 137 47 65 66 89 91 0 84 +17 81 8
0 69 49 45 79 117 0 116 -17 79 140 77 116 48 81 117 0 0 +17 116 140 79 113 45 13
8 114 0 0 +15 140 59 0 113 141 0 17 113 140 116 128 43 64 110 0 0 +17 128 140 11
3 125 40 31 126 0 64 +17 64 62 59 24 40 113 110 0 0 -15 62 113 0 64 15 0 17 24 6
2 64 63 43 65 9 0 138 +17 63 62 24 59 60 93 129 0 0 +17 65 137 87 138 60 24 9 0
 89 -17 89 88 93 84 60 87 91 0 63 -17 93 88 95 89 57 63 129 0 0 -16 91 11 135 ?8
7 85 129 106 0 0 1 81 1 135 168 99 91 0 0 134 23 142 16 129 6 143 ?63 91 126 144
 0 0 1 30 106 14 0 91 144 92 0 +.1 .08 .03054 0 -.999838039355374 -.017997084708
3968 30 144 9 0 129 0 106 0 +.1 .08 .13 0 0 -1 81 1 143 162 99 129 0 0 119 82 14
5 80 1 99 146 147 9000 1 1 1 1 1 1 1 1 FFFFTFTFFFFFF3 81 1 119 161 99 117 0 0 12
1 143 148 81 1 82 163 99 71 0 0 143 100 149 84 32 145 823bb6f9d0015bd9e8cf44ccfa
4d997881 1 100 164 99 126 0 0 82 97 150 84 32 149 7c6f60a92c660e6ba082fb3747038c
d584 32 150 2e666c9515bcae936348449a9497508581 1 121 160 99 78 0 0 124 119 151 8
4 32 148 d6f39ed86e92ed0f6476d108d138062181 1 124 159 99 122 0 0 131 121 152 84
 32 151 dfe3b2be7980846b2094de7a37f1157b81 1 131 158 99 33 0 0 112 124 153 84 32
 152 3e9a36f99ae9263dc456143c2acf84f481 1 112 157 99 110 0 0 90 131 154 84 32 15
3 fd7653b247b9d3b1448ea54b13cbcf9981 1 90 156 99 85 0 0 103 112 155 84 32 154 0b
9a2ecf72dde596bc1975daef7f0fa081 1 103 155 99 96 0 0 109 90 156 84 32 155 b4cd94
0fd592ba3a7d64b9396e31476c81 1 109 154 99 104 0 0 157 103 158 84 32 156 2bcdcefb
5d564baa87ef7705f993d75081 1 157 153 99 18 0 0 132 109 159 84 32 158 865c8065067
0ac909a2d510c497083ec16 18 102 157 ?42 33 104 6 0 0 1 81 1 132 152 99 55 0 0 0 1
57 160 84 32 159 fc2384803e72568a8976752c787078e584 32 160 c0651fb75bb618fdd73a3
02980d3b59317 42 29 31 30 40 59 18 0 128 +15 29 103 0 31 161 0 17 31 29 26 42 20
 128 126 0 125 -17 30 29 42 26 57 95 104 0 93 +17 95 88 76 93 10 30 104 0 0 -17
 125 140 128 77 20 56 122 0 0 +17 77 140 125 79 50 53 78 0 0 +17 56 58 35 32 50
 125 122 0 77 -15 58 105 0 56 162 0 17 35 58 34 56 27 51 55 0 54 -17 34 58 32 35
 10 76 96 0 95 +14 162 106 163 ?161 73 58 4 164 +0 0 161 73 22 81 1 163 184 165
 162 166 0 167 168 169 14 161 104 168 ?94 162 29 4 170 +0 0 94 162 22 14 73 108
 167 ?162 86 52 4 171 +0 0 162 86 22 50 164 122 0 162 170 171 0 +.1 .05 .0487938
524157182 0 -1 0 0 0 -1 13 22 127 0 0 0 0 0 0 8 15 14 15 114 172 ?139 0 62 4 5 +
0 0 139 0 22 81 1 172 180 165 15 173 0 0 174 175 14 139 112 174 ?86 15 137 4 17
 +0 0 86 15 22 81 1 174 181 165 139 176 0 172 177 178 14 86 110 177 ?73 139 80 4
 179 +0 0 73 139 22 50 17 125 0 139 179 5 0 +.1 .08 .03054 0 .0179970847083968 -
.999838039355374 0 .999838039355374 .0179970847083968 50 179 124 0 86 171 17 0 +
.1 .05 .03 0 -.939692620785909 -.342020143325667 0 .342020143325667 -.9396926207
85909 50 171 123 0 73 164 179 0 +.1 .04315959713348665 .0487938524157182 0 0 1 1
 0 0 81 1 177 182 165 86 180 0 174 167 181 80 1 165 0 182 8001 0 0 0 0 3 5 0 0 F
FFFTFTFFFFFF2 81 1 180 173 99 86 0 177 173 183 184 81 1 167 183 165 73 185 0 177
 163 186 83 3 181 .5960784 .6666667 .6862745 81 1 185 170 99 73 0 167 23 187 188
 83 3 186 .5960784 .6666667 .6862745 81 1 23 169 99 9 0 0 135 185 189 81 1 187 1
71 99 94 0 190 185 173 191 84 32 188 a2210a7e60bf02b8729c29585bc7f68c14 94 34 19
0 ?141 161 88 4 192 +0 0 141 161 22 81 1 190 186 165 94 187 0 168 193 194 81 1 1
73 172 99 15 0 172 187 180 195 84 32 191 19f748f07f917ed28adcc72e91c27bd484 32 1
95 e79af6e333da920ddab8867733fa4cb981 1 168 185 165 161 196 0 163 190 197 81 1 1
93 187 165 141 183 0 190 0 198 83 3 194 .5960784 .6666667 .6862745 14 141 56 193
 ?0 94 140 4 199 -0 0 0 94 22 81 1 183 174 99 141 0 193 180 166 200 83 3 198 .59
60784 .6666667 .6862745 81 1 166 175 99 162 0 163 183 196 201 84 32 200 098b0641
545b557e79e425a90ae1fb1c81 1 196 176 99 161 0 168 166 176 202 84 32 201 4b565319
67de44e6762cf8c922d5394a81 1 176 177 99 139 0 174 196 0 203 84 32 202 504dea1e62
b1fecf3fef7dd765820e7584 32 203 9fcd0e9184db9cc16ccd2fc74a3bd93950 199 84 0 141
 192 170 0 +0 0 0 1 0 0 0 0 -1 50 192 35 0 94 0 199 0 +.1 0 0 1 0 0 0 0 -1 50 17
0 121 0 161 199 164 0 +.1 .05 .13 0 0 1 1 0 0 83 3 197 .5960784 .6666667 .686274
5 84 32 189 3c8468c752966ba0cf13b3bd6dd1c18d84 32 184 ec970427e9b3217abf2a1a0e3d
54907a79 15 182 SDL/TYSA_COLOUR83 3 178 .5960784 .6666667 .6862745 83 3 175 .596
0784 .6666667 .6862745 83 3 169 .5960784 .6666667 .6862745 79 15 147 UGS/ObjectS
tate84 32 142 f2268ae4b80cb84fa9d2f0f3a86a6bfe81 1 101 166 99 114 0 0 97 134 204
 84 32 136 35369ae172d96e2abda5e1fc73e09d0484 32 204 b0e66f12dabb7fa1607366e4604
eb89084 32 102 ca95de678361320b18f59b4e5056e8a519 16 128 0 1 0 8 4 S74 20 14 5 0
 176 205 12 193 2 0 0 0 0 0 0 0 0 0 0 0 0 0 0 0 81 2 205 178 206 1 0 12 0 0 207
 208 81 1 12 179 146 1 205 2 0 0 209 80 1 146 210 211 9000 0 0 0 0 3 5 0 0 FFTFF
FFFFFFFF1 82 1 209 8 79 7 211 body_id80 2 206 212 213 8004 0 0 0 0 3 5 0 0 FFTFF
FFFFFFFF2 3 83 1 207 7830.64 84 8 208 Kg/Cu M 79 16 213 SDL/TYSA_DENSITY80 1 11
 214 215 9000 0 0 0 0 3 5 0 0 FFTFFFFFFFFFF1 82 1 13 129 79 24 215 UG2/BODY_COLO
R_ATTRIBUTE1 0 
