**ABCDEFGHIJKLMNOPQRSTUVWXYZabcdefghijklmnopqrstuvwxyz**************************
**PARASOLID !"#$%&'()*+,-./:;<=>?@[\]^_`{|}~0123456789**************************
**PART1;
MC=x64/Windows NT;
MC_MODEL=genuineintel family 6 model 14 stepping 5, intel(r) core(tm) i5 cpu         760  @ 2.80ghz;
MC_ID=ds77;
OS=windows nt (x64);
OS_RELEASE=5.2 (workstation) (build 3790: service pack 2) ;
FRU=mdc_ugii_v7.0_djl_can_vrh;
APPL=unigraphics;
SITE=unknown;
USER=autoform;
FORMAT=text;
GUISE=transmit;
KEY=Cutting-punch2;
FILE=D:\WorkPiece\Cutting-punch2.x_t;
DATE=5-may-2014;
**PART2;
SCH=SCH_2201175_20000;
USFLD_SIZE=0;
**PART3;
**END_OF_HEADER*****************************************************************
T51 : TRANSMIT FILE created by modeller version 220117517 SCH_1000000_100040 12
 1 271 2 3 0 0 0 0 1e3 1e-8 0 4 0 1 0 1 1 5 6 7 8 9 10 11 81 2 2 255 12 1 13 0 0
 0 14 0 70 3 0 1 0 0 4 9 20 8 15 15 1 T13 5 3 0 1 0 16 0 0 17 0 50 6 243 0 18 19
 0 0 +.1 .05 .03 0 .1045284632676534 -.994521895368273 0 .994521895368273 .10452
84632676534 30 7 242 0 10 20 0 0 +.1 .08 .0331531270579703 -1 0 0 29 8 239 0 21
 22 0 0 .08 .0331531270579703 19 9 1 0 1 17 0 23 V16 10 101 0 ?24 0 25 7 0 0 1 1
8 11 25 0 26 0 27 28 ?1 17 26 29 30 31 11 32 33 0 34 -18 27 20 0 35 11 36 37 ?1
 29 28 224 0 11 38 39 .05 .05 .08 29 38 223 0 40 41 28 .05 .08 .08 29 39 225 0 4
2 28 22 0 .05 .08 18 42 72 0 32 40 43 39 ?1 29 22 238 0 44 39 8 .05 .08 .0331531
270579703 18 44 5 0 45 46 40 22 ?1 17 45 47 48 49 44 24 10 0 50 -18 46 10 0 51 3
6 44 52 ?1 18 40 2 0 53 44 42 38 ?1 17 53 54 55 56 40 57 58 0 30 -15 54 113 0 56
 16 0 17 55 54 24 53 44 59 60 0 0 +17 56 54 53 24 61 62 63 0 0 -17 57 29 31 30 6
1 53 58 0 64 +16 58 102 0 ?57 33 65 66 0 0 1 17 30 29 57 26 40 67 65 0 59 +15 29
 103 0 31 68 0 17 67 69 70 59 11 30 65 0 0 -16 65 30 0 ?30 58 71 72 0 0 1 17 59
 69 67 50 40 55 60 0 0 -15 69 33 0 59 73 0 17 50 69 59 74 44 48 75 0 55 -16 60 6
 0 ?55 75 76 77 0 0 1 16 75 11 0 ?48 78 60 20 0 0 1 16 76 60 0 ?64 60 79 80 0 0
 1 30 77 210 0 60 81 82 0 +.05 .08 .13 0 0 -1 30 81 118 0 25 83 77 0 +.1 .05 .03
 -1 0 0 30 82 212 0 78 77 84 0 +.05 .05 .03 0 -.342020143325667 .939692620785909
 16 78 16 0 ?85 86 75 82 0 0 1 30 84 213 0 86 82 87 0 +.05 .04315959713348665 .0
487938524157182 0 1 0 16 86 21 0 ?88 71 78 84 0 0 1 30 87 214 0 71 84 80 0 +.05
 .05 .0487938524157182 0 0 1 16 71 26 0 ?34 65 86 87 0 0 1 30 80 226 0 76 87 66
 0 +0 .05 .08 0 1 0 30 66 227 0 58 80 72 0 +.1 .08 .08 -1 0 0 30 72 228 0 65 66
 89 0 +.05 .05 .08 0 1 0 30 89 229 0 33 72 90 0 +.1 .05 .08 -1 0 0 16 33 97 0 ?3
2 91 58 89 0 0 1 30 90 240 0 92 89 20 0 +0 .05 .03 0 -.994521895368273 -.1045284
632676534 16 92 68 0 ?93 94 63 90 0 0 1 30 20 241 0 75 90 7 0 +.05 .05 .03 0 -.9
94521895368273 -.1045284632676534 17 93 95 96 62 97 49 92 0 0 +16 94 66 98 ?96 9
9 92 100 0 0 1 16 63 70 0 ?62 92 0 101 0 0 1 17 62 95 93 64 21 56 63 0 0 +30 101
 90 0 63 0 100 0 +0 .08 .13 0 0 -1 30 100 88 0 94 101 102 0 +0 .05 .03 0 -.34202
0143325667 .939692620785909 30 102 87 0 99 100 103 0 +0 .04315959713348665 .0487
938524157182 0 1 0 16 99 64 104 ?105 79 94 102 0 0 1 30 103 86 0 79 102 106 0 +0
 .05 .0487938524157182 0 0 1 16 79 62 0 ?107 76 99 103 0 0 1 30 106 116 0 91 103
 83 0 +.1 .05 .0487938524157182 -1 0 0 16 91 98 0 ?108 109 33 106 0 0 1 30 83 11
7 0 109 106 81 0 +.1 .04315959713348665 .0487938524157182 -1 0 0 16 109 99 0 ?11
0 25 91 83 0 0 1 17 110 111 112 85 113 114 109 0 115 +16 25 100 0 ?116 10 109 81
 0 0 1 17 116 47 49 48 97 51 25 0 112 +15 47 111 0 49 18 0 17 49 47 45 116 21 93
 92 0 62 -17 48 47 116 45 46 50 75 0 74 +18 97 78 0 116 113 21 117 ?1 17 51 111
 85 112 46 116 25 0 48 -17 112 111 51 110 97 96 94 0 93 -15 111 109 0 112 118 0
 17 96 95 105 93 113 112 94 0 0 +15 95 59 0 62 119 0 17 105 95 107 96 43 115 99
 0 0 +18 113 76 0 110 43 97 120 ?1 18 43 74 0 108 42 113 121 ?1 29 120 93 0 113
 117 121 0 .04315959713348665 .0487938524157182 29 117 94 0 97 0 120 0 .05 .03 2
9 121 92 0 43 120 52 0 .05 .0487938524157182 29 52 205 0 46 121 122 .05 .05 .03
 29 122 206 0 36 52 37 .05 .04315959713348665 .0487938524157182 18 36 15 0 114 2
7 46 122 ?1 29 37 207 0 27 122 41 .05 .05 .0487938524157182 29 41 222 0 61 37 38
 0 .08 .08 18 61 82 0 57 21 0 41 ?1 18 21 80 0 24 97 61 8 ?1 17 24 54 56 55 21 4
5 10 0 49 +17 114 123 88 115 36 110 109 0 85 -15 123 107 0 115 124 0 17 88 123 1
08 114 27 125 86 0 70 +17 115 123 114 108 113 105 99 0 96 -17 85 111 110 51 36 7
4 78 0 125 +17 74 69 50 125 46 85 78 0 0 -17 125 69 74 70 36 88 86 0 0 -17 70 69
 125 67 27 34 71 0 0 -17 34 126 32 35 11 70 71 0 67 +15 126 105 0 127 128 0 17 3
2 126 127 34 42 26 33 0 31 +17 35 126 34 127 27 108 91 0 88 -17 127 126 35 32 43
 107 79 0 105 -17 108 123 115 88 43 35 91 0 127 +17 107 95 64 105 42 127 79 0 0
 +17 64 95 62 107 61 31 76 0 56 +17 31 29 26 57 42 64 76 0 107 -14 128 106 129 ?
68 124 126 5 130 +0 0 68 124 23 81 1 129 265 131 128 132 0 133 134 135 14 68 104
 134 ?73 128 29 5 19 +0 0 73 128 23 14 124 108 133 ?128 118 123 5 136 +0 0 128 1
18 23 50 130 122 0 128 137 136 0 +.1 .05 .0487938524157182 0 -1 0 0 0 -1 13 23 1
27 0 0 0 0 0 0 9 16 14 16 114 138 ?18 0 54 5 139 +0 0 18 0 23 81 1 138 257 131 1
6 140 0 0 141 142 14 18 112 141 ?118 16 47 5 6 +0 0 118 16 23 50 139 126 0 16 14
3 144 0 +.1 .08 .13 0 1 0 0 0 1 50 143 124 0 118 136 139 0 +.1 .05 .03 0 -.93969
2620785909 -.342020143325667 0 .342020143325667 -.939692620785909 50 144 203 0 7
3 139 19 0 +.05 0 0 1 0 0 0 0 -1 14 73 34 145 ?119 68 69 5 144 +0 0 119 68 23 50
 19 221 0 68 144 6 0 +.1 .05 .08 0 0 1 1 0 0 81 1 145 269 131 73 146 0 134 147 1
48 14 119 56 147 ?0 73 95 5 137 -0 0 0 73 23 81 1 147 271 131 119 149 0 145 0 15
0 50 137 84 0 119 0 130 0 +0 0 0 1 0 0 0 0 -1 80 1 131 0 151 8001 0 0 0 0 3 5 0
 0 FFFFTFTFFFFFF2 81 1 149 270 152 119 153 147 146 0 154 83 3 150 .5960784 .6666
667 .6862745 80 1 152 155 156 8015 0 0 0 0 3 5 0 0 FFFFTFFFFFFFF2 81 3 153 253 1
57 119 0 149 158 0 159 160 0 81 1 146 268 152 73 158 145 161 149 162 83 1 154 0
 81 3 158 252 157 73 0 146 163 153 164 165 0 81 1 161 266 152 68 163 134 132 146
 166 83 1 162 0 81 3 163 251 157 68 0 161 167 158 168 169 0 81 1 134 267 131 68
 161 0 129 145 170 81 1 132 264 152 128 167 129 171 161 172 83 1 166 0 81 3 167
 250 157 128 0 132 173 163 174 175 0 81 1 171 262 152 124 173 133 176 132 177 83
 1 172 0 81 3 173 249 157 124 0 171 178 167 179 180 0 81 1 133 263 131 124 171 0
 181 129 182 81 1 176 260 152 118 178 181 183 171 184 83 1 177 0 14 118 110 181
 ?124 18 111 5 143 +0 0 124 18 23 81 3 178 248 157 118 0 176 185 173 186 187 0 8
1 1 181 261 131 118 176 0 141 133 188 81 1 183 258 152 18 185 141 140 176 189 83
 1 184 0 81 3 185 247 157 18 0 183 190 178 191 192 0 81 1 141 259 131 18 183 0 1
38 181 193 81 1 140 256 152 16 190 138 0 183 194 83 1 189 0 81 3 190 246 157 16
 0 140 0 185 195 196 0 83 1 194 0 80 3 157 197 198 9000 0 0 0 0 3 6 0 0 FFFFTFTT
FFFFF1 1 3 82 1 195 0 82 1 196 33 79 27 198 MONIKER/MONIKER_DATA_ATTRIB83 3 193
 .5960784 .6666667 .6862745 82 1 191 0 82 1 192 34 83 3 188 .5960784 .6666667 .6
862745 82 1 186 0 82 1 187 35 83 3 182 .5960784 .6666667 .6862745 82 1 179 0 82
 1 180 36 82 1 174 0 82 1 175 37 83 3 170 .5960784 .6666667 .6862745 82 1 168 0
 82 1 169 38 82 1 164 0 82 1 165 39 82 1 159 0 82 1 160 40 79 21 156 SDL/TYSA_TR
ANSLUCENCY79 15 151 SDL/TYSA_COLOUR83 3 148 .5960784 .6666667 .6862745 50 136 12
3 0 124 130 143 0 +.1 .04315959713348665 .0487938524157182 0 0 1 1 0 0 83 3 142
 .5960784 .6666667 .6862745 83 3 135 .5960784 .6666667 .6862745 81 1 104 160 199
 99 0 0 0 98 200 80 1 199 201 202 9000 1 1 1 1 1 1 1 1 FFFFTFTFFFFFF3 81 1 98 16
1 199 94 0 0 104 0 203 84 32 200 dfe3b2be7980846b2094de7a37f1157b84 32 203 d6f39
ed86e92ed0f6476d108d138062179 15 202 UGS/ObjectState19 17 128 0 1 0 9 5 S74 20 1
5 9 0 98 204 147 205 206 153 13 2 149 0 0 0 0 0 0 0 0 0 0 0 81 1 204 179 207 1 0
 205 0 0 208 81 1 205 188 209 1 204 206 0 0 210 81 2 206 245 211 1 205 13 0 0 21
2 213 81 3 13 254 214 1 206 2 0 0 215 216 217 80 3 214 157 218 9000 0 0 0 0 3 6
 0 0 FFTFFFFFFFFFF3 3 1 84 38 215 {7b249198-9198-4393-a762-f626205ff542}84 20 21
6 NX 7.5.0.32-autoform82 1 217 0 79 25 218 MONIKER/GUID_TABLE_ATTRIB80 2 211 219
 220 8004 0 0 0 0 3 5 0 0 FFTFFFFFFFFFF2 3 83 1 212 7830.64 84 8 213 Kg/Cu M 79
 16 220 SDL/TYSA_DENSITY80 1 209 199 221 9000 0 0 0 0 3 5 0 0 FFTFFFFFFFFFF1 82
 1 210 129 79 24 221 UG2/BODY_COLOR_ATTRIBUTE80 1 207 222 223 9000 0 0 0 0 3 5 0
 0 FFTFFFFFFFFFF1 82 1 208 8 79 7 223 body_id80 2 12 214 224 9000 2 2 2 2 3 6 0
 0 FFTFFFFFFFFFF2 3 83 1 14 739 79 22 224 MONIKER/BODY_ID_ATTRIB1 0 
