**ABCDEFGHIJKLMNOPQRSTUVWXYZabcdefghijklmnopqrstuvwxyz**************************
**PARASOLID !"#$%&'()*+,-./:;<=>?@[\]^_`{|}~0123456789**************************
**PART1;
MC=Intel x86;
MC_MODEL=Level 6 Model 15 Stepping 6;
MC_ID=ESD34;
OS=Windows XP;
OS_RELEASE=Build 2600 Service Pack 3.0;
FRU=PRO/INTERFACE BY PTC, 2011220;
APPL=PRO/ENGINEER BY PTC, 2011220;
SITE=;
USER=proe;
FORMAT=text;
GUISE=transmit;
KEY=MM;
FILE=mm.x_t;
DATE=04-28-2014;
**PART2;
SCH=SCH_1000149_10004;
USFLD_SIZE=0;
**PART3;
**END_OF_HEADER*****************************************************************
T51 : TRANSMIT FILE created by modeller version 100014917 SCH_1000149_100040 12
 1 147 5 7 0 0 0 0 1e3 1e-8 0 0 0 1 0 1 1 38 207 37 80 41 205 81 79 13 2 SDL/TYS
A_NAME80 1 3 0 2 8017 0 0 0 0 0 0 0 0 TTTTTTTTTTTTT3 84 2 4 MM81 1 5 1 3 1 0 0
 0 0 4 74 20 6 1 0 5 0 0 0 0 0 0 0 0 0 0 0 0 0 0 0 0 0 0 0 70 7 0 1 0 0 4 1 20
 4 6 6 1 T30 8 2 0 85 0 9 0 +0e0 0e0 0e0 1e0 0e0 0e0 30 9 3 0 87 8 10 0 +1e-1
 0e0 0e0 0e0 1e0 0e0 30 10 4 0 89 9 11 0 +1e-1 1e-1 0e0 -1e0 0e0 0e0 30 11 5 0
 91 10 12 0 +0e0 1e-1 0e0 0e0 -1e0 0e0 31 12 6 0 94 11 13 0 +
8.06968665173469e-2 8.33252999679116e-2 0e0 0e0 0e0 -1e0 1e0 0e0 0e0 5e-3 31 13
 7 0 96 12 14 0 +8.06968665173469e-2 8.33252999679116e-2 0e0 0e0 0e0 -1e0 -1e0
 0e0 0e0 5e-3 31 14 8 0 99 13 15 0 +5.03056047451940e-2 4.98127734732133e-2 0e0
 0e0 0e0 -1e0 1e0 0e0 0e0 1.25e-2 31 15 9 0 101 14 16 0 +5.03056047451940e-2
 4.98127734732133e-2 0e0 0e0 0e0 -1e0 -1e0 0e0 0e0 1.25e-2 31 16 10 0 104 15 17
 0 +1.46574760719119e-2 1.66288011598355e-2 0e0 0e0 0e0 -1e0 1e0 0e0 0e0 2.5e-3
 31 17 11 0 106 16 18 0 +1.46574760719119e-2 1.66288011598355e-2 0e0 0e0 0e0
 -1e0 -1e0 0e0 0e0 2.5e-3 30 18 12 0 112 17 19 0 +0e0 0e0 0e0 0e0 0e0 1e0 30 19
 13 0 122 18 20 0 +0e0 1e-1 0e0 0e0 0e0 1e0 30 20 14 0 131 19 21 0 +1e-1 1e-1
 0e0 0e0 0e0 1e0 30 21 15 0 116 20 22 0 +1e-1 0e0 0e0 0e0 0e0 1e0 30 22 16 0
 114 21 23 0 +0e0 0e0 2e-2 1e0 0e0 0e0 30 23 17 0 124 22 24 0 +0e0 1e-1 2e-2
 0e0 -1e0 0e0 30 24 18 0 133 23 25 0 +1e-1 1e-1 2e-2 -1e0 0e0 0e0 30 25 19 0
 141 24 26 0 +1e-1 0e0 2e-2 0e0 1e0 0e0 31 26 20 0 152 25 27 0 +
8.06968665173469e-2 8.33252999679116e-2 2e-2 0e0 0e0 -1e0 1e0 0e0 0e0 5e-3 31
 27 21 0 154 26 28 0 +8.06968665173469e-2 8.33252999679116e-2 2e-2 0e0 0e0 -1e0
 -1e0 0e0 0e0 5e-3 31 28 22 0 157 27 29 0 +5.03056047451940e-2
 4.98127734732133e-2 2e-2 0e0 0e0 -1e0 1e0 0e0 0e0 1.25e-2 31 29 23 0 159 28 30
 0 +5.03056047451940e-2 4.98127734732133e-2 2e-2 0e0 0e0 -1e0 -1e0 0e0 0e0
 1.25e-2 31 30 24 0 162 29 31 0 +1.46574760719119e-2 1.66288011598355e-2 2e-2
 0e0 0e0 -1e0 1e0 0e0 0e0 2.5e-3 31 31 25 0 164 30 32 0 +1.46574760719119e-2
 1.66288011598355e-2 2e-2 0e0 0e0 -1e0 -1e0 0e0 0e0 2.5e-3 30 32 26 0 170 31 33
 0 +8.56968665173469e-2 8.33252999679116e-2 0e0 0e0 0e0 1e0 30 33 27 0 173 32
 34 0 +7.56968665173469e-2 8.33252999679116e-2 0e0 0e0 0e0 1e0 30 34 28 0 186
 33 35 0 +6.28056047451940e-2 4.98127734732133e-2 0e0 0e0 0e0 1e0 30 35 29 0
 189 34 36 0 +3.78056047451940e-2 4.98127734732133e-2 0e0 0e0 0e0 1e0 30 36 30
 0 202 35 37 0 +1.71574760719119e-2 1.66288011598355e-2 0e0 0e0 0e0 1e0 30 37
 31 0 205 36 0 0 +1.21574760719119e-2 1.66288011598355e-2 0e0 0e0 0e0 1e0 13 38
 32 0 1 0 208 0 0 39 0 19 39 147 0 1 0 41 38 S13 40 33 0 0 0 0 0 0 41 208 19 41
 34 0 1 39 0 40 V29 42 35 0 43 0 44 8.56968665173469e-2 8.33252999679116e-2 0e0
 18 43 36 0 178 45 0 42 ?1 29 44 37 0 45 42 46 7.56968665173469e-2
 8.33252999679116e-2 0e0 18 45 38 0 179 47 43 44 ?1 29 46 39 0 47 44 48
 6.28056047451940e-2 4.98127734732133e-2 0e0 18 47 40 0 194 49 45 46 ?1 29 48
 41 0 49 46 50 3.78056047451940e-2 4.98127734732133e-2 0e0 18 49 42 0 195 51 47
 48 ?1 29 50 43 0 51 48 52 1.71574760719119e-2 1.66288011598355e-2 0e0 18 51 44
 0 210 53 49 50 ?1 29 52 45 0 53 50 54 1.21574760719119e-2 1.66288011598355e-2
 0e0 18 53 46 0 211 55 51 52 ?1 29 54 47 0 55 52 56 0e0 0e0 0e0 18 55 48 0 121
 57 53 54 ?1 29 56 49 0 57 54 58 1e-1 0e0 0e0 18 57 50 0 140 59 55 56 ?1 29 58
 51 0 59 56 60 1e-1 1e-1 0e0 18 59 52 0 139 61 57 58 ?1 29 60 53 0 61 58 62 0e0
 1e-1 0e0 18 61 54 0 130 63 59 60 ?1 29 62 55 0 63 60 64 8.56968665173469e-2
 8.33252999679116e-2 2e-2 18 63 56 0 181 65 61 62 ?1 29 64 57 0 65 62 66
 7.56968665173469e-2 8.33252999679116e-2 2e-2 18 65 58 0 180 67 63 64 ?1 29 66
 59 0 67 64 68 6.28056047451940e-2 4.98127734732133e-2 2e-2 18 67 60 0 197 69
 65 66 ?1 29 68 61 0 69 66 70 3.78056047451940e-2 4.98127734732133e-2 2e-2 18
 69 62 0 196 71 67 68 ?1 29 70 63 0 71 68 72 1.71574760719119e-2
 1.66288011598355e-2 2e-2 18 71 64 0 213 73 69 70 ?1 29 72 65 0 73 70 74
 1.21574760719119e-2 1.66288011598355e-2 2e-2 18 73 66 0 212 75 71 72 ?1 29 74
 67 0 75 72 76 0e0 0e0 2e-2 18 75 68 0 148 77 73 74 ?1 29 76 69 0 77 74 78 1e-1
 0e0 2e-2 18 77 70 0 147 79 75 76 ?1 29 78 71 0 79 76 80 1e-1 1e-1 2e-2 18 79
 72 0 150 81 77 78 ?1 29 80 73 0 81 78 0 0e0 1e-1 2e-2 18 81 74 0 149 0 79 80 ?
1 50 82 75 0 83 0 108 0 +0e0 0e0 0e0 0e0 0e0 1e0 1e0 0e0 0e0 14 83 76 0 ?0 109
 103 38 82 -0 0 0 109 40 15 84 77 0 92 83 0 16 85 78 0 ?111 87 0 8 0 0 1 17 86
 84 92 88 55 111 85 0 0 -16 87 79 0 ?139 89 85 9 0 0 1 17 88 84 86 90 57 139 87
 0 0 -16 89 80 0 ?130 91 87 10 0 0 1 17 90 84 88 92 59 130 89 0 0 -16 91 81 0 ?
121 94 89 11 0 0 1 17 92 84 90 86 61 121 91 0 0 -15 93 82 0 97 83 84 16 94 83 0
 ?169 96 91 12 0 0 1 17 95 93 97 97 43 169 94 0 0 -16 96 84 0 ?178 99 94 13 0 0
 1 17 97 93 95 95 45 178 96 0 0 -15 98 85 0 102 83 93 16 99 86 0 ?185 101 96 14
 0 0 1 17 100 98 102 102 47 185 99 0 0 -16 101 87 0 ?194 104 99 15 0 0 1 17 102
 98 100 100 49 194 101 0 0 -15 103 88 0 107 83 98 16 104 89 0 ?201 106 101 16 0
 0 1 17 105 103 107 107 51 201 104 0 0 -16 106 90 0 ?210 112 104 17 0 0 1 17
 107 103 105 105 53 210 106 0 0 -50 108 91 0 109 82 118 0 +0e0 0e0 0e0 0e0 -1e0
 0e0 1e0 0e0 0e0 14 109 92 0 ?83 119 110 38 108 +0 0 83 119 40 15 110 93 0 117
 109 0 17 111 110 117 113 57 86 85 0 88 +16 112 94 0 ?126 114 106 18 0 0 1 17
 113 110 111 115 55 126 112 0 86 -16 114 95 0 ?147 116 112 22 0 0 1 17 115 110
 113 117 75 147 114 0 0 -16 116 96 0 ?117 122 114 21 0 0 1 17 117 110 115 111
 77 140 116 0 0 +50 118 97 0 119 108 127 0 +0e0 1e-1 0e0 -1e0 0e0 0e0 0e0 -1e0
 0e0 14 119 98 0 ?109 128 120 38 118 +0 0 109 128 40 15 120 99 0 126 119 0 17
 121 120 126 123 55 92 91 0 113 +16 122 100 0 ?135 124 116 19 0 0 1 17 123 120
 121 125 61 135 122 0 92 -16 124 101 0 ?148 131 122 23 0 0 1 17 125 120 123 126
 81 148 124 0 0 -17 126 120 125 121 75 113 112 0 115 +50 127 102 0 128 118 136
 0 +1e-1 1e-1 0e0 0e0 1e0 0e0 -1e0 0e0 0e0 14 128 103 0 ?119 137 129 38 127 +0
 0 119 137 40 15 129 104 0 135 128 0 17 130 129 135 132 61 90 89 0 123 +16 131
 105 0 ?143 133 124 20 0 0 1 17 132 129 130 134 59 143 131 0 90 -16 133 106 0 ?
149 141 131 24 0 0 1 17 134 129 132 135 79 149 133 0 0 -17 135 129 134 130 81
 123 122 0 125 +50 136 107 0 137 127 144 0 +1e-1 0e0 0e0 1e0 0e0 0e0 0e0 1e0
 0e0 14 137 108 0 ?128 145 138 38 136 +0 0 128 145 40 15 138 109 0 143 137 0 17
 139 138 143 140 59 88 87 0 132 +17 140 138 139 142 57 117 116 0 111 -16 141
 110 0 ?150 152 133 25 0 0 1 17 142 138 140 143 77 150 141 0 117 -17 143 138
 142 139 79 132 131 0 134 +50 144 111 0 145 136 166 0 +0e0 0e0 2e-2 0e0 0e0 1e0
 1e0 0e0 0e0 14 145 112 0 ?137 167 161 38 144 +0 0 137 167 40 15 146 113 0 150
 145 0 17 147 146 150 148 77 115 114 0 142 +17 148 146 147 149 75 125 124 0 126
 +17 149 146 148 150 81 134 133 0 135 +17 150 146 149 147 79 142 141 0 143 +15
 151 114 0 155 145 146 16 152 115 0 ?153 154 141 26 0 0 1 17 153 151 155 155 65
 172 152 0 0 +16 154 116 0 ?155 157 152 27 0 0 1 17 155 151 153 153 63 180 154
 0 0 +15 156 117 0 160 145 151 16 157 118 0 ?158 159 154 28 0 0 1 17 158 156
 160 160 69 188 157 0 0 +16 159 119 0 ?160 162 157 29 0 0 1 17 160 156 158 158
 67 196 159 0 0 +15 161 120 0 165 145 156 16 162 121 0 ?163 164 159 30 0 0 1 17
 163 161 165 165 73 204 162 0 0 +16 164 122 0 ?165 170 162 31 0 0 1 17 165 161
 163 163 71 212 164 0 0 +51 166 123 0 167 144 175 0 +8.06968665173469e-2
 8.33252999679116e-2 0e0 0e0 0e0 1e0 5e-3 1e0 0e0 0e0 14 167 124 0 ?145 176 168
 38 166 -0 0 145 176 40 15 168 125 0 174 167 0 17 169 168 174 171 45 95 94 0 97
 +16 170 126 0 ?181 173 164 32 0 0 1 17 171 168 169 172 43 181 170 0 95 -17 172
 168 171 174 63 153 152 0 155 -16 173 127 0 ?174 186 170 33 0 0 1 17 174 168
 172 169 65 179 173 0 153 +51 175 128 0 176 166 182 0 +8.06968665173469e-2
 8.33252999679116e-2 0e0 0e0 0e0 1e0 5e-3 1e0 0e0 0e0 14 176 129 0 ?167 183 177
 38 175 -0 0 167 183 40 15 177 130 0 181 176 0 17 178 177 181 179 43 97 96 0
 171 +17 179 177 178 180 45 174 173 0 169 -17 180 177 179 181 65 155 154 0 174 -
17 181 177 180 178 63 171 170 0 172 +51 182 131 0 183 175 191 0 +
5.03056047451940e-2 4.98127734732133e-2 0e0 0e0 0e0 1e0 1.25e-2 1e0 0e0 0e0 14
 183 132 0 ?176 192 184 38 182 -0 0 176 192 40 15 184 133 0 190 183 0 17 185
 184 190 187 49 100 99 0 102 +16 186 134 0 ?197 189 173 34 0 0 1 17 187 184 185
 188 47 197 186 0 100 -17 188 184 187 190 67 158 157 0 160 -16 189 135 0 ?190
 202 186 35 0 0 1 17 190 184 188 185 69 195 189 0 158 +51 191 136 0 192 182 198
 0 +5.03056047451940e-2 4.98127734732133e-2 0e0 0e0 0e0 1e0 1.25e-2 1e0 0e0 0e0
 14 192 137 0 ?183 199 193 38 191 -0 0 183 199 40 15 193 138 0 197 192 0 17 194
 193 197 195 47 102 101 0 187 +17 195 193 194 196 49 190 189 0 185 -17 196 193
 195 197 69 160 159 0 190 -17 197 193 196 194 67 187 186 0 188 +51 198 139 0
 199 191 207 0 +1.46574760719119e-2 1.66288011598355e-2 0e0 0e0 0e0 1e0 2.5e-3
 1e0 0e0 0e0 14 199 140 0 ?192 208 200 38 198 -0 0 192 208 40 15 200 141 0 206
 199 0 17 201 200 206 203 53 105 104 0 107 +16 202 142 0 ?213 205 189 36 0 0 1
 17 203 200 201 204 51 213 202 0 105 -17 204 200 203 206 71 163 162 0 165 -16
 205 143 0 ?206 0 202 37 0 0 1 17 206 200 204 201 73 211 205 0 163 +51 207 144
 0 208 198 0 0 +1.46574760719119e-2 1.66288011598355e-2 0e0 0e0 0e0 1e0 2.5e-3
 1e0 0e0 0e0 14 208 145 0 ?199 0 209 38 207 -0 0 199 0 40 15 209 146 0 213 208
 0 17 210 209 213 211 51 107 106 0 203 +17 211 209 210 212 53 206 205 0 201 -17
 212 209 211 213 73 165 164 0 206 -17 213 209 212 210 71 203 202 0 204 +1 0 
