**ABCDEFGHIJKLMNOPQRSTUVWXYZabcdefghijklmnopqrstuvwxyz**************************
**PARASOLID !"#$%&'()*+,-./:;<=>?@[\]^_`{|}~0123456789**************************
**PART1;
MC=unknown;
MC_MODEL=unknown;
MC_ID=unknown;
OS=unknown;
OS_RELEASE=unknown;
FRU=sdl_parasolid_customer_support;
APPL=.Net Example Application;
SITE=unknown;
USER=unknown;
FORMAT=text;
GUISE=transmit;
KEY=U:\finstd\p_inst_bod7.x_t;
FILE=U:\finstd\p_inst_bod7.x_t;
DATE=unknown;
**PART2;
SCH=SCH_2000118_20000;USFLD_SIZE=0;
**PART3;
**END_OF_HEADER*****************************************************************
T51 : TRANSMIT FILE created by modeller version 200011823 SCH_2000118_20000_1300
6186 0 12 27 CCCCCCCCCCCCCCCCCCCCCCCA16 index_map_offset0 0 1 dA9 index_map82 0
 A17 node_id_index_map82 0 A20 schema_embedding_map82 0 Z1 123 2 3 0 0 0 0 1e3 1
e-8 0 4 0 1 0 1 1 5 6 7 8 9 10 11 0 0 0 0 81 255 2 2 116 12 1 0 0 0 0 13 14 70 1
1 CI9 list_type0 0 1 uI10 notransmit0 0 1 lCCCDCCDI12 finger_index0 0 1 dI12 fin
ger_block1012 0 CZ3 0 4 T1 0 0 2 20 1 15 15 13 255 5 3 0 1 0 16 0 0 17 0 50 255
 6 54 0 18 19 0 0 +.05 .05 .04 0 0 1 1 0 0 137 255 7 105 0 1 20 0 21 -19 22 0 ?2
9 255 8 96 0 11 23 0 0 0 .019 19 255 9 1 0 1 17 0 24 V16 255 10 99 0 254e-7 25 0
 26 0 0 0 1 18 255 11 94 0 27 0 28 8 254e-7 1 17 255 27 0 29 30 31 11 25 10 20 3
2 -18 28 89 0 25 11 33 23 254e-7 1 17 25 0 34 35 32 28 27 10 36 37 +18 33 23 0 3
8 28 39 40 ?1 29 23 91 0 28 40 8 .1 0 .019 29 40 58 0 33 41 23 0 0 .04 29 41 57
 0 39 42 40 0 .1 .04 18 39 21 0 43 33 44 41 ?1 29 42 56 0 44 45 41 .1 .1 .04 18
 44 19 0 46 39 47 42 ?1 29 45 55 0 47 48 42 .1 0 .04 18 47 17 0 35 44 49 45 ?1 2
9 48 41 0 50 51 45 0 0 0 18 50 11 0 30 52 53 48 ?1 29 51 40 0 52 54 48 0 .1 0 18
 52 13 0 55 49 50 51 ?1 29 54 39 0 49 56 51 .1 .1 0 18 49 15 0 57 47 52 54 ?1 29
 56 38 0 53 0 54 .1 0 0 18 53 10 0 58 50 0 56 ?1 17 58 0 59 60 37 53 31 61 0 62
 -15 255 59 7 0 60 63 0 17 60 0 59 64 58 49 65 66 0 0 +17 37 0 59 58 67 28 35 68
 0 31 -17 31 0 29 27 62 28 58 61 0 0 +16 61 18 0 ?31 69 68 70 0 0 1 17 62 0 29 3
1 30 53 71 72 0 65 +15 29 100 0 27 73 0 17 30 0 29 62 27 50 74 75 0 76 -17 71 0
 77 78 65 50 62 72 0 0 -16 72 12 0 ?62 79 0 80 0 0 1 17 65 0 77 71 81 53 60 66 0
 0 -15 77 8 0 65 82 0 17 81 0 77 65 78 49 83 84 0 60 -16 66 6 0 ?60 68 84 85 0 0
 1 16 68 90 0 ?35 61 66 86 0 0 1 16 84 16 0 ?83 66 79 87 0 0 1 30 255 85 43 0 66
 80 87 0 +.1 .05 0 0 1 0 30 80 42 0 72 0 85 0 +.05 0 0 1 0 0 30 87 44 0 84 85 88
 0 +.05 .1 0 -1 0 0 30 88 45 0 79 87 89 0 +0 .05 0 0 -1 0 16 79 14 0 ?76 84 72 8
8 0 0 1 30 89 50 0 1 88 90 91 +.1 0 0 0 0 1 30 90 51 0 69 89 92 0 +.1 .1 0 0 0 1
 141 255 91 86 93 93 89 133 255 86 92 0 68 94 70 0 +89 .1 0 .019 .1 0 .04 .019 .
04 141 93 70 91 91 89 133 70 93 0 61 86 95 0 +89 .1 0 0 .1 0 .019 0 .019 133 95
 97 0 96 70 97 0 +98 0 0 .019 0 0 .04 .019 .04 16 96 95 0 ?38 75 99 95 0 0 1 133
 97 98 0 75 95 100 0 +98 0 0 0 0 0 .019 0 .019 30 98 53 0 1 92 101 102 +0 0 0 0
 0 1 30 92 52 0 99 90 98 0 +0 .1 0 0 0 1 30 101 59 0 103 98 104 0 +.1 .05 .04 0
 -1 0 141 102 95 105 105 98 141 105 97 102 102 98 16 103 25 0 ?67 106 75 101 0 0
 1 30 104 60 0 106 101 107 0 +.05 .1 .04 1 0 0 16 106 28 0 ?46 108 103 104 0 0 1
 30 107 61 0 108 104 94 0 +0 .05 .04 0 1 0 16 108 31 0 ?43 26 106 107 0 0 1 30 9
4 62 0 26 107 86 0 +.05 0 .04 -1 0 0 16 26 34 0 ?109 10 108 94 0 0 1 17 109 0 34
 32 35 33 110 26 0 111 +15 34 32 0 32 16 0 17 32 0 34 25 109 11 38 96 0 74 -17 3
5 0 34 109 25 47 37 68 0 110 +17 110 0 112 113 111 47 109 26 0 67 -17 111 0 112
 110 114 33 43 108 0 0 -15 112 35 0 110 18 0 17 114 0 112 111 113 39 46 106 0 11
5 -17 43 0 116 55 38 39 111 108 0 114 +15 116 29 0 74 117 0 17 55 0 116 76 43 52
 115 99 0 83 -17 38 0 116 43 74 33 32 96 0 109 +17 74 0 116 38 76 11 30 75 0 0 +
17 76 0 116 74 55 50 78 79 0 71 +16 75 24 0 ?74 103 96 97 0 0 1 17 78 0 77 81 71
 52 76 79 0 0 -17 115 0 118 46 83 39 55 99 0 0 +16 99 22 0 ?115 96 69 92 0 0 1 1
7 83 0 118 115 57 52 81 84 0 78 +15 118 26 0 115 119 0 17 57 0 118 83 46 49 64 6
9 0 81 -17 46 0 118 57 115 44 114 106 0 113 +17 64 0 59 67 60 44 57 69 0 0 +16 6
9 20 0 ?64 99 61 90 0 0 1 17 67 0 59 37 64 47 113 103 0 0 +17 113 0 112 114 110
 44 67 103 0 64 -14 255 119 27 120 ?82 117 118 5 121 +0 0 82 117 24 81 1 120 121
 122 119 0 0 123 124 125 14 82 9 124 ?63 119 77 5 126 +0 0 63 119 24 14 117 30 1
23 ?119 73 116 5 127 +0 0 119 73 24 50 121 47 0 119 128 127 0 +.05 .1 0 0 1 0 0
 0 1 13 24 4 0 0 0 0 0 0 9 16 14 16 107 129 ?18 0 34 5 19 +73 73 18 0 24 81 1 12
9 117 122 16 0 0 0 130 131 14 18 36 130 ?73 16 112 5 6 +0 0 73 16 24 50 19 49 0
 73 127 6 132 +.05 0 0 0 -1 0 0 0 -1 14 73 33 133 ?117 18 29 5 19 +16 16 117 18
 24 81 1 133 119 122 73 0 0 130 123 134 80 255 1 122 0 135 8001 0 0 0 0 3 5 0 0
 0 FFFFTFTFFFFFFF2 81 1 130 118 122 18 0 0 129 133 136 81 1 123 120 122 117 0 0
 133 120 137 83 255 3 134 .5960784 .6666667 .6862745 83 3 137 .5960784 .6666667
 .6862745 83 3 136 .5960784 .6666667 .6862745 79 255 15 135 SDL/TYSA_COLOUR50 12
7 48 0 117 121 19 0 +0 .05 0 -1 0 0 0 0 1 141 132 100 138 138 19 137 100 102 0 1
 97 36 139 +19 140 0 ?141 138 7 132 132 19 133 36 103 0 25 100 20 0 +100 -138777
8780781446e-32 0 .019 .1 0 .019 0 1 141 139 36 139 139 100 134 255 140 0 0 0 0 0
 0 +141 142 136 255 141 1 2 2 2 5 FFF1 143 144 145 135 255 142 1 0 45 255 4 143
 -.019 -.05 -.019 .05 127 255 2 144 2 2 128 255 2 145 0 1 133 20 104 0 27 36 7 0
 +7 .1 0 .019 -1387778780781446e-32 0 .019 1 0 83 3 131 .5960784 .6666667 .68627
45 50 128 46 0 63 126 121 0 +.1 .05 0 1 0 0 0 0 -1 14 63 2 146 ?0 82 59 5 128 +0
 0 0 82 24 50 126 37 0 82 0 128 0 +.05 .05 0 0 0 -1 -1 0 0 81 1 146 123 122 63 0
 0 124 0 147 81 1 124 122 122 82 0 0 120 146 148 83 3 147 .5960784 .6666667 .686
2745 83 3 148 .5960784 .6666667 .6862745 83 3 125 .5960784 .6666667 .6862745 19
 17 5 0 1 0 9 5 S141 21 20 21 21 7 134 22 0 0 0 0 0 0 +149 150 136 149 1 2 2 2 5
 FFF1 151 152 153 135 150 1 0 45 4 151 -.019 -.05 -.019 .05 127 2 152 2 2 128 2
 153 0 1 74 4 CI16 index_map_offset0 0 1 dCCZ20 15 2 0 0 2 146 0 0 0 0 0 0 0 0 0
 0 0 0 0 0 0 0 0 0 80 2 12 154 155 8004 0 0 0 0 3 5 0 0 0 FFTFFFFFFFFFFF2 3 83 1
 13 7830.64 84 255 8 14 Kg/Cu M 79 16 155 SDL/TYSA_DENSITY1 0 
