**ABCDEFGHIJKLMNOPQRSTUVWXYZabcdefghijklmnopqrstuvwxyz**************************
**PARASOLID !"#$%&'()*+,-./:;<=>?@[\]^_`{|}~0123456789**************************
**PART1;
MC=unknown;
MC_MODEL=unknown;
MC_ID=unknown;
OS=unknown;
OS_RELEASE=unknown;
FRU=sdl_parasolid_customer_support;
APPL=.Net Example Application;
SITE=unknown;
USER=unknown;
FORMAT=text;
GUISE=transmit;
KEY=U:\finstd\p_inst_bod_pad1.x_t;
FILE=U:\finstd\p_inst_bod_pad1.x_t;
DATE=unknown;
**PART2;
SCH=SCH_2000118_20000;USFLD_SIZE=0;
**PART3;
**END_OF_HEADER*****************************************************************
T51 : TRANSMIT FILE created by modeller version 200011823 SCH_2000118_20000_1300
6186 0 12 27 CCCCCCCCCCCCCCCCCCCCCCCA16 index_map_offset0 0 1 dA9 index_map82 0
 A17 node_id_index_map82 0 A20 schema_embedding_map82 0 Z1 90 2 3 0 0 0 0 1e3 1e
-8 0 4 0 1 0 1 1 5 6 7 8 9 10 11 0 0 0 0 81 255 2 2 84 12 1 13 0 0 0 14 0 70 11
 CI9 list_type0 0 1 uI10 notransmit0 0 1 lCCCDCCDI12 finger_index0 0 1 dI12 fing
er_block1012 0 CZ3 0 4 T1 0 0 5 20 1 15 15 13 255 5 3 0 1 0 16 0 0 17 0 50 255 6
 54 0 16 18 0 0 +.004 .0125 .025 0 0 1 1 0 0 30 255 7 62 0 10 19 0 0 +.004 .0105
 .025 -1 0 0 29 255 8 58 0 11 20 0 .002 .0105 .025 19 255 9 1 0 1 17 0 21 V16 25
5 10 34 0 ?22 0 23 7 0 0 1 18 255 11 23 0 22 0 24 8 ?1 17 255 22 0 25 26 27 11 2
8 10 0 29 +18 24 21 0 30 11 31 20 ?1 17 30 0 32 33 34 24 29 23 0 35 +18 31 19 0
 36 24 37 38 ?1 29 20 57 0 24 38 8 .002 .0145 .025 29 38 56 0 31 39 20 .006 .014
5 .025 29 39 55 0 37 40 38 .006 .0105 .025 18 37 17 0 28 31 41 39 ?1 29 40 41 0
 42 43 39 .002 .0105 .005 18 42 11 0 26 44 45 40 ?1 29 43 40 0 44 46 40 .002 .01
45 .005 18 44 13 0 33 41 42 43 ?1 29 46 39 0 41 47 43 .006 .0145 .005 18 41 15 0
 48 37 44 46 ?1 29 47 38 0 45 0 46 .006 .0105 .005 18 45 10 0 49 42 0 47 ?1 17 4
9 0 50 51 52 45 27 53 0 54 -15 255 50 7 0 51 55 0 17 51 0 50 56 49 41 57 58 0 0
 +17 52 0 50 49 56 37 59 60 0 27 +17 27 0 25 22 54 37 49 53 0 0 +16 53 18 0 ?27
 61 58 62 0 0 1 17 54 0 25 27 26 45 63 64 0 57 +15 25 32 0 27 65 0 17 26 0 25 54
 22 42 34 66 0 67 -17 63 0 68 69 57 42 54 64 0 0 -16 64 12 0 ?54 70 0 71 0 0 1 1
7 57 0 68 63 72 45 51 58 0 0 -15 68 8 0 57 73 0 17 72 0 68 57 69 41 74 75 0 51 -
16 58 6 0 ?51 53 75 76 0 0 1 16 75 16 0 ?74 58 70 77 0 0 1 30 76 43 0 58 71 77 0
 +.006 .0125 .005 0 1 0 30 71 42 0 64 0 76 0 +.004 .0105 .005 1 0 0 30 77 44 0 7
5 76 78 0 +.004 .0145 .005 -1 0 0 30 78 45 0 70 77 62 0 +.002 .0125 .005 0 -1 0
 16 70 14 0 ?67 75 64 78 0 0 1 30 62 50 0 53 78 79 0 +.006 .0105 .005 0 0 1 30 7
9 51 0 61 62 80 0 +.006 .0145 .005 0 0 1 16 61 20 0 ?56 81 53 79 0 0 1 30 80 52
 0 81 79 82 0 +.002 .0145 .005 0 0 1 16 81 22 0 ?83 66 61 80 0 0 1 30 82 53 0 66
 80 84 0 +.002 .0105 .005 0 0 1 16 66 24 0 ?34 60 81 82 0 0 1 30 84 59 0 60 82 8
5 0 +.006 .0125 .025 0 -1 0 16 60 25 0 ?52 86 66 84 0 0 1 30 85 60 0 86 84 19 0
 +.004 .0145 .025 1 0 0 16 86 28 0 ?36 23 60 85 0 0 1 30 19 61 0 23 85 7 0 +.002
 .0125 .025 0 1 0 16 23 31 0 ?30 10 86 19 0 0 1 17 36 0 87 48 83 31 35 86 0 59 +
15 87 26 0 83 88 0 17 48 0 87 74 36 41 56 61 0 72 -17 83 0 87 36 74 24 33 81 0 0
 +17 35 0 89 29 59 24 36 86 0 83 -17 59 0 89 35 28 31 52 60 0 56 -15 89 35 0 28
 16 0 17 28 0 89 59 29 37 22 10 0 52 -17 56 0 50 52 51 31 48 61 0 0 +17 29 0 89
 28 35 11 30 23 0 34 -17 34 0 32 30 67 11 26 66 0 0 +15 32 29 0 34 90 0 17 67 0
 32 34 33 42 69 70 0 63 +17 33 0 32 67 30 44 83 81 0 74 -17 69 0 68 72 63 44 67
 70 0 0 -17 74 0 87 83 48 44 72 75 0 69 +14 255 90 30 91 ?88 65 32 5 92 +0 0 88
 65 21 81 1 91 87 93 90 94 0 95 96 97 14 88 27 96 ?73 90 87 5 98 +0 0 73 90 21 1
4 65 33 95 ?90 16 25 5 18 +0 0 90 16 21 50 92 48 0 90 98 18 0 +.002 .0125 .005 -
1 0 0 0 0 1 13 21 4 0 0 0 0 0 0 9 16 14 16 36 99 ?65 0 89 5 6 +0 0 65 0 21 81 1
 99 85 93 16 100 0 0 95 101 80 255 1 93 0 102 8001 0 0 0 0 3 5 0 0 0 FFFFTFTFFFF
FFF2 81 3 100 78 103 16 0 99 94 104 105 106 0 81 1 95 86 93 65 107 0 99 91 108 8
3 255 3 101 .5960784 .6666667 .6862745 81 3 107 80 103 65 0 95 104 109 110 111 0
 83 3 108 .5960784 .6666667 .6862745 80 3 103 112 113 9000 0 0 0 0 3 6 0 0 0 FFF
FTFTTFFFFFF1 1 3 81 3 104 79 103 88 0 96 100 107 114 115 0 81 3 109 81 103 55 0
 116 107 117 118 119 0 82 255 1 110 0 82 1 111 53 14 55 2 116 ?0 73 50 5 120 +0
 0 0 73 21 81 1 116 90 93 55 109 0 121 0 122 81 3 117 82 103 73 0 121 109 0 123
 124 0 82 1 118 0 82 1 119 54 14 73 9 121 ?55 88 68 5 125 +0 0 55 88 21 81 1 121
 89 93 73 117 0 96 116 126 82 1 123 0 82 1 124 55 81 1 96 88 93 88 104 0 91 121
 127 83 3 126 .5960784 .6666667 .6862745 83 3 127 .5960784 .6666667 .6862745 50
 125 37 0 73 0 120 0 +.004 .0125 .005 0 0 -1 -1 0 0 50 120 46 0 55 125 98 0 +.00
6 .0125 .005 1 0 0 0 0 -1 50 98 47 0 88 120 92 0 +.004 .0145 .005 0 1 0 0 0 1 83
 3 122 .5960784 .6666667 .6862745 82 1 114 0 82 1 115 52 79 255 27 113 MONIKER/M
ONIKER_DATA_ATTRIB81 3 94 77 103 90 0 91 0 100 128 129 0 82 1 105 0 82 1 106 51
 82 1 128 0 82 1 129 50 79 15 102 SDL/TYSA_COLOUR50 18 49 0 65 92 6 0 +.004 .010
5 .005 0 -1 0 0 0 -1 83 3 97 .5960784 .6666667 .6862745 19 17 5 0 1 0 9 5 S74 4
 CI16 index_map_offset0 0 1 dCCZ20 15 5 0 0 130 117 13 2 116 0 0 0 0 0 0 0 0 0 0
 0 0 0 0 0 81 2 130 76 131 1 0 13 0 0 132 133 81 3 13 83 134 1 130 2 0 0 135 136
 137 80 3 134 103 138 9000 0 0 0 0 3 6 0 0 0 FFTFFFFFFFFFFF3 3 1 84 255 38 135 {
ead8f22f-f22f-4241-b180-4ab19324eaa8}84 18 136 NX 7.5.0.26-berryr82 1 137 0 79 2
5 138 MONIKER/GUID_TABLE_ATTRIB80 2 131 139 140 8004 0 0 0 0 3 5 0 0 0 FFTFFFFFF
FFFFF2 3 83 1 132 7830.64 84 8 133 Kg/Cu M 79 16 140 SDL/TYSA_DENSITY80 2 12 134
 141 9000 2 2 2 2 3 6 0 0 0 FFTFFFFFFFFFFF2 3 83 1 14 3489 79 22 141 MONIKER/BOD
Y_ID_ATTRIB1 0 
