**ABCDEFGHIJKLMNOPQRSTUVWXYZabcdefghijklmnopqrstuvwxyz**************************
**PARASOLID !"#$%&'()*+,-./:;<=>?@[\]^_`{|}~0123456789**************************
**PART1;
MC=unknown;
MC_MODEL=unknown;
MC_ID=unknown;
OS=unknown;
OS_RELEASE=unknown;
FRU=sdl_parasolid_customer_support;
APPL=.Net Example Application;
SITE=unknown;
USER=unknown;
FORMAT=text;
GUISE=transmit;
KEY=U:\fastinst\tool-thing-2p.x_t;
FILE=U:\fastinst\tool-thing-2p.x_t;
DATE=unknown;
**PART2;
SCH=SCH_2000118_20000;USFLD_SIZE=0;
**PART3;
**END_OF_HEADER*****************************************************************
T51 : TRANSMIT FILE created by modeller version 200011823 SCH_2000118_20000_1300
6186 0 12 27 CCCCCCCCCCCCCCCCCCCCCCCA16 index_map_offset0 0 1 dA9 index_map82 0
 A17 node_id_index_map82 0 A20 schema_embedding_map82 0 Z1 118 2 3 0 0 0 0 1e3 1
e-8 0 4 0 1 0 1 1 5 6 7 8 9 10 11 0 0 0 0 81 255 2 2 112 12 1 0 0 0 0 13 14 70 1
1 CI9 list_type0 0 1 uI10 notransmit0 0 1 lCCCDCCDI12 finger_index0 0 1 dI12 fin
ger_block1012 0 CZ3 0 4 T1 0 0 2 20 1 15 15 13 255 5 3 0 1 0 16 0 0 17 0 50 255
 6 90 0 16 18 0 0 +.018 .015 -.01185278320312498 1 0 1104170216537108e-30 110417
0216537108e-30 0 -1 30 255 7 86 0 19 20 0 0 +.018 .015 -.01185278320312498 0 -1
 0 29 255 8 67 0 21 22 0 .00885864257812496 0 -.011852783203125 19 255 9 1 0 1 1
7 0 23 V16 255 10 73 0 ?24 0 25 20 0 0 1 18 255 11 15 0 26 0 27 28 ?1 17 255 26
 0 29 30 31 11 32 33 0 34 -18 27 10 0 35 11 36 37 ?1 29 28 17 0 11 37 38 .008858
64257812496 .015 -.011852783203125 29 37 12 0 27 39 28 .00885864257812494 .015 .
007 29 38 70 0 40 28 41 .018 0 -.01185278320312498 18 40 60 0 42 43 0 38 ?1 29 4
1 69 0 43 38 22 .018 0 .007 18 43 58 0 24 44 40 41 ?1 29 22 68 0 44 41 8 .008858
64257812494 0 .007 18 44 56 0 45 21 43 22 ?1 17 45 0 46 47 48 44 35 25 0 49 +18
 21 54 0 32 50 44 8 ?1 17 32 0 51 49 34 21 26 33 0 31 +18 50 2 0 52 36 21 53 ?1
 17 52 0 54 55 56 50 42 19 0 30 -18 36 5 0 57 27 50 39 ?1 29 53 4 0 50 0 39 .018
 .015 -.01185278320312498 29 39 7 0 36 53 37 .018 .015 .007 17 57 0 46 48 47 36
 24 10 0 58 -15 255 46 79 0 47 59 0 17 48 0 46 45 57 27 58 60 0 61 +17 47 0 46 5
7 45 43 62 63 0 64 -17 24 0 54 56 55 43 57 10 0 47 +17 58 0 65 66 61 36 48 60 0
 55 -15 65 23 0 66 67 0 17 66 0 65 68 58 50 55 69 0 0 -17 61 0 65 58 68 27 34 70
 0 0 -16 60 11 0 ?48 70 69 71 0 0 1 17 55 0 54 24 52 36 66 69 0 0 +15 54 81 0 56
 16 0 16 69 6 0 ?55 60 72 73 0 0 1 16 72 46 0 ?74 69 75 76 0 0 1 30 73 9 0 69 0
 71 0 +.018 .015 -.01185278320312498 -1104170216537108e-30 0 1 30 71 14 0 60 73
 77 0 +.018 .015 .007 -1 0 -1233482301749496e-30 30 77 19 0 70 71 78 0 +.0088586
4257812494 .015 .007 1196184401248532e-30 0 -1 16 70 16 0 ?34 79 60 77 0 0 1 30
 78 22 0 79 77 80 0 +.00885864257812496 .015 -.011852783203125 1 0 1138599047768
766e-30 16 79 20 0 ?30 19 70 78 0 0 1 30 80 66 0 81 78 82 0 +.018 0 -.0118527832
0312498 -1104170216537108e-30 0 1 16 81 52 0 ?64 63 0 80 0 0 1 30 82 65 0 63 80
 83 0 +.018 0 .007 -1 0 -1233482301749496e-30 16 63 50 0 ?62 75 81 82 0 0 1 30 8
3 64 0 75 82 76 0 +.00885864257812494 0 .007 1196184401248532e-30 0 -1 16 75 48
 0 ?84 72 63 83 0 0 1 30 76 63 0 72 83 85 0 +.00885864257812496 0 -.011852783203
125 1 0 1138599047768766e-30 30 85 83 0 33 76 86 0 +.00885864257812496 .015 -.01
1852783203125 0 -1 0 16 33 71 0 ?32 25 19 85 0 0 1 30 86 84 0 25 85 20 0 +.00885
864257812494 .015 .007 0 -1 0 16 25 72 0 ?45 10 33 86 0 0 1 30 20 85 0 10 86 7 0
 +.018 .015 .007 0 -1 0 16 19 74 0 ?42 33 79 7 0 0 1 17 42 0 29 31 30 40 52 19 0
 74 +15 29 75 0 31 87 0 17 31 0 29 26 42 21 74 72 0 84 -17 30 0 29 42 26 50 68 7
9 0 66 +17 74 0 88 64 84 40 31 72 0 56 +15 88 45 0 64 89 0 17 64 0 88 62 74 43 5
6 81 0 0 +17 84 0 88 74 62 21 49 75 0 0 +17 56 0 54 52 24 40 64 81 0 0 -17 62 0
 88 84 64 44 47 63 0 0 +17 49 0 51 35 32 44 84 75 0 62 -15 51 77 0 49 90 0 17 35
 0 51 34 49 27 45 25 0 48 -17 34 0 51 32 35 11 61 70 0 68 +17 68 0 65 61 66 11 3
0 79 0 0 -14 255 90 78 91 ?87 59 51 5 92 +0 0 87 59 23 81 1 91 115 93 90 0 0 94
 95 96 14 87 76 95 ?67 90 29 5 97 +0 0 67 90 23 14 59 80 94 ?90 16 46 5 18 +0 0
 90 16 23 50 92 88 0 90 97 18 0 +.00885864257812494 .015 .007 -1 0 -119618440124
8532e-30 -1196184401248532e-30 0 1 13 23 91 0 0 0 0 0 0 9 16 14 16 82 98 ?59 0 5
4 5 6 +0 0 59 0 23 81 1 98 113 93 16 0 0 0 94 99 80 255 1 93 0 100 8001 0 0 0 0
 3 5 0 0 0 FFFFTFTFFFFFFF2 81 1 94 114 93 59 0 0 98 91 101 83 255 3 99 .5960784
 .6666667 .6862745 83 3 101 .5960784 .6666667 .6862745 79 255 15 100 SDL/TYSA_CO
LOUR50 97 87 0 87 102 92 0 +.00885864257812496 .015 -.011852783203125 1138599047
768766e-30 0 -1 -1 0 -1138599047768766e-30 50 18 89 0 59 92 6 0 +.018 .015 .007
 -1233482301749496e-30 0 1 1 0 1233482301749496e-30 50 102 62 0 89 103 97 0 +.01
8 0 .007 0 -1 0 0 0 -1 14 89 42 104 ?0 67 88 5 102 +0 0 0 67 23 50 103 25 0 67 0
 102 0 +.018 .015 .007 0 -1 0 0 0 -1 14 67 24 105 ?89 87 65 5 103 -0 0 89 87 23
 81 1 105 117 93 67 0 0 95 104 106 81 1 95 116 93 87 0 0 91 105 107 81 1 104 118
 93 89 0 0 105 0 108 83 3 106 .5960784 .6666667 .6862745 83 3 108 .5960784 .6666
667 .6862745 83 3 107 .5960784 .6666667 .6862745 83 3 96 .5960784 .6666667 .6862
745 19 17 92 0 1 0 9 5 S74 4 CI16 index_map_offset0 0 1 dCCZ20 15 2 0 0 2 104 0
 0 0 0 0 0 0 0 0 0 0 0 0 0 0 0 0 0 80 2 12 109 110 8004 0 0 0 0 3 5 0 0 0 FFTFFF
FFFFFFFF2 3 83 1 13 7830.64 84 255 8 14 Kg/Cu M 79 16 110 SDL/TYSA_DENSITY1 0 
