**ABCDEFGHIJKLMNOPQRSTUVWXYZabcdefghijklmnopqrstuvwxyz**************************
**PARASOLID !"#$%&'()*+,-./:;<=>?@[\]^_`{|}~0123456789**************************
**PART1;
MC=unknown;
MC_MODEL=unknown;
MC_ID=unknown;
OS=unknown;
OS_RELEASE=unknown;
FRU=sdl_parasolid_customer_support;
APPL=.Net Example Application;
SITE=unknown;
USER=unknown;
FORMAT=text;
GUISE=transmit;
KEY=U:\fastinst\h-shape-1p.x_t;
FILE=U:\fastinst\h-shape-1p.x_t;
DATE=unknown;
**PART2;
SCH=SCH_2000118_20000;USFLD_SIZE=0;
**PART3;
**END_OF_HEADER*****************************************************************
T51 : TRANSMIT FILE created by modeller version 200011823 SCH_2000118_20000_1300
6186 0 12 27 CCCCCCCCCCCCCCCCCCCCCCCA16 index_map_offset0 0 1 dA9 index_map82 0
 A17 node_id_index_map82 0 A20 schema_embedding_map82 0 Z1 284 2 3 0 0 0 0 1e3 1
e-8 0 0 4 1 0 1 1 5 6 7 8 9 10 11 0 0 0 0 81 255 2 2 270 12 1 0 0 0 0 13 14 70 1
1 CI9 list_type0 0 1 uI10 notransmit0 0 1 lCCCDCCDI12 finger_index0 0 1 dI12 fin
ger_block1012 0 CZ3 0 4 T1 0 0 2 20 1 15 15 13 255 5 235 0 1 0 16 0 0 17 0 50 25
5 6 234 0 16 18 0 0 +-.06 .01 -.028 1 0 1206764157201256e-30 1206764157201256e-3
0 0 -1 30 255 7 222 0 19 20 0 0 +-.06 .01 -.028 0 -1 0 29 255 8 163 0 21 22 0 -.
031 0 -.028 19 255 9 1 0 1 17 0 23 V16 255 10 185 0 ?24 0 25 20 0 0 1 18 255 11
 55 0 26 0 27 28 ?1 17 255 26 0 29 30 31 11 32 33 0 34 +18 27 50 0 31 11 35 36 ?
1 29 28 57 0 11 36 37 -.031 .01 -.028 29 36 52 0 27 38 28 -.031 .01 -.009 29 37
 174 0 39 28 40 -.06 0 -.028 18 39 148 0 41 42 0 37 ?1 29 40 173 0 42 37 43 -.06
 0 .018 18 42 146 0 44 45 39 40 ?1 29 43 172 0 45 40 46 -.032 0 .017 18 45 144 0
 47 48 42 43 ?1 29 46 171 0 48 43 49 -.032 0 .003999999999999925 18 48 142 0 50
 51 45 46 ?1 29 49 170 0 51 46 52 1387778780781446e-32 0 .004 18 51 140 0 53 54
 48 49 ?1 29 52 169 0 54 49 55 -308148791101958e-47 0 .017 18 54 138 0 56 57 51
 52 ?1 29 55 168 0 57 52 58 .027 0 .017 18 57 136 0 59 60 54 55 ?1 29 58 167 0 6
0 55 61 .027 0 -.028 18 60 134 0 62 63 57 58 ?1 29 61 166 0 63 58 64 -1387778780
781446e-32 0 -.028 18 63 132 0 65 66 60 61 ?1 29 64 165 0 66 61 22 -142108547152
02e-30 0 -.009 18 66 130 0 67 68 63 64 ?1 29 22 164 0 68 64 8 -.031 0 -.009 18 6
8 128 0 69 21 66 22 ?1 17 69 0 70 71 72 68 73 74 0 75 +18 21 126 0 76 77 68 8 ?1
 17 76 0 78 34 75 21 79 80 0 81 +18 77 2 0 30 82 21 83 ?1 17 30 0 29 84 26 77 85
 86 0 87 +18 82 5 0 88 89 77 90 ?1 29 83 4 0 77 0 90 -.06 .01 -.028 29 90 7 0 82
 83 91 -.06 .01 .018 29 91 12 0 89 90 92 -.032 .01 .017 18 89 10 0 93 94 82 91 ?
1 29 92 17 0 94 91 95 -.032 .01 .003999999999999925 18 94 15 0 96 97 89 92 ?1 29
 95 22 0 97 92 98 1387778780781446e-32 .01 .004 18 97 20 0 99 100 94 95 ?1 29 98
 27 0 100 95 101 -308148791101958e-47 .01 .017 18 100 25 0 102 103 97 98 ?1 29 1
01 32 0 103 98 104 .027 .01 .017 18 103 30 0 105 106 100 101 ?1 29 104 37 0 106
 101 107 .027 .01 -.028 18 106 35 0 108 109 103 104 ?1 29 107 42 0 109 104 38 -1
387778780781446e-32 .01 -.028 18 109 40 0 110 35 106 107 ?1 29 38 47 0 35 107 36
 -14210854715202e-30 .01 -.009 18 35 45 0 111 27 109 38 ?1 17 111 0 29 31 110 35
 112 113 0 114 +15 255 29 63 0 84 115 0 17 31 0 29 26 111 27 116 117 0 71 +17 11
0 0 29 111 108 109 118 119 0 120 +17 112 0 121 122 114 109 111 113 0 0 -16 113 4
6 0 ?111 117 119 123 0 0 1 17 114 0 121 112 67 35 72 124 0 116 -15 121 193 0 67
 125 0 17 67 0 121 114 122 66 126 127 0 72 +17 72 0 70 69 116 66 114 124 0 73 +1
6 124 177 0 ?72 128 129 130 0 0 1 17 116 0 70 72 71 35 31 117 0 0 -15 70 191 0 6
9 131 0 17 71 0 70 116 69 27 75 129 0 32 -16 117 51 0 ?31 33 113 132 0 0 1 16 33
 56 0 ?26 86 117 133 0 0 1 30 132 54 0 117 123 133 0 +-14210854715202e-30 .01 -.
009 -1 0 0 30 123 49 0 113 134 132 0 +-14210854715202e-30 .01 -.028 0 0 1 30 133
 59 0 33 132 135 0 +-.031 .01 -.009 365204942310907e-29 0 -1 30 135 62 0 86 133
 136 0 +-.031 .01 -.028 -1 0 0 16 86 60 0 ?30 19 33 135 0 0 1 30 136 162 0 137 1
35 138 0 +-.06 0 -.028 -1206764157201256e-30 0 1 16 137 124 0 ?139 140 0 136 0 0
 1 30 138 161 0 140 136 141 0 +-.06 0 .018 .99936285434755 0 -.03569153051241125
 16 140 122 0 ?47 142 137 138 0 0 1 30 141 160 0 142 138 143 0 +-.032 0 .017 0 0
 -1 16 142 120 0 ?50 144 140 141 0 0 1 30 143 159 0 144 141 145 0 +-.032 0 .0039
99999999999925 1 0 235813972515597e-29 16 144 118 0 ?53 146 142 143 0 0 1 30 145
 158 0 146 143 147 0 +152288934501116e-31 0 .004 -1171453342316276e-30 0 1 16 14
6 116 0 ?56 148 144 145 0 0 1 30 147 157 0 148 145 149 0 +0 0 .017 1 0 0 16 148
 114 0 ?59 150 146 147 0 0 1 30 149 156 0 150 147 151 0 +.027 0 .017 37007434154
1719e-29 0 -1 16 150 112 0 ?62 152 148 149 0 0 1 30 151 155 0 152 149 153 0 +.02
7 0 -.028 -1 0 0 16 152 110 0 ?65 127 150 151 0 0 1 30 153 154 0 127 151 154 0 +
-14210854715202e-30 0 -.028 0 0 1 16 127 108 0 ?67 74 152 153 0 0 1 30 154 153 0
 74 153 155 0 +-14210854715202e-30 0 -.009 -1 0 0 16 74 106 0 ?69 80 127 154 0 0
 1 30 155 152 0 80 154 156 0 +-.031 0 -.009 365204942310907e-29 0 -1 16 80 104 0
 ?76 157 74 155 0 0 1 30 156 151 0 157 155 158 0 +-.031 0 -.028 -1 0 0 16 157 10
2 0 ?41 159 80 156 0 0 1 30 158 211 0 160 156 161 0 +-.031 .01 -.028 0 -1 0 16 1
60 175 0 ?81 129 19 158 0 0 1 30 161 212 0 129 158 130 0 +-.031 .01 -.009 0 -1 0
 16 129 176 0 ?75 124 160 161 0 0 1 30 130 213 0 124 161 162 0 +-14210854715202e
-30 .01 -.009 0 -1 0 30 162 214 0 128 130 163 0 +-1387778780781446e-32 .01 -.028
 0 -1 0 16 128 178 0 ?122 164 124 162 0 0 1 30 163 215 0 164 162 165 0 +.027 .01
 -.028 0 -1 0 16 164 179 0 ?166 167 128 163 0 0 1 30 165 216 0 167 163 168 0 +.0
27 .01 .017 0 -1 0 16 167 180 0 ?169 170 164 165 0 0 1 30 168 217 0 170 165 171
 0 +-308148791101958e-47 .01 .017 0 -1 0 16 170 181 0 ?172 173 167 168 0 0 1 30
 171 218 0 173 168 174 0 +1387778780781446e-32 .01 .004 0 -1 0 16 173 182 0 ?175
 176 170 171 0 0 1 30 174 219 0 176 171 177 0 +-.032 .01 .003999999999999925 0 -
1 0 16 176 183 0 ?178 25 173 174 0 0 1 30 177 220 0 25 174 20 0 +-.032 .01 .017
 0 -1 0 16 25 184 0 ?179 10 176 177 0 0 1 30 20 221 0 10 177 7 0 +-.06 .01 .018
 0 -1 0 17 179 0 180 50 181 45 182 25 0 183 +15 180 205 0 50 184 0 17 50 0 180 1
85 179 48 183 142 0 178 +17 181 0 180 179 185 89 96 186 0 0 -17 182 0 187 88 47
 89 179 25 0 181 -17 183 0 188 44 189 45 50 142 0 0 -15 188 101 0 190 191 0 17 4
4 0 188 190 183 42 47 140 0 24 -17 189 0 188 183 192 48 53 144 0 0 -17 192 0 188
 189 193 51 56 146 0 0 -17 53 0 194 195 178 51 189 144 0 175 +15 194 203 0 53 19
6 0 17 195 0 194 197 53 97 175 173 0 198 -17 178 0 194 53 197 48 185 176 0 189 +
17 175 0 199 56 198 51 195 173 0 192 +15 199 201 0 56 200 0 17 56 0 199 201 175
 54 192 146 0 172 +17 198 0 199 175 201 97 102 202 0 0 -17 201 0 199 198 56 100
 172 170 0 203 -17 102 0 29 105 99 100 198 202 0 201 +16 202 26 0 ?102 204 205 2
06 0 0 1 16 204 31 0 ?105 207 202 208 0 0 1 16 205 21 0 ?99 202 186 209 0 0 1 30
 206 29 0 202 209 208 0 +152288934501116e-31 .01 .004 -1171453342316276e-30 0 1
 30 209 24 0 205 210 206 0 +-.032 .01 .003999999999999925 1 0 235813972515597e-2
9 30 208 34 0 204 206 211 0 +0 .01 .017 1 0 0 30 211 39 0 207 208 134 0 +.027 .0
1 .017 370074341541719e-29 0 -1 16 207 36 0 ?108 119 204 211 0 0 1 30 134 44 0 1
19 211 123 0 +.027 .01 -.028 -1 0 0 16 119 41 0 ?110 113 207 134 0 0 1 17 108 0
 29 110 105 106 212 207 0 213 +17 105 0 29 108 102 103 203 204 0 214 +17 212 0 2
15 169 213 103 108 207 0 0 -17 213 0 215 212 62 106 166 164 0 118 -15 215 197 0
 62 216 0 17 62 0 215 213 169 60 217 150 0 166 +17 166 0 218 65 118 60 213 164 0
 219 +17 118 0 218 166 120 106 110 119 0 0 -15 218 195 0 65 220 0 17 120 0 218 1
18 65 109 122 128 0 112 -17 65 0 218 120 166 63 219 152 0 122 +17 122 0 121 67 1
12 63 120 128 0 126 +17 126 0 188 219 73 63 67 127 0 0 -17 219 0 188 217 126 60
 65 152 0 0 -17 73 0 188 126 79 66 69 74 0 0 -17 79 0 188 73 221 68 76 80 0 0 -1
7 221 0 188 79 190 21 41 157 0 0 -17 190 0 188 221 44 39 139 137 0 0 -17 41 0 22
2 87 81 39 221 157 0 223 +15 222 187 0 41 224 0 17 87 0 222 85 41 77 223 19 0 22
5 -17 81 0 222 41 85 21 34 160 0 221 +17 223 0 226 139 225 39 87 19 0 190 +15 22
6 209 0 139 16 0 17 139 0 226 227 223 42 190 137 0 0 +17 225 0 226 223 227 77 84
 159 0 0 -16 19 186 0 ?223 160 86 7 0 0 1 17 227 0 226 225 139 82 24 10 0 0 -17
 84 0 29 93 30 82 225 159 0 227 +16 159 6 0 ?84 228 157 229 0 0 1 16 228 11 0 ?9
3 186 159 230 0 0 1 30 229 9 0 159 0 230 0 +-.06 .01 -.028 -1206764157201256e-30
 0 1 30 230 14 0 228 229 210 0 +-.06 .01 .018 .99936285434755 0 -.03569153051241
125 30 210 19 0 186 230 209 0 +-.032 .01 .017 0 0 -1 16 186 16 0 ?96 205 228 210
 0 0 1 17 96 0 29 99 93 94 181 186 0 185 +17 99 0 29 102 96 97 197 205 0 195 +17
 93 0 29 96 84 89 88 228 0 182 +17 185 0 180 181 50 94 178 176 0 197 -17 197 0 1
94 178 195 94 99 205 0 0 -17 88 0 187 24 182 82 93 228 0 84 -15 187 207 0 47 231
 0 17 24 0 187 47 88 42 227 10 0 139 +17 47 0 187 182 24 45 44 140 0 179 +14 255
 231 208 232 ?184 16 187 5 18 -0 0 184 16 23 81 1 232 272 233 231 0 0 234 235 23
6 14 184 206 235 ?196 231 180 5 237 -0 0 196 231 23 14 16 210 234 ?231 0 226 5 6
 -0 0 231 0 23 50 18 233 0 231 237 6 0 +-.06 .01 .018 -.03569153051241125 0 -.99
936285434755 -.99936285434755 0 .03569153051241125 13 23 3 0 0 0 0 0 0 9 16 50 2
37 232 0 184 238 18 0 +-.032 .01 .017 -1 0 0 0 0 1 50 238 231 0 196 239 237 0 +-
.032 .01 .003999999999999925 235813972515597e-29 0 -1 -1 0 -235813972515597e-29
 14 196 204 240 ?200 184 194 5 238 -0 0 200 184 23 50 239 230 0 200 241 238 0 +1
52288934501116e-31 .01 .004 1 0 1171453342316276e-30 1171453342316276e-30 0 -1 1
4 200 202 242 ?243 196 199 5 239 -0 0 243 196 23 50 241 229 0 243 244 239 0 +0 .
01 .017 0 0 -1 -1 0 0 14 243 200 245 ?216 200 246 5 241 -0 0 216 200 23 50 244 2
28 0 216 247 241 0 +.027 .01 .017 -1 0 -370074341541719e-29 -370074341541719e-29
 0 1 14 216 198 248 ?220 243 215 5 244 -0 0 220 243 23 50 247 227 0 220 249 244
 0 +.027 .01 -.028 0 0 1 1 0 0 14 220 196 250 ?125 216 218 5 247 -0 0 125 216 23
 50 249 226 0 125 251 247 0 +-14210854715202e-30 .01 -.028 1 0 0 0 0 -1 14 125 1
94 252 ?131 220 121 5 249 -0 0 131 220 23 50 251 225 0 131 253 249 0 +-142108547
15202e-30 .01 -.009 0 0 1 1 0 0 14 131 192 254 ?255 125 70 5 251 -0 0 255 125 23
 50 253 224 0 255 256 251 0 +-.031 .01 -.009 -1 0 -365204942310907e-29 -36520494
2310907e-29 0 1 14 255 190 257 ?224 131 78 5 253 -0 0 224 131 23 50 256 223 0 22
4 258 253 0 +-.031 .01 -.028 0 0 1 1 0 0 14 224 188 259 ?115 255 222 5 256 -0 0
 115 255 23 50 258 150 0 191 260 256 0 +-.06 0 .00399999999999986 0 1 0 0 0 1 14
 191 98 261 ?0 115 188 5 258 -0 0 0 115 23 50 260 65 0 115 0 258 0 +-.06 .01 .00
399999999999986 0 1 0 0 0 1 14 115 64 262 ?191 224 29 5 260 +0 0 191 224 23 81 1
 262 283 233 115 0 0 259 261 263 80 255 1 233 0 264 8001 0 0 0 0 3 5 0 0 0 FFFFT
FTFFFFFFF2 81 1 259 282 233 224 0 0 257 262 265 81 1 261 284 233 191 0 0 262 0 2
66 83 255 3 263 .5960784 .6666667 .6862745 83 3 266 .5960784 .6666667 .6862745 8
1 1 257 281 233 255 0 0 254 259 267 83 3 265 .5960784 .6666667 .6862745 81 1 254
 280 233 131 0 0 252 257 268 83 3 267 .5960784 .6666667 .6862745 81 1 252 279 23
3 125 0 0 250 254 269 83 3 268 .5960784 .6666667 .6862745 81 1 250 278 233 220 0
 0 248 252 270 83 3 269 .5960784 .6666667 .6862745 81 1 248 277 233 216 0 0 245
 250 271 83 3 270 .5960784 .6666667 .6862745 81 1 245 276 233 243 0 0 242 248 27
2 83 3 271 .5960784 .6666667 .6862745 81 1 242 275 233 200 0 0 240 245 273 83 3
 272 .5960784 .6666667 .6862745 81 1 240 274 233 196 0 0 235 242 274 83 3 273 .5
960784 .6666667 .6862745 81 1 235 273 233 184 0 0 232 240 275 83 3 274 .5960784
 .6666667 .6862745 83 3 275 .5960784 .6666667 .6862745 79 255 15 264 SDL/TYSA_CO
LOUR15 78 189 0 76 255 0 15 246 199 0 59 243 0 17 59 0 246 214 172 57 193 148 0
 169 +17 214 0 246 203 59 103 169 167 0 212 -17 172 0 246 59 203 54 201 170 0 19
3 +17 193 0 188 192 217 54 59 148 0 0 -17 169 0 215 62 212 57 214 167 0 217 +17
 217 0 188 193 219 57 62 150 0 0 -17 203 0 246 172 214 100 105 204 0 0 -81 1 234
 271 233 16 0 0 0 232 276 83 3 276 .5960784 .6666667 .6862745 83 3 236 .5960784
 .6666667 .6862745 17 85 0 222 81 87 11 30 86 0 0 -17 34 0 78 32 76 11 81 160 0
 85 -17 32 0 78 75 34 27 26 33 0 0 -17 75 0 78 76 32 68 71 129 0 79 +19 17 236 0
 1 0 9 5 S74 4 CI16 index_map_offset0 0 1 dCCZ20 15 2 0 0 2 261 0 0 0 0 0 0 0 0
 0 0 0 0 0 0 0 0 0 0 80 2 12 277 278 8004 0 0 0 0 3 5 0 0 0 FFTFFFFFFFFFFF2 3 83
 1 13 7830.64 84 255 8 14 Kg/Cu M 79 16 278 SDL/TYSA_DENSITY1 0 
