**ABCDEFGHIJKLMNOPQRSTUVWXYZabcdefghijklmnopqrstuvwxyz**************************
**PARASOLID !"#$%&'()*+,-./:;<=>?@[\]^_`{|}~0123456789**************************
**PART1;
MC=unknown;
MC_MODEL=unknown;
MC_ID=unknown;
OS=unknown;
OS_RELEASE=unknown;
FRU=sdl_parasolid_customer_support;
APPL=.Net Example Application;
SITE=unknown;
USER=unknown;
FORMAT=text;
GUISE=transmit;
KEY=U:\tt1\p_inst_bod1_sheet1.x_t;
FILE=U:\tt1\p_inst_bod1_sheet1.x_t;
DATE=unknown;
**PART2;
SCH=SCH_2000118_20000;USFLD_SIZE=0;
**PART3;
**END_OF_HEADER*****************************************************************
T51 : TRANSMIT FILE created by modeller version 200011823 SCH_2000118_20000_1300
6186 0 12 27 CCCCCCCCCCCCCCCCCCCCCCCA16 index_map_offset0 0 1 dA9 index_map82 0
 A17 node_id_index_map82 0 A20 schema_embedding_map82 0 Z1 92 2 3 0 0 0 0 1e3 1e
-8 0 0 0 1 0 3 1 4 5 6 7 8 9 10 0 0 0 0 81 255 2 2 88 11 1 0 0 0 0 12 13 70 11 C
I9 list_type0 0 1 uI10 notransmit0 0 1 lCCCDCCDI12 finger_index0 0 1 dI12 finger
_block1012 0 CZ3 0 4 T1 0 0 2 20 1 14 14 13 255 4 71 0 1 0 15 0 0 8 15 50 255 5
 18 0 15 16 0 0 +.01 .025 .005 0 0 1 1 0 0 30 255 6 42 0 9 17 0 0 +0 .025 .005 0
 1 0 29 255 7 66 0 10 18 0 0 .05 .005 19 255 8 70 0 1 0 0 4 V16 255 9 41 0 ?19 0
 20 6 0 0 1 18 255 10 64 0 21 0 22 7 ?1 17 255 21 0 23 24 25 10 26 20 0 19 -18 2
2 61 0 27 10 28 18 ?1 17 27 0 29 30 31 22 32 33 0 34 +18 28 58 0 35 22 36 37 ?1
 29 18 63 0 22 37 7 0 0 .005 29 37 60 0 28 38 18 0 .05 0 29 38 57 0 36 39 37 0 0
 0 18 36 55 0 40 28 41 38 ?1 29 39 54 0 41 42 38 .02 0 0 18 41 52 0 43 36 44 39
 ?1 29 42 51 0 44 45 39 .02 0 .005 18 44 49 0 46 41 47 42 ?1 29 45 48 0 47 48 42
 .02 .05 .005 18 47 46 0 49 44 50 45 ?1 29 48 45 0 50 0 45 .02 .05 0 18 50 43 0
 51 47 0 48 ?1 17 51 0 52 49 53 50 43 54 0 55 +15 255 52 8 0 51 56 0 17 49 0 52
 46 51 47 55 57 0 25 +17 53 0 52 51 46 41 31 58 0 59 -17 43 0 60 40 61 41 51 54
 0 53 -16 54 21 0 ?51 57 0 62 0 0 1 17 55 0 0 0 0 50 49 57 0 61 -16 57 23 0 ?49
 63 54 64 0 0 1 17 61 0 60 43 35 50 65 66 0 0 -15 60 12 0 43 67 0 17 35 0 60 61
 40 28 68 69 0 65 -17 65 0 0 0 0 28 61 66 0 0 +16 66 33 0 ?65 33 69 70 0 0 1 16
 33 35 0 ?27 71 66 72 0 0 1 16 69 31 0 ?68 66 73 74 0 0 1 30 70 34 0 66 74 72 0
 +.01 .05 0 -1 0 0 30 74 32 0 69 75 70 0 +0 .025 0 0 -1 0 30 72 36 0 33 70 76 0
 +.01 0 .005 -1 0 0 30 76 38 0 71 72 17 0 +0 0 0 0 0 1 16 71 37 0 ?34 20 33 76 0
 0 1 30 17 40 0 20 76 6 0 +.01 .05 .005 1 0 0 16 20 39 0 ?26 9 71 17 0 0 1 17 26
 0 0 0 0 47 21 20 0 0 +17 34 0 0 0 0 22 30 71 0 24 +17 30 0 29 59 27 36 34 71 0
 0 -17 24 0 23 32 21 22 19 9 0 0 -15 23 20 0 32 15 0 17 32 0 23 25 24 44 27 33 0
 0 -17 19 0 0 0 0 10 24 9 0 0 +17 25 0 23 21 32 47 46 63 0 26 -17 46 0 52 53 49
 44 25 63 0 31 +16 63 25 0 ?46 58 57 77 0 0 1 16 58 27 0 ?31 73 63 78 0 0 1 30 7
7 26 0 63 64 78 0 +.02 .025 .005 0 -1 0 30 64 24 0 57 62 77 0 +.02 .05 0 0 0 1 3
0 78 28 0 58 77 75 0 +.02 0 0 0 0 1 30 75 30 0 73 78 74 0 +.01 0 0 1 0 0 16 73 2
9 0 ?59 69 58 75 0 0 1 17 59 0 29 31 30 41 40 73 0 0 +15 29 16 0 31 79 0 17 31 0
 29 27 59 44 53 58 0 32 +17 40 0 60 35 43 36 59 73 0 68 -17 68 0 0 0 0 36 35 69
 0 30 +14 255 79 13 80 ?67 15 29 4 16 +0 0 67 15 4 81 1 80 90 81 79 0 0 82 83 84
 14 67 9 83 ?56 79 60 4 85 +0 0 56 79 4 14 15 17 82 ?79 0 23 4 5 +0 0 79 0 4 50
 16 14 0 79 85 5 0 +.01 0 0 0 -1 0 0 0 -1 50 85 10 0 67 86 16 0 +.01 .025 0 0 0
 -1 -1 0 0 50 86 2 0 56 0 85 0 +.02 .025 0 1 0 0 0 0 -1 14 56 1 87 ?0 67 52 4 86
 +0 0 0 67 4 81 1 87 92 81 56 0 0 83 0 88 80 255 1 81 0 89 8001 0 0 0 0 3 5 0 0
 0 FFFFTFTFFFFFFF2 81 1 83 91 81 67 0 0 80 87 90 83 255 3 88 .5960784 .6666667 .
6862745 83 3 90 .5960784 .6666667 .6862745 79 255 15 89 SDL/TYSA_COLOUR81 1 82 8
9 81 15 0 0 0 80 91 83 3 91 .5960784 .6666667 .6862745 83 3 84 .5960784 .6666667
 .6862745 30 62 22 0 54 0 64 0 +.02 .025 0 0 1 0 74 4 CI16 index_map_offset0 0 1
 dCCZ20 14 2 0 0 2 87 0 0 0 0 0 0 0 0 0 0 0 0 0 0 0 0 0 0 80 2 11 92 93 8004 0 0
 0 0 3 5 0 0 0 FFTFFFFFFFFFFF2 3 83 1 12 7830.64 84 255 8 13 Kg/Cu M 79 16 93 SD
L/TYSA_DENSITY1 0 
