**ABCDEFGHIJKLMNOPQRSTUVWXYZabcdefghijklmnopqrstuvwxyz**************************
**PARASOLID !"#$%&'()*+,-./:;<=>?@[\]^_`{|}~0123456789**************************
**PART1;
MC=unknown;
MC_MODEL=unknown;
MC_ID=unknown;
OS=unknown;
OS_RELEASE=unknown;
FRU=sdl_parasolid_customer_support;
APPL=.Net Example Application;
SITE=unknown;
USER=unknown;
FORMAT=text;
GUISE=transmit;
KEY=U:\finstd\p_inst_bod4.x_t;
FILE=U:\finstd\p_inst_bod4.x_t;
DATE=unknown;
**PART2;
SCH=SCH_2000118_20000;USFLD_SIZE=0;
**PART3;
**END_OF_HEADER*****************************************************************
T51 : TRANSMIT FILE created by modeller version 200011823 SCH_2000118_20000_1300
6186 0 12 27 CCCCCCCCCCCCCCCCCCCCCCCA16 index_map_offset0 0 1 dA9 index_map82 0
 A17 node_id_index_map82 0 A20 schema_embedding_map82 0 Z1 825 2 3 0 0 0 0 1e3 1
e-8 0 4 0 1 0 1 1 5 6 7 8 9 10 11 0 0 0 0 81 255 2 2 800 12 1 13 0 0 0 14 0 70 1
1 CI9 list_type0 0 1 uI10 notransmit0 0 1 lCCCDCCDI12 finger_index0 0 1 dI12 fin
ger_block1012 0 CZ3 0 4 T1 0 0 6 20 1 15 15 13 255 5 3 0 1 0 16 0 0 17 0 50 255
 6 54 0 18 19 0 0 +.002 .002 .02 0 0 1 1 0 0 30 255 7 734 0 1 20 0 21 +0 .025 .0
1 0 -1 0 29 255 8 173 0 11 22 0 0 .004 .015 19 255 9 1 0 1 17 0 23 V16 255 10 34
 0 ?24 0 25 26 0 0 1 18 255 11 169 0 27 0 28 8 1e-8 1 17 255 27 0 29 30 31 11 32
 33 0 34 +18 28 164 0 35 11 36 22 1e-8 1 17 35 0 37 38 39 28 40 41 0 42 +18 36 1
58 0 39 28 43 44 1e-8 1 29 22 168 0 28 44 8 0 .004 .01 29 44 161 0 36 45 22 0 .0
04 .005 29 45 133 0 43 46 44 .004 0 .015 18 43 129 0 47 36 48 45 1e-8 1 29 46 12
8 0 48 49 45 .004 0 .01 18 48 124 0 50 43 51 46 1e-8 1 29 49 117 0 51 52 46 .004
 .004 .015 18 51 113 0 53 48 54 49 1e-8 1 29 52 105 0 54 55 49 .004 .004 .005 18
 54 102 0 56 51 57 52 1e-8 1 29 55 58 0 57 58 52 0 0 .02 18 57 23 0 24 54 59 55
 ?1 29 58 57 0 59 60 55 0 .004 .02 18 59 21 0 30 57 61 58 ?1 29 60 56 0 61 62 58
 .004 .004 .02 18 61 19 0 63 59 64 60 ?1 29 62 55 0 64 65 60 .004 0 .02 18 64 17
 0 66 61 67 62 ?1 29 65 41 0 67 68 62 0 0 0 18 67 11 0 69 64 70 65 ?1 29 68 667
 0 70 71 65 .004 .004 .01 18 70 480 0 72 67 73 68 1e-8 1 29 71 669 0 73 74 68 0
 .05 .015 18 73 476 0 75 70 76 71 ?1 29 74 670 0 76 77 71 .02 .05 .015 18 76 478
 0 78 73 79 74 ?1 29 77 671 0 79 80 74 .02 0 .015 18 79 471 0 81 76 82 77 ?1 29
 80 672 0 83 84 77 0 .05 .01 18 83 477 0 85 82 86 80 ?1 29 84 673 0 82 87 80 .02
 .05 .01 18 82 479 0 88 79 83 84 ?1 29 87 674 0 86 89 84 .02 0 .01 18 86 469 0 9
0 83 91 87 ?1 29 89 684 0 91 92 87 .004 0 .005 18 91 472 0 93 86 94 89 1e-8 1 29
 92 685 0 94 95 89 0 .05 .005 18 94 466 0 96 91 97 92 ?1 29 95 686 0 97 98 92 .0
2 .05 .005 18 97 481 0 99 94 100 95 ?1 29 98 687 0 100 101 95 .02 0 .005 18 100
 483 0 102 97 103 98 ?1 29 101 688 0 104 105 98 0 .05 0 18 104 487 0 106 103 107
 101 ?1 29 105 689 0 103 108 101 .02 .05 0 18 103 482 0 109 100 104 105 ?1 29 10
8 690 0 107 0 105 .02 0 0 18 107 467 0 110 104 0 108 ?1 17 110 0 111 112 69 107
 113 114 0 115 +15 255 111 32 0 110 116 0 17 112 0 111 117 110 100 115 118 0 0 +
17 69 0 111 110 24 67 119 120 0 121 -17 113 0 122 106 123 67 110 114 0 0 -16 114
 12 0 ?110 124 125 126 0 0 1 17 115 0 127 128 129 107 112 118 0 123 -15 127 569
 0 128 130 0 17 128 0 127 131 115 103 123 132 0 0 +17 129 0 127 115 131 100 133
 134 0 112 +16 118 342 0 ?112 135 132 136 0 0 1 17 123 0 122 113 137 107 128 132
 0 0 -15 122 8 0 123 138 0 17 137 0 122 123 106 103 139 140 0 128 -16 132 395 0
 ?128 118 140 141 0 0 1 16 140 405 0 ?139 132 0 142 0 0 1 30 141 661 0 132 0 142
 0 +.02 .025 0 0 1 0 30 142 660 0 140 141 136 0 +.01 .05 0 -1 0 0 30 136 659 0 1
18 142 143 0 +.02 0 0 0 0 1 30 143 658 0 135 136 144 0 +.02 .05 0 0 0 1 16 135 3
97 0 ?131 145 118 143 0 0 1 30 144 657 0 145 143 146 0 +0 .05 0 0 0 1 16 145 401
 0 ?147 134 135 144 0 0 1 30 146 656 0 134 144 148 0 +.02 .025 .005 0 -1 0 16 13
4 399 0 ?129 149 145 146 0 0 1 30 148 655 0 149 146 150 0 +.01 .05 .005 1 0 0 16
 149 403 0 ?99 151 134 148 0 0 1 30 150 636 0 152 148 153 0 +.02 .025 .01 0 1 0
 16 152 389 0 ?154 155 156 150 0 0 1 30 153 635 0 156 150 157 0 +.01 .05 .01 -1
 0 0 16 156 387 0 ?158 152 159 153 0 0 1 30 157 633 0 155 153 160 0 +.02 0 .01 0
 0 1 16 155 348 0 ?161 162 152 157 0 0 1 30 160 632 0 162 157 163 0 +.02 .05 .01
 0 0 1 16 162 391 0 ?164 165 155 160 0 0 1 30 163 631 0 165 160 166 0 +0 .05 .01
 0 0 1 16 165 383 0 ?167 168 162 163 0 0 1 30 166 630 0 168 163 169 0 +.02 .025
 .015 0 -1 0 16 168 393 0 ?170 171 165 166 0 0 1 30 169 629 0 171 166 172 0 +.01
 .05 .015 1 0 0 16 171 385 0 ?78 173 168 169 0 0 1 30 172 50 0 1 169 174 175 +.0
04 0 0 0 0 1 30 174 51 0 1 172 176 177 +.004 .004 0 0 0 1 141 255 175 178 179 17
9 172 133 255 178 122 0 180 181 182 0 +172 .004 0 .005 .004 0 .01 .005 .01 141 1
79 182 175 175 172 133 182 132 0 183 178 184 0 +172 .004 0 .015 .004 0 .02 .015
 .02 16 183 130 0 ?66 180 124 182 0 0 1 133 184 162 0 41 182 185 0 +176 0 .004 .
005 0 .004 .01 .005 .01 16 41 22 0 ?35 120 186 184 0 0 1 133 185 172 0 186 184 1
87 0 +176 0 .004 .015 0 .004 .02 .015 .02 30 176 52 0 1 174 188 189 +0 .004 0 0
 0 1 30 188 53 0 120 176 190 0 +0 0 0 0 0 1 141 189 184 191 191 176 141 191 185
 189 189 176 16 120 24 0 ?119 192 41 188 0 0 1 30 190 59 0 192 188 193 0 +.004 .
002 .02 0 -1 0 16 192 25 0 ?194 195 120 190 0 0 1 30 193 60 0 195 190 196 0 +.00
2 .004 .02 1 0 0 16 195 28 0 ?197 25 192 193 0 0 1 30 196 61 0 25 193 26 0 +0 .0
02 .02 0 1 0 16 25 31 0 ?198 10 195 196 0 0 1 30 26 62 0 10 196 199 0 +.002 0 .0
2 -1 0 0 133 199 106 0 200 26 181 0 +174 .004 .004 .005 .004 .004 .01 .005 .01 1
6 200 20 0 ?72 186 201 199 0 0 1 133 181 116 0 201 199 178 0 +174 .004 .004 .015
 .004 .004 .02 .015 .02 16 201 114 0 ?63 200 180 181 0 0 1 17 63 0 202 194 53 61
 31 201 0 197 +16 180 18 0 ?203 201 183 178 0 0 1 17 203 0 111 90 117 48 93 180
 0 204 +17 90 0 111 161 203 86 204 205 0 206 +17 117 0 111 203 112 91 102 207 0
 0 +17 93 0 208 56 50 91 203 180 0 209 -17 204 0 210 211 212 48 90 205 0 0 -15 2
10 557 0 42 213 0 17 211 0 210 42 204 70 50 214 0 0 -17 212 0 210 204 215 86 154
 152 0 0 -16 205 346 0 ?90 159 33 216 0 0 1 16 159 376 0 ?217 156 205 20 0 0 1 1
6 33 437 0 ?27 205 218 219 0 0 1 133 216 721 0 205 220 221 0 +221 .004 0 .01 .02
 0 .01 -.006 .01 30 220 718 0 1 222 216 223 +.01 .004 .01 1 0 0 30 221 722 0 1 2
16 224 225 +.01 0 .01 1 0 0 133 224 723 0 218 221 226 0 +226 .004 0 .015 .004 .0
04 .015 -.025 -.021 141 225 216 225 225 221 16 218 449 0 ?53 33 227 224 0 0 1 30
 226 724 0 1 224 228 229 +.004 .025 .015 0 1 0 133 228 725 0 230 226 231 0 +231
 .02 0 .015 .004 0 .015 -.01 .006 141 229 224 229 229 226 16 230 350 0 ?232 214
 173 228 0 0 1 30 231 726 0 1 228 219 233 +.01 0 .015 -1 0 0 133 219 727 0 33 23
1 234 0 +234 .004 .004 .015 0 .004 .015 .006 .01 141 233 228 233 233 231 30 234
 728 0 1 219 235 236 +.01 .004 .015 -1 0 0 133 235 731 0 173 234 237 0 +237 0 .0
04 .015 0 .05 .015 -.021 .025 141 236 219 236 236 234 16 173 381 0 ?75 230 171 2
35 0 0 1 30 237 732 0 1 235 20 238 +0 .025 .015 0 1 0 133 20 733 0 159 237 7 0 +
7 0 .05 .01 0 .004 .01 -.025 .021 141 238 235 238 238 237 17 75 0 239 85 34 73 2
40 173 0 241 +15 239 29 0 119 242 0 17 85 0 239 217 75 83 167 165 0 158 -17 34 0
 239 75 198 11 30 186 0 240 -17 240 0 243 32 241 11 75 173 0 0 -17 241 0 243 240
 244 73 78 171 0 167 -15 243 532 0 32 245 0 17 244 0 243 241 81 76 170 168 0 164
 -17 78 0 246 88 167 76 241 171 0 244 +17 167 0 246 78 158 73 85 165 0 0 +15 246
 551 0 167 247 0 17 158 0 246 167 88 83 215 156 0 248 +17 88 0 246 158 78 82 164
 162 0 215 -17 215 0 210 212 248 82 158 156 0 154 -17 248 0 210 215 42 83 217 15
9 0 0 -17 42 0 210 248 211 28 38 125 0 217 -17 217 0 239 40 85 28 248 159 0 0 +1
7 40 0 239 96 217 36 35 41 0 249 -17 96 0 239 250 40 94 249 151 0 251 +17 249 0
 252 253 251 36 96 151 0 0 -15 252 581 0 249 254 0 17 253 0 252 209 249 54 39 25
5 0 0 +17 251 0 252 249 133 94 99 149 0 147 -16 151 335 0 ?96 207 149 256 0 0 1
 16 207 344 0 ?117 255 151 257 0 0 1 133 256 704 0 151 258 259 0 +259 0 .004 .00
5 0 .05 .005 -.021 .025 30 258 703 0 1 260 256 261 +.002 .004 .005 1 0 0 30 259
 705 0 1 256 262 263 +0 .025 .005 0 1 0 133 262 707 0 124 259 264 0 +264 0 .05 0
 0 0 0 -.048 .002 141 263 256 263 263 259 16 124 14 0 ?121 183 114 262 0 0 1 30
 264 708 0 1 262 126 265 +0 .002 0 0 -1 0 133 126 709 0 114 264 266 0 +266 0 0 0
 .02 0 0 -.002 .018 141 265 262 265 265 264 30 266 710 0 1 126 267 268 +.002 0 0
 1 0 0 133 267 715 0 214 266 269 0 +269 .004 .004 .01 .004 0 .01 .021 .025 141 2
68 126 268 268 266 16 214 419 0 ?50 125 230 267 0 0 1 30 269 716 0 1 267 222 270
 +.004 .025 .01 0 -1 0 133 222 717 0 125 269 220 0 +220 0 .004 .01 .004 .004 .01
 -.01 -.006 141 270 267 270 270 269 16 125 433 0 ?38 114 214 222 0 0 1 17 38 0 3
7 271 35 70 42 125 0 211 +15 37 183 0 38 272 0 17 271 0 37 39 38 54 72 200 0 253
 -17 39 0 37 35 271 36 253 255 0 40 -17 72 0 208 50 56 70 271 200 0 38 +15 208 1
43 0 50 273 0 17 50 0 208 93 72 48 211 214 0 203 +17 56 0 208 72 93 54 209 227 0
 271 -17 209 0 252 102 253 91 56 227 0 117 +16 227 411 0 ?209 218 255 187 0 0 1
 16 255 407 0 ?253 227 207 260 0 0 1 133 187 698 0 227 185 274 0 +274 .004 .004
 .005 .004 0 .005 -.002 .002 30 274 699 0 1 187 257 275 +.004 .002 .005 0 -1 0 1
33 257 700 0 207 274 276 0 +276 .02 0 .005 .004 0 .005 -.01 .006 141 275 187 275
 275 274 30 276 701 0 1 257 260 277 +.01 0 .005 -1 0 0 133 260 702 0 255 276 258
 0 +258 0 .004 .005 .004 .004 .005 -.002 .002 141 277 257 277 277 276 17 102 0 2
52 133 209 100 117 207 0 129 -17 133 0 252 251 102 97 129 134 0 131 -17 131 0 12
7 129 128 97 109 135 0 0 +17 109 0 278 139 99 103 131 135 0 137 -15 278 575 0 14
7 279 0 17 139 0 278 147 109 104 137 140 0 0 +17 99 0 278 109 147 97 251 149 0 1
33 +17 147 0 278 99 139 94 250 145 0 0 +17 250 0 239 121 96 104 147 145 0 139 -1
7 121 0 239 119 250 67 106 124 0 113 +17 119 0 239 198 121 57 69 120 0 0 +17 106
 0 122 137 113 104 121 124 0 250 -17 198 0 239 34 119 59 280 25 0 281 +17 280 0
 282 283 281 57 198 25 0 119 -17 281 0 282 280 284 59 197 195 0 0 -15 282 35 0 2
83 18 0 17 284 0 282 281 283 61 194 192 0 0 -17 197 0 29 31 30 61 281 195 0 284
 +15 29 191 0 27 16 0 17 31 0 29 27 197 51 63 201 0 32 -17 30 0 29 197 27 59 34
 186 0 198 +16 186 170 0 ?30 41 200 185 0 0 1 17 32 0 243 285 240 51 27 33 0 0 -
17 285 0 243 81 32 43 53 218 0 232 -17 81 0 243 244 285 79 232 230 0 170 -17 53
 0 202 63 47 51 285 218 0 31 +17 232 0 111 66 161 43 81 230 0 0 +17 66 0 111 24
 232 64 47 183 0 283 +17 161 0 111 232 90 79 206 155 0 0 +17 206 0 286 154 170 8
6 161 155 0 212 -15 286 563 0 154 287 0 17 154 0 286 164 206 82 212 152 0 0 +17
 170 0 286 206 164 79 244 168 0 161 +17 164 0 286 170 154 76 88 162 0 0 +14 255
 287 558 288 ?0 213 286 5 289 +0 0 0 213 23 81 1 288 825 290 287 291 0 292 0 293
 14 213 552 292 ?287 247 210 5 294 +0 0 287 247 23 50 289 606 0 287 294 295 0 +.
02 .025 .01 1 0 0 0 0 -1 13 23 4 0 0 0 0 0 0 9 16 14 16 186 296 ?297 0 29 5 298
 +272 272 297 0 23 81 1 296 801 290 16 299 0 0 300 301 14 297 146 300 ?18 16 202
 5 302 +273 273 18 16 23 50 298 47 0 272 302 303 0 +.002 .004 0 0 1 0 0 0 1 14 2
72 27 304 ?138 242 37 5 298 +16 16 138 242 23 81 1 304 808 290 272 305 0 306 307
 308 14 138 9 307 ?273 272 122 5 309 +0 0 273 272 23 14 242 30 306 ?272 116 239
 5 303 +0 0 272 116 23 81 1 306 807 290 242 310 0 311 304 312 14 116 33 311 ?242
 18 111 5 19 +0 0 242 18 23 50 303 48 0 242 298 19 0 +0 .002 0 -1 0 0 0 0 1 50 1
9 49 0 116 303 6 0 +.002 0 0 0 -1 0 0 0 -1 81 1 311 805 290 116 313 0 314 306 31
5 14 18 36 314 ?116 297 282 5 6 +0 0 116 297 23 81 1 314 803 290 18 316 0 300 31
1 317 80 255 1 290 0 318 8001 0 0 0 0 3 5 0 0 0 FFFFTFTFFFFFFF2 81 3 316 786 319
 18 320 314 321 322 323 324 0 81 1 300 802 290 297 325 0 296 314 326 83 255 3 31
7 .5960784 .6666667 .6862745 81 3 325 791 319 297 327 300 328 329 330 331 0 83 3
 326 .5960784 .6666667 .6862745 80 3 319 332 333 9000 0 0 0 0 3 6 0 0 0 FFFFTFTT
FFFFFF1 1 3 81 3 327 782 319 297 0 325 334 335 336 337 0 81 3 328 790 319 116 33
4 338 299 325 339 340 0 81 3 329 792 319 273 335 341 325 342 343 344 0 82 255 1
 330 0 82 1 331 127 14 273 2 341 ?279 138 208 5 302 +297 297 279 138 23 81 3 335
 783 319 273 0 329 327 345 346 347 0 81 1 341 811 290 273 329 0 307 348 349 81 3
 342 793 319 245 0 350 329 338 351 352 0 82 1 343 0 82 1 344 127 14 245 527 353
 ?247 254 243 5 354 +0 0 247 254 23 81 1 350 818 355 245 342 353 356 357 358 81
 3 338 794 319 116 328 313 342 359 360 361 0 82 1 351 0 82 1 352 170 81 1 313 80
4 355 116 338 311 0 310 362 81 3 359 795 319 242 322 310 338 363 364 365 0 82 1
 360 0 82 1 361 171 81 3 322 787 319 242 366 359 316 305 367 368 0 81 1 310 806
 355 242 359 306 313 369 370 81 3 363 796 319 247 0 357 359 371 372 373 0 82 1 3
64 0 82 1 365 172 14 247 546 374 ?213 245 246 5 295 +0 0 213 245 23 81 1 357 820
 355 247 363 374 350 375 376 81 3 371 797 319 213 0 375 363 377 378 379 0 82 1 3
72 0 82 1 373 173 81 1 375 822 355 213 371 292 357 291 380 81 3 377 798 319 287
 0 291 371 0 381 382 0 82 1 378 0 82 1 379 174 81 1 291 824 355 287 377 288 375
 0 383 82 1 381 0 82 1 382 175 80 1 355 384 385 8015 0 0 0 0 3 5 0 0 0 FFFFTFFFF
FFFFF2 83 1 383 0 79 255 21 385 SDL/TYSA_TRANSLUCENCY81 1 292 823 290 213 375 0
 374 288 386 83 1 380 0 81 1 374 821 290 247 357 0 353 292 387 83 3 386 .5960784
 .6666667 .6862745 81 1 353 819 290 245 350 0 388 374 389 83 3 387 .5960784 .666
6667 .6862745 81 1 388 817 290 254 356 0 390 353 391 83 3 389 .5960784 .6666667
 .6862745 14 254 576 388 ?245 130 252 5 392 +0 0 245 130 23 81 1 356 816 355 254
 393 388 394 350 395 81 1 390 815 290 130 394 0 348 388 396 83 3 391 .5960784 .6
666667 .6862745 14 130 564 390 ?254 279 127 5 397 +0 0 254 279 23 81 1 394 814 3
55 130 398 390 399 356 400 81 1 348 813 290 279 399 0 341 390 401 83 3 396 .5960
784 .6666667 .6862745 14 279 570 348 ?130 273 278 5 402 +0 0 130 273 23 81 1 399
 812 355 279 403 348 369 394 404 83 3 401 .5960784 .6666667 .6862745 81 3 403 77
4 319 279 0 399 405 393 406 407 0 81 1 369 809 355 138 321 307 310 399 408 83 1
 404 0 81 3 321 785 319 138 345 369 345 316 409 410 0 81 1 307 810 290 138 369 0
 304 341 411 83 1 408 0 83 3 411 .5960784 .6666667 .6862745 81 3 345 784 319 138
 412 321 335 321 413 414 0 82 1 409 0 82 1 410 122 81 3 412 771 319 138 0 345 0
 398 415 416 0 82 1 413 0 82 1 414 103 81 3 398 772 319 130 0 394 412 405 417 41
8 0 82 1 415 0 82 1 416 11 81 3 405 773 319 242 0 366 398 403 419 420 0 82 1 417
 0 82 1 418 12 81 3 366 778 319 242 405 322 320 421 422 423 0 82 1 419 0 82 1 42
0 13 81 3 320 777 319 18 0 316 424 366 425 426 0 81 3 421 779 319 16 0 299 366 4
27 428 429 0 82 1 422 0 82 1 423 99 81 3 299 789 319 16 421 296 305 328 430 431
 0 81 3 427 780 319 272 0 305 421 334 432 433 0 82 1 428 0 82 1 429 100 81 3 305
 788 319 272 427 304 322 299 434 435 0 81 3 334 781 319 116 424 328 427 327 436
 437 0 82 1 432 0 82 1 433 100 81 3 424 776 319 116 0 334 393 320 438 439 0 82 1
 436 0 82 1 437 101 81 3 393 775 319 254 0 356 403 424 440 441 0 82 1 438 0 82 1
 439 16 82 1 440 0 82 1 441 15 82 1 434 0 82 1 435 125 82 1 430 0 82 1 431 125 8
2 1 425 0 82 1 426 98 82 1 406 0 82 1 407 14 50 402 613 0 279 397 392 0 +.01 .05
 0 0 1 0 0 0 1 50 397 614 0 130 0 402 0 +.02 .025 0 1 0 0 0 0 -1 50 392 612 0 25
4 402 294 0 +.01 .025 .005 0 0 1 1 0 0 50 294 607 0 213 392 289 0 +.01 .025 .01
 0 0 -1 -1 0 0 83 1 400 0 83 1 395 0 83 1 376 0 50 295 605 0 247 289 354 0 +.01
 .05 .01 0 1 0 0 0 1 50 354 602 0 245 295 309 0 +.01 .025 .015 0 0 1 1 0 0 50 30
9 37 0 138 354 302 0 +.002 .002 0 0 0 -1 -1 0 0 50 302 46 0 273 309 298 0 +.004
 .002 0 1 0 0 0 0 -1 83 1 370 0 82 1 367 0 82 1 368 124 83 1 362 0 83 1 358 0 83
 3 349 .5960784 .6666667 .6862745 82 1 346 0 82 1 347 102 82 1 339 0 82 1 340 12
6 82 1 336 0 82 1 337 102 79 27 333 MONIKER/MONIKER_DATA_ATTRIB82 1 323 0 82 1 3
24 123 79 15 318 SDL/TYSA_COLOUR83 3 315 .5960784 .6666667 .6862745 83 3 312 .59
60784 .6666667 .6862745 83 3 308 .5960784 .6666667 .6862745 15 202 151 0 53 297
 0 83 3 301 .5960784 .6666667 .6862745 83 3 293 .5960784 .6666667 .6862745 17 24
 0 111 69 66 57 283 10 0 280 +17 47 0 202 53 194 43 66 183 0 285 -17 283 0 282 2
84 280 64 24 10 0 194 -17 194 0 202 47 63 64 284 192 0 0 +141 261 260 261 261 25
8 141 223 222 223 223 220 141 177 199 442 442 174 141 442 181 177 177 174 19 17
 5 0 1 0 9 5 S141 21 20 21 21 7 74 4 CI16 index_map_offset0 0 1 dCCZ20 15 6 0 0
 288 443 377 13 2 291 0 0 0 0 0 0 0 0 0 0 0 0 0 0 81 2 443 770 444 1 0 13 0 0 44
5 446 81 3 13 799 447 1 443 2 0 0 448 449 450 80 3 447 319 451 9000 0 0 0 0 3 6
 0 0 0 FFTFFFFFFFFFFF3 3 1 84 255 38 448 {9ccd3f38-3f38-4e5b-bf3a-62a25f7ef09d}8
4 18 449 NX 7.5.0.26-berryr82 1 450 0 79 25 451 MONIKER/GUID_TABLE_ATTRIB80 2 44
4 452 453 8004 0 0 0 0 3 5 0 0 0 FFTFFFFFFFFFFF2 3 83 1 445 7830.64 84 8 446 Kg/
Cu M 79 16 453 SDL/TYSA_DENSITY80 2 12 447 454 9000 2 2 2 2 3 6 0 0 0 FFTFFFFFFF
FFFF2 3 83 1 14 3574 79 22 454 MONIKER/BODY_ID_ATTRIB1 0 
