**ABCDEFGHIJKLMNOPQRSTUVWXYZabcdefghijklmnopqrstuvwxyz**************************
**PARASOLID !"#$%&'()*+,-./:;<=>?@[\]^_`{|}~0123456789**************************
**PART1;
MC=Intel x86/Windows NT;
MC_MODEL=genuineintel family 6 model 15 stepping 2, intel(r) core(tm)2 cpu          6400  @ 2.13ghz;
MC_ID=cbrint148;
OS=windows nt;
OS_RELEASE=5.1 (workstation) (build 2600: service pack 2) ;
FRU=mdc_ugii_v7.0_djl_can_vrh;
APPL=unigraphics;
SITE=unknown;
USER=berryr;
FORMAT=text;
GUISE=transmit;
KEY=inst_bod_prism;
FILE=U:\temp_run_ug_directory\inst_bod_prism.x_t;
DATE=12-jan-2010;
**PART2;
SCH=SCH_2201127_20000;
USFLD_SIZE=0;
**PART3;
**END_OF_HEADER*****************************************************************
T51 : TRANSMIT FILE created by modeller version 220112723 SCH_2201127_20000_1300
6186 0 12 27 CCCCCCCCCCCCCCCCCCCCCCCA16 index_map_offset0 0 1 dA9 index_map82 0
 A17 node_id_index_map82 0 A20 schema_embedding_map82 0 Z1 114 2 3 0 0 0 0 1e3 1
e-8 0 4 0 1 0 1 1 5 6 7 8 9 10 11 0 0 0 0 81 255 2 2 109 12 1 13 0 0 0 14 0 70 1
1 CI9 list_type0 0 1 uI10 notransmit0 0 1 lCCCDCCDI12 finger_index0 0 1 dI12 fin
ger_block1012 0 CZ3 0 4 T1 0 0 5 20 1 15 15 13 255 5 3 0 1 0 16 0 0 17 0 50 255
 6 72 0 16 18 0 0 +.0118810684770611 .01414668800463448 .023 .905949405681461 -.
4233859638030145 0 .4233859638030145 .905949405681461 0 30 255 7 69 0 19 20 0 0
 +.0118810684770611 .01414668800463448 .023 0 0 -1 29 255 8 55 0 21 22 0 .008247
85132920774 .01428324845028418 .003 19 255 9 1 0 1 17 0 23 V16 255 10 59 0 ?24 0
 25 20 0 0 1 18 255 11 10 0 26 0 27 28 ?1 17 255 26 0 29 30 31 11 32 25 0 33 -18
 27 5 0 34 11 35 36 ?1 29 28 12 0 11 36 37 .00824785132920774 .01428324845028418
 .023 29 36 7 0 27 38 28 .00994345615420823 .01000063952309734 .023 29 37 57 0 3
9 28 22 .0118810684770611 .01414668800463448 .003 18 39 49 0 40 41 0 37 ?1 29 22
 56 0 41 37 8 .00994345615420823 .01000063952309734 .003 18 41 47 0 24 21 39 22
 ?1 17 24 0 42 43 44 41 34 10 0 45 +18 21 45 0 32 35 41 8 ?1 17 32 0 46 45 33 21
 26 25 0 31 +18 35 2 0 47 27 21 38 ?1 17 47 0 42 44 43 35 40 19 0 30 -29 38 4 0
 35 0 36 .0118810684770611 .01414668800463448 .023 15 255 42 65 0 43 16 0 17 44
 0 42 24 47 27 48 49 0 0 +17 43 0 42 47 24 39 50 51 0 0 -17 40 0 29 31 30 39 47
 19 0 52 +16 19 60 0 ?40 25 53 7 0 0 1 17 30 0 29 40 26 35 54 53 0 48 +15 29 61
 0 31 55 0 17 54 0 56 57 48 11 30 53 0 0 -16 53 15 0 ?30 19 58 59 0 0 1 17 48 0
 56 54 57 35 44 49 0 0 -15 56 18 0 48 60 0 17 57 0 56 48 54 27 33 58 0 44 -16 49
 6 0 ?44 58 61 62 0 0 1 16 58 11 0 ?33 53 49 63 0 0 1 16 61 39 0 ?52 49 64 65 0
 0 1 30 62 9 0 49 0 63 0 +.0118810684770611 .01414668800463448 .023 -.4233859638
030145 -.905949405681461 0 30 63 14 0 58 62 59 0 +.00994345615420823 .0100006395
2309734 .023 -.368124552684689 .929776485888247 0 30 59 17 0 53 63 66 0 +.008247
85132920774 .01428324845028416 .023 .999294369607586 -.0375601234100384 0 30 66
 54 0 51 59 67 0 +.0118810684770611 .01414668800463448 .003 -.4233859638030145 -
.905949405681461 0 16 51 43 0 ?50 64 0 66 0 0 1 30 67 53 0 64 66 65 0 +.00994345
615420823 .01000063952309734 .003 -.368124552684689 .929776485888247 0 16 64 41
 0 ?68 61 51 67 0 0 1 30 65 52 0 61 67 69 0 +.00824785132920774 .014283248450284
16 .003 .999294369607586 -.0375601234100384 0 30 69 67 0 25 65 20 0 +.0082478513
2920774 .01428324845028418 .023 0 0 -1 16 25 58 0 ?32 10 19 69 0 0 1 30 20 68 0
 10 69 7 0 +.00994345615420823 .01000063952309734 .023 0 0 -1 17 68 0 70 52 50 2
1 45 64 0 0 +15 70 38 0 50 71 0 17 52 0 70 50 68 39 31 61 0 43 +17 50 0 70 68 52
 41 43 51 0 0 +17 45 0 46 34 32 41 68 64 0 50 -15 46 63 0 45 72 0 17 34 0 46 33
 45 27 24 10 0 57 -17 33 0 46 32 34 11 57 58 0 54 +14 255 72 64 73 ?55 16 46 5 1
8 +0 0 55 16 23 81 1 73 111 74 72 75 0 76 77 78 14 55 62 77 ?60 72 29 5 79 +0 0
 60 72 23 14 16 66 76 ?72 0 42 5 6 +0 0 72 0 23 50 18 71 0 72 79 6 0 +.009943456
15420823 .01000063952309734 .023 -.929776485888247 -.3681245526846895 0 .3681245
526846895 -.929776485888247 0 13 23 73 0 0 0 0 0 0 9 16 50 79 70 0 55 80 18 0 +.
00824785132920774 .01428324845028416 .023 .0375601234100384 .999294369607586 0 -
.999294369607586 .0375601234100384 0 50 80 51 0 71 81 79 0 +.0118810684770611 .0
1414668800463448 .003 0 0 1 1 0 0 14 71 35 82 ?0 60 70 5 80 -0 0 0 60 23 50 81 2
0 0 60 0 80 0 +.0118810684770611 .01414668800463448 .023 0 0 1 1 0 0 14 60 19 83
 ?71 55 56 5 81 +0 0 71 55 23 81 1 83 113 74 60 84 0 77 82 85 80 255 1 74 0 86 8
001 0 0 0 0 3 5 0 0 0 FFFFTFTFFFFFFF2 81 3 84 106 87 60 0 83 88 89 90 91 0 81 1
 77 112 74 55 88 0 73 83 92 81 1 82 114 74 71 89 0 83 0 93 83 255 3 85 .5960784
 .6666667 .6862745 81 3 89 107 87 71 0 82 84 0 94 95 0 83 3 93 .5960784 .6666667
 .6862745 80 3 87 96 97 9000 0 0 0 0 3 6 0 0 0 FFFFTFTTFFFFFF1 1 3 82 255 1 94 0
 82 1 95 50 79 255 27 97 MONIKER/MONIKER_DATA_ATTRIB81 3 88 105 87 55 0 77 75 84
 98 99 0 83 3 92 .5960784 .6666667 .6862745 81 3 75 104 87 72 0 73 100 88 101 10
2 0 82 1 98 0 82 1 99 48 81 3 100 103 87 16 0 76 0 75 103 104 0 82 1 101 0 82 1
 102 47 81 1 76 110 74 16 100 0 0 73 105 82 1 103 0 82 1 104 46 83 3 105 .596078
4 .6666667 .6862745 82 1 90 0 82 1 91 49 79 15 86 SDL/TYSA_COLOUR83 3 78 .596078
4 .6666667 .6862745 17 31 0 29 26 40 21 52 61 0 68 -19 17 74 0 1 0 9 5 S74 4 CI1
6 index_map_offset0 0 1 dCCZ20 15 5 0 0 106 89 13 2 82 0 0 0 0 0 0 0 0 0 0 0 0 0
 0 0 81 2 106 102 107 1 0 13 0 0 108 109 81 3 13 108 110 1 106 2 0 0 111 112 113
 80 3 110 87 114 9000 0 0 0 0 3 6 0 0 0 FFTFFFFFFFFFFF3 3 1 84 255 38 111 {2abed
fe1-dfe1-42a8-b570-363de071a94d}84 18 112 NX 7.5.0.28-berryr82 1 113 0 79 25 114
 MONIKER/GUID_TABLE_ATTRIB80 2 107 115 116 8004 0 0 0 0 3 5 0 0 0 FFTFFFFFFFFFFF
2 3 83 1 108 7830.64 84 8 109 Kg/Cu M 79 16 116 SDL/TYSA_DENSITY80 2 12 110 117
 9000 2 2 2 2 3 6 0 0 0 FFTFFFFFFFFFFF2 3 83 1 14 7008 79 22 117 MONIKER/BODY_ID
_ATTRIB1 0 
