**ABCDEFGHIJKLMNOPQRSTUVWXYZabcdefghijklmnopqrstuvwxyz**************************
**PARASOLID !"#$%&'()*+,-./:;<=>?@[\]^_`{|}~0123456789**************************
**PART1;
MC=unknown;
MC_MODEL=unknown;
MC_ID=unknown;
OS=unknown;
OS_RELEASE=unknown;
FRU=sdl_parasolid_customer_support;
APPL=.Net Example Application;
SITE=unknown;
USER=unknown;
FORMAT=text;
GUISE=transmit;
KEY=U:\finstd\p_inst_bod6.x_t;
FILE=U:\finstd\p_inst_bod6.x_t;
DATE=unknown;
**PART2;
SCH=SCH_2000118_20000;USFLD_SIZE=0;
**PART3;
**END_OF_HEADER*****************************************************************
T51 : TRANSMIT FILE created by modeller version 200011823 SCH_2000118_20000_1300
6186 0 12 27 CCCCCCCCCCCCCCCCCCCCCCCA16 index_map_offset0 0 1 dA9 index_map82 0
 A17 node_id_index_map82 0 A20 schema_embedding_map82 0 Z1 95 2 3 0 0 0 0 1e3 1e
-8 0 4 0 1 0 1 1 5 6 7 8 9 10 11 0 0 0 0 81 255 2 2 89 12 1 0 0 0 0 13 14 70 11
 CI9 list_type0 0 1 uI10 notransmit0 0 1 lCCCDCCDI12 finger_index0 0 1 dI12 fing
er_block1012 0 CZ3 0 4 T1 0 0 2 20 1 15 15 13 255 5 3 0 1 0 16 0 0 17 0 50 255 6
 54 0 16 18 0 0 +.055 .005 .079 0 0 1 1 0 0 30 255 7 62 0 10 19 0 0 +.055 0 .079
 -1 0 0 29 255 8 58 0 11 20 0 .05 0 .079 19 255 9 1 0 1 17 0 21 V16 255 10 34 0
 ?22 0 23 7 0 0 1 18 255 11 23 0 22 0 24 8 ?1 17 255 22 0 25 26 27 11 28 10 0 29
 +18 24 21 0 30 11 31 20 ?1 17 30 0 32 33 34 24 29 23 0 35 +18 31 19 0 36 24 37
 38 ?1 29 20 57 0 24 38 8 .05 .01 .079 29 38 56 0 31 39 20 .06 .01 .079 29 39 55
 0 37 40 38 .06 0 .079 18 37 17 0 28 31 41 39 ?1 29 40 41 0 42 43 39 .05 0 .019
 18 42 11 0 26 44 45 40 ?1 29 43 40 0 44 46 40 .05 .01 .019 18 44 13 0 33 41 42
 43 ?1 29 46 39 0 41 47 43 .06 .01 .019 18 41 15 0 48 37 44 46 ?1 29 47 38 0 45
 0 46 .06 0 .019 18 45 10 0 49 42 0 47 ?1 17 49 0 50 51 52 45 27 53 0 54 -15 255
 50 7 0 51 55 0 17 51 0 50 56 49 41 57 58 0 0 +17 52 0 50 49 56 37 59 60 0 27 +1
7 27 0 25 22 54 37 49 53 0 0 +16 53 18 0 ?27 61 58 62 0 0 1 17 54 0 25 27 26 45
 63 64 0 57 +15 25 32 0 27 65 0 17 26 0 25 54 22 42 34 66 0 67 -17 63 0 68 69 57
 42 54 64 0 0 -16 64 12 0 ?54 70 0 71 0 0 1 17 57 0 68 63 72 45 51 58 0 0 -15 68
 8 0 57 73 0 17 72 0 68 57 69 41 74 75 0 51 -16 58 6 0 ?51 53 75 76 0 0 1 16 75
 16 0 ?74 58 70 77 0 0 1 30 76 43 0 58 71 77 0 +.06 .005 .019 0 1 0 30 71 42 0 6
4 0 76 0 +.055 0 .019 1 0 0 30 77 44 0 75 76 78 0 +.055 .01 .019 -1 0 0 30 78 45
 0 70 77 62 0 +.05 .005 .019 0 -1 0 16 70 14 0 ?67 75 64 78 0 0 1 30 62 50 0 53
 78 79 0 +.06 0 .019 0 0 1 30 79 51 0 61 62 80 0 +.06 .01 .019 0 0 1 16 61 20 0
 ?56 81 53 79 0 0 1 30 80 52 0 81 79 82 0 +.05 .01 .019 0 0 1 16 81 22 0 ?83 66
 61 80 0 0 1 30 82 53 0 66 80 84 0 +.05 0 .019 0 0 1 16 66 24 0 ?34 60 81 82 0 0
 1 30 84 59 0 60 82 85 0 +.06 .005 .079 0 -1 0 16 60 25 0 ?52 86 66 84 0 0 1 30
 85 60 0 86 84 19 0 +.055 .01 .079 1 0 0 16 86 28 0 ?36 23 60 85 0 0 1 30 19 61
 0 23 85 7 0 +.05 .005 .079 0 1 0 16 23 31 0 ?30 10 86 19 0 0 1 17 36 0 87 48 83
 31 35 86 0 59 +15 87 26 0 83 88 0 17 48 0 87 74 36 41 56 61 0 72 -17 83 0 87 36
 74 24 33 81 0 0 +17 35 0 89 29 59 24 36 86 0 83 -17 59 0 89 35 28 31 52 60 0 56
 -15 89 35 0 28 16 0 17 28 0 89 59 29 37 22 10 0 52 -17 56 0 50 52 51 31 48 61 0
 0 +17 29 0 89 28 35 11 30 23 0 34 -17 34 0 32 30 67 11 26 66 0 0 +15 32 29 0 34
 90 0 17 67 0 32 34 33 42 69 70 0 63 +17 33 0 32 67 30 44 83 81 0 74 -17 69 0 68
 72 63 44 67 70 0 0 -17 74 0 87 83 48 44 72 75 0 69 +14 255 90 30 91 ?88 65 32 5
 92 +0 0 88 65 21 81 1 91 92 93 90 0 0 94 95 96 14 88 27 95 ?73 90 87 5 97 +0 0
 73 90 21 14 65 33 94 ?90 16 25 5 18 +0 0 90 16 21 50 92 48 0 90 97 18 0 +.05 .0
05 .019 -1 0 0 0 0 1 13 21 4 0 0 0 0 0 0 9 16 14 16 36 98 ?65 0 89 5 6 +0 0 65 0
 21 81 1 98 90 93 16 0 0 0 94 99 80 255 1 93 0 100 8001 0 0 0 0 3 5 0 0 0 FFFFTF
TFFFFFFF2 81 1 94 91 93 65 0 0 98 91 101 83 255 3 99 .5960784 .6666667 .6862745
 83 3 101 .5960784 .6666667 .6862745 79 255 15 100 SDL/TYSA_COLOUR50 97 47 0 88
 102 92 0 +.055 .01 .019 0 1 0 0 0 1 50 18 49 0 65 92 6 0 +.055 0 .019 0 -1 0 0
 0 -1 50 102 46 0 55 103 97 0 +.06 .005 .019 1 0 0 0 0 -1 14 55 2 104 ?0 73 50 5
 102 +0 0 0 73 21 50 103 37 0 73 0 102 0 +.055 .005 .019 0 0 -1 -1 0 0 14 73 9 1
05 ?55 88 68 5 103 +0 0 55 88 21 81 1 105 94 93 73 0 0 95 104 106 81 1 95 93 93
 88 0 0 91 105 107 81 1 104 95 93 55 0 0 105 0 108 83 3 106 .5960784 .6666667 .6
862745 83 3 108 .5960784 .6666667 .6862745 83 3 107 .5960784 .6666667 .6862745 8
3 3 96 .5960784 .6666667 .6862745 19 17 5 0 1 0 9 5 S74 4 CI16 index_map_offset0
 0 1 dCCZ20 15 2 0 0 2 104 0 0 0 0 0 0 0 0 0 0 0 0 0 0 0 0 0 0 80 2 12 109 110 8
004 0 0 0 0 3 5 0 0 0 FFTFFFFFFFFFFF2 3 83 1 13 7830.64 84 255 8 14 Kg/Cu M 79 1
6 110 SDL/TYSA_DENSITY1 0 
