**ABCDEFGHIJKLMNOPQRSTUVWXYZabcdefghijklmnopqrstuvwxyz**************************
**PARASOLID !"#$%&'()*+,-./:;<=>?@[\]^_`{|}~0123456789**************************
**PART1;
MC=unknown;
MC_MODEL=unknown;
MC_ID=unknown;
OS=unknown;
OS_RELEASE=unknown;
FRU=sdl_parasolid_customer_support;
APPL=.Net Example Application;
SITE=unknown;
USER=unknown;
FORMAT=text;
GUISE=transmit;
KEY=U:\tt1\p_inst_bod1.x_t;
FILE=U:\tt1\p_inst_bod1.x_t;
DATE=unknown;
**PART2;
SCH=SCH_2000118_20000;USFLD_SIZE=0;
**PART3;
**END_OF_HEADER*****************************************************************
T51 : TRANSMIT FILE created by modeller version 200011823 SCH_2000118_20000_1300
6186 0 12 27 CCCCCCCCCCCCCCCCCCCCCCCA16 index_map_offset0 0 1 dA9 index_map82 0
 A17 node_id_index_map82 0 A20 schema_embedding_map82 0 Z1 82 2 3 0 0 0 0 1e3 1e
-8 0 0 0 1 0 1 1 4 5 6 7 8 9 10 0 0 0 0 81 255 2 2 76 11 1 0 0 0 0 12 13 70 11 C
I9 list_type0 0 1 uI10 notransmit0 0 1 lCCCDCCDI12 finger_index0 0 1 dI12 finger
_block1012 0 CZ3 0 4 T1 0 0 2 20 1 14 14 13 255 4 3 0 1 0 15 0 0 16 0 50 255 5 5
4 0 15 17 0 0 +.01 .025 .005 0 0 1 1 0 0 30 255 6 62 0 9 18 0 0 +.01 0 .005 -1 0
 0 29 255 7 58 0 10 19 0 0 0 .005 19 255 8 1 0 1 16 0 20 V16 255 9 34 0 ?21 0 22
 6 0 0 1 18 255 10 23 0 21 0 23 7 ?1 17 255 21 0 24 25 26 10 27 9 0 28 +18 23 21
 0 29 10 30 19 ?1 17 29 0 31 32 33 23 28 22 0 34 +18 30 19 0 35 23 36 37 ?1 29 1
9 57 0 23 37 7 0 .05 .005 29 37 56 0 30 38 19 .02 .05 .005 29 38 55 0 36 39 37 .
02 0 .005 18 36 17 0 27 30 40 38 ?1 29 39 41 0 41 42 38 0 0 0 18 41 11 0 25 43 4
4 39 ?1 29 42 40 0 43 45 39 0 .05 0 18 43 13 0 32 40 41 42 ?1 29 45 39 0 40 46 4
2 .02 .05 0 18 40 15 0 47 36 43 45 ?1 29 46 38 0 44 0 45 .02 0 0 18 44 10 0 48 4
1 0 46 ?1 17 48 0 49 50 51 44 26 52 0 53 -15 255 49 7 0 50 54 0 17 50 0 49 55 48
 40 56 57 0 0 +17 51 0 49 48 55 36 58 59 0 26 +17 26 0 24 21 53 36 48 52 0 0 +16
 52 18 0 ?26 60 57 61 0 0 1 17 53 0 24 26 25 44 62 63 0 56 +15 24 32 0 26 64 0 1
7 25 0 24 53 21 41 33 65 0 66 -17 62 0 67 68 56 41 53 63 0 0 -16 63 12 0 ?53 69
 0 70 0 0 1 17 56 0 67 62 71 44 50 57 0 0 -15 67 8 0 56 72 0 17 71 0 67 56 68 40
 73 74 0 50 -16 57 6 0 ?50 52 74 75 0 0 1 16 74 16 0 ?73 57 69 76 0 0 1 30 75 43
 0 57 70 76 0 +.02 .025 0 0 1 0 30 70 42 0 63 0 75 0 +.01 0 0 1 0 0 30 76 44 0 7
4 75 77 0 +.01 .05 0 -1 0 0 30 77 45 0 69 76 61 0 +0 .025 0 0 -1 0 16 69 14 0 ?6
6 74 63 77 0 0 1 30 61 50 0 52 77 78 0 +.02 0 0 0 0 1 30 78 51 0 60 61 79 0 +.02
 .05 0 0 0 1 16 60 20 0 ?55 80 52 78 0 0 1 30 79 52 0 80 78 81 0 +0 .05 0 0 0 1
 16 80 22 0 ?82 65 60 79 0 0 1 30 81 53 0 65 79 83 0 +0 0 0 0 0 1 16 65 24 0 ?33
 59 80 81 0 0 1 30 83 59 0 59 81 84 0 +.02 .025 .005 0 -1 0 16 59 25 0 ?51 85 65
 83 0 0 1 30 84 60 0 85 83 18 0 +.01 .05 .005 1 0 0 16 85 28 0 ?35 22 59 84 0 0
 1 30 18 61 0 22 84 6 0 +0 .025 .005 0 1 0 16 22 31 0 ?29 9 85 18 0 0 1 17 35 0
 86 47 82 30 34 85 0 58 +15 86 26 0 82 87 0 17 47 0 86 73 35 40 55 60 0 71 -17 8
2 0 86 35 73 23 32 80 0 0 +17 34 0 88 28 58 23 35 85 0 82 -17 58 0 88 34 27 30 5
1 59 0 55 -15 88 35 0 27 15 0 17 27 0 88 58 28 36 21 9 0 51 -17 55 0 49 51 50 30
 47 60 0 0 +17 28 0 88 27 34 10 29 22 0 33 -17 33 0 31 29 66 10 25 65 0 0 +15 31
 29 0 33 89 0 17 66 0 31 33 32 41 68 69 0 62 +17 32 0 31 66 29 43 82 80 0 73 -17
 68 0 67 71 62 43 66 69 0 0 -17 73 0 86 82 47 43 71 74 0 68 +14 255 89 30 90 ?87
 64 31 4 91 +0 0 87 64 20 81 1 90 79 92 89 0 0 93 94 95 14 87 27 94 ?72 89 86 4
 96 +0 0 72 89 20 14 64 33 93 ?89 15 24 4 17 +0 0 89 15 20 50 91 48 0 89 96 17 0
 +0 .025 0 -1 0 0 0 0 1 13 20 4 0 0 0 0 0 0 8 15 14 15 36 97 ?64 0 88 4 5 +0 0 6
4 0 20 81 1 97 77 92 15 0 0 0 93 98 80 255 1 92 0 99 8001 0 0 0 0 3 5 0 0 0 FFFF
TFTFFFFFFF2 81 1 93 78 92 64 0 0 97 90 100 83 255 3 98 .5960784 .6666667 .686274
5 83 3 100 .5960784 .6666667 .6862745 79 255 15 99 SDL/TYSA_COLOUR50 96 47 0 87
 101 91 0 +.01 .05 0 0 1 0 0 0 1 50 17 49 0 64 91 5 0 +.01 0 0 0 -1 0 0 0 -1 50
 101 46 0 54 102 96 0 +.02 .025 0 1 0 0 0 0 -1 14 54 2 103 ?0 72 49 4 101 +0 0 0
 72 20 50 102 37 0 72 0 101 0 +.01 .025 0 0 0 -1 -1 0 0 14 72 9 104 ?54 87 67 4
 102 +0 0 54 87 20 81 1 104 81 92 72 0 0 94 103 105 81 1 94 80 92 87 0 0 90 104
 106 81 1 103 82 92 54 0 0 104 0 107 83 3 105 .5960784 .6666667 .6862745 83 3 10
7 .5960784 .6666667 .6862745 83 3 106 .5960784 .6666667 .6862745 83 3 95 .596078
4 .6666667 .6862745 19 16 5 0 1 0 8 4 S74 4 CI16 index_map_offset0 0 1 dCCZ20 14
 2 0 0 2 103 0 0 0 0 0 0 0 0 0 0 0 0 0 0 0 0 0 0 80 2 11 108 109 8004 0 0 0 0 3
 5 0 0 0 FFTFFFFFFFFFFF2 3 83 1 12 7830.64 84 255 8 13 Kg/Cu M 79 16 109 SDL/TYS
A_DENSITY1 0 
