**ABCDEFGHIJKLMNOPQRSTUVWXYZabcdefghijklmnopqrstuvwxyz**************************
**PARASOLID !"#$%&'()*+,-./:;<=>?@[\]^_`{|}~0123456789**************************
**PART1;
MC=unknown;
MC_MODEL=unknown;
MC_ID=unknown;
OS=unknown;
OS_RELEASE=unknown;
FRU=sdl_parasolid_customer_support;
APPL=.Net Example Application;
SITE=unknown;
USER=unknown;
FORMAT=text;
GUISE=transmit;
KEY=X:\Documents\VirfacProjects\NewProject\Geometries\Boolean_3198_part(3198).xmt_txt;
FILE=X:\Documents\VirfacProjects\NewProject\Geometries\Boolean_3198_part(3198).xmt_txt;
DATE=unknown;
**PART2;
SCH=SCH_2600139_25001;USFLD_SIZE=0;
**PART3;
**END_OF_HEADER*****************************************************************
T51 : TRANSMIT FILE created by modeller version 260013923 SCH_2600139_25001_1300
6189 0 12 29 CCCCCCCCCCCCCDI5 owner1040 0 CCCCCCCCCA16 index_map_offset0 0 1 dA9
 index_map82 0 A17 node_id_index_map82 0 A20 schema_embedding_map82 0 A5 child12
 0 A14 lowest_node_id0 0 1 dZ1 505 2 3 0 0 0 0 1e3 1e-8 0 4 0 1 0 6 1 0 5 6 7 8
 9 10 0 0 0 0 0 0 81 255 1 2 356 11 1 0 0 12 13 14 70 11 CI9 list_type0 0 1 uI10
 notransmit0 0 1 lCCCDCCDI12 finger_index0 0 1 dI12 finger_block1012 0 CZ3 96 4
 T1 0 0 3 20 1 15 15 50 255 5 431 0 16 17 0 18 +0 -.2 -.0032 0 0 1 1 0 0 133 255
 6 437 0 19 20 0 0 +20 0 -.2 -.0032 0 0 -.0032 0 .2 29 255 7 489 0 21 22 0 .2 -.
2 -.0032 19 8 CCCCCCCA5 owner12 0 Z8 505 0 1 23 0 24 V0 16 255 9 54 0 1e-6 25 0
 26 0 0 0 1 18 255 10 49 0 27 0 28 29 1e-6 1 17 255 27 0 30 25 31 10 32 33 34 35
 +18 28 47 0 36 10 37 38 1e-6 1 29 29 92 0 10 39 38 -439463280580791e-31 .2 0 29
 39 91 0 40 41 29 .2 .2 -.0032 29 38 93 0 28 29 42 -439463280580791e-31 .2 -.003
2 29 42 492 0 43 38 44 0 -.2 0 18 43 428 0 45 46 47 42 1e-6 1 29 44 491 0 46 42
 22 0 -.2 -.0032 18 46 427 0 48 49 43 44 1e-6 1 29 22 490 0 47 44 7 .2 -.2 0 18
 47 429 0 50 43 21 22 1e-6 1 17 50 0 51 52 45 47 53 54 55 56 +18 21 430 0 57 47
 0 7 1e-6 1 17 57 0 58 48 59 21 60 61 62 63 -15 255 58 408 0 19 16 0 17 48 0 58
 19 57 46 64 65 66 67 -17 59 0 58 57 19 49 68 69 70 60 +17 60 0 71 72 63 49 57 6
1 73 74 +16 61 418 0 1e-6 60 75 76 0 0 0 1 133 62 457 0 57 77 78 0 +77 .2 0 -.00
32 .2 -.2 -.0032 -2755455298081545e-32 .2 17 63 0 71 60 56 21 79 80 81 64 +15 71
 388 0 60 82 0 17 56 0 71 63 72 47 52 75 83 79 -17 79 0 84 53 64 47 63 80 85 0 -
16 80 421 0 1e-6 63 54 65 0 0 0 1 133 81 475 0 63 86 87 0 +86 .2 -.2 0 .2 -.2 -.
0032 0 .0032 17 64 0 84 79 88 21 48 65 89 0 +15 84 382 0 64 90 0 17 88 0 84 64 5
3 46 91 76 92 0 +16 65 422 0 1e-6 64 80 0 0 0 0 1 133 89 471 0 64 93 94 0 +93 0
 -.2 -.0032 .2 -.2 -.0032 0 .2 137 255 93 472 0 1 85 89 95 +96 97 0 ?137 94 470
 0 1 89 66 98 +5 99 0 ?133 66 469 0 48 94 100 0 +94 .2 -.2 -.0032 0 -.2 -.0032 0
 .2 141 255 98 66 98 98 94 134 255 99 0 0 0 0 0 0 +101 102 136 255 101 1 2 2 2 1
 FFF1 103 104 105 135 255 102 2 0 45 255 4 103 .2 0 0 0 127 255 2 104 2 2 128 25
5 2 105 0 .2 137 100 468 0 1 66 106 107 +17 108 0 ?133 106 467 0 52 100 109 0 +1
00 .2 -.2 0 .2 0 0 -2755455298081545e-32 .2 141 107 106 107 107 100 50 17 432 0
 110 111 5 112 +0 -.2 0 0 0 1 1 0 0 134 108 0 0 0 0 0 0 +113 114 136 113 1 2 2 2
 1 FFF1 115 116 117 135 114 2 0 45 4 115 .2 -2755455298081545e-32 .2 .2 127 2 11
6 2 2 128 2 117 -2755455298081545e-32 .2 14 255 110 397 118 ?90 82 51 119 17 +0
 0 16 120 24 50 111 433 0 120 121 17 122 +0 0 0 1 0 0 0 -1 0 141 112 123 124 125
 17 137 123 444 0 1 70 126 127 +17 128 0 ?141 124 129 130 112 17 141 125 78 112
 130 17 137 78 456 0 1 62 131 132 +17 133 0 ?141 130 100 125 124 17 133 131 455
 0 134 78 135 0 +78 .2 0 0 -971445146547012e-31 0 0 0 .2 141 132 131 132 132 78
 134 133 0 0 0 0 0 0 +136 137 136 136 1 2 2 2 1 FFF1 138 139 140 135 137 2 0 45
 4 138 .2 .2 -971445146547012e-31 .2 127 2 139 2 2 128 2 140 0 .2 17 134 0 51 45
 52 141 142 143 131 144 -137 135 452 0 1 131 145 146 +111 147 0 ?133 145 451 0 1
48 135 149 0 +135 0 0 0 0 0 -.0032 0 .0032 141 146 145 146 146 135 134 147 0 0 0
 0 0 0 +150 151 136 150 1 2 2 2 1 FFF1 152 153 154 135 151 2 0 45 4 152 0 0 0 .0
032 127 2 153 2 2 128 2 154 0 .0032 17 148 0 155 67 144 156 157 158 145 19 +137
 149 446 0 1 145 70 159 +5 160 0 ?133 70 445 0 59 149 123 0 +149 -97144514654701
2e-31 0 -.0032 .2 0 -.0032 0 .2 141 159 70 159 159 149 134 160 0 0 0 0 0 0 +161
 162 136 161 1 2 2 2 1 FFF1 163 164 165 135 162 2 0 45 4 163 -971445146547012e-3
1 .2 .2 .2 127 2 164 2 2 128 2 165 0 .2 15 155 396 0 67 120 0 17 67 0 155 91 148
 46 19 166 167 88 +17 144 0 155 148 91 141 45 168 169 25 -18 156 30 0 148 40 141
 170 1e-6 1 17 157 0 171 35 172 141 173 158 174 0 -16 158 36 0 1e-6 148 175 143
 0 0 0 1 17 19 0 58 59 48 156 67 166 6 68 -16 166 412 0 1e-6 67 168 75 0 0 0 1 1
7 68 0 176 36 74 156 177 69 178 172 -15 176 58 0 36 179 0 17 36 0 176 180 68 28
 172 26 181 182 -17 74 0 176 68 180 49 183 175 184 185 -17 177 0 186 187 173 49
 59 69 188 0 +16 69 29 0 1e-6 59 189 168 0 0 0 1 133 178 210 0 68 190 191 0 +190
 .2 0 -.0032 0 0 -.0032 0 .2 17 172 0 171 157 182 156 36 26 192 0 +15 171 52 0 1
72 193 0 17 182 0 171 172 35 28 194 195 196 197 +16 26 53 0 1e-6 172 9 33 0 0 0
 1 133 192 350 0 172 198 199 0 +198 0 .2 -.0032 0 0 -.0032 0 .2 137 198 348 0 1
 200 192 201 +202 203 0 ?137 199 352 0 1 192 181 204 +205 206 0 ?133 181 354 0 3
6 199 207 0 +199 0 0 -.0032 0 .2 -.0032 0 .2 141 204 181 204 204 199 50 205 133
 0 179 208 96 209 +0 0 -.0032 0 0 1 1 0 0 134 206 0 0 0 0 0 0 +210 211 136 210 1
 2 2 2 1 FFF1 212 213 214 135 211 2 0 45 4 212 0 0 0 .2 127 2 213 2 2 128 2 214
 0 .2 14 179 57 12 ?215 216 176 217 205 -0 0 0 216 24 50 208 126 0 216 202 205 2
18 +0 0 0 0 0 1 1 0 0 50 96 436 0 90 205 121 219 +0 -.2 0 0 1 0 1 0 0 141 209 19
9 220 221 205 141 220 190 222 209 205 141 221 223 209 222 205 137 223 316 0 1 22
4 225 226 +205 227 0 ?141 222 228 221 220 205 137 228 262 0 1 229 184 230 +205 2
31 0 ?133 229 260 0 183 232 228 0 +232 .2 -551091059616309e-31 -.0032 .2 .2 -.00
32 -2755455298081545e-32 .2 133 184 264 0 74 228 233 0 +228 .2 .2 -.0032 .2 -275
5455298081545e-32 -.0032 -2755455298081545e-32 .2 141 230 184 230 230 228 134 23
1 0 0 0 0 0 0 +234 235 136 234 1 2 2 2 1 FFF1 236 237 238 135 235 2 0 45 4 236 .
2 .2 .2 -2755455298081545e-32 127 2 237 2 2 128 2 238 -2755455298081545e-32 .2 1
37 233 276 0 1 184 34 239 +208 240 0 ?133 34 278 0 27 233 241 0 +233 .2 .2 0 -97
1445146547012e-31 .2 0 0 .2 141 239 34 239 239 233 134 240 0 0 0 0 0 0 +242 243
 136 242 1 2 2 2 1 FFF1 244 245 246 135 243 2 0 45 4 244 .2 .2 -971445146547012e
-31 .2 127 2 245 2 2 128 2 246 0 .2 137 241 280 0 1 34 247 248 +249 250 0 ?133 2
47 282 0 32 241 251 0 +241 -832667268468867e-31 .2 0 .2 .2 0 0 .2 141 248 247 24
8 248 241 50 249 112 0 252 253 202 254 +.2 .2 0 0 -1 0 -1 0 0 134 250 0 0 0 0 0
 0 +255 256 136 255 1 2 2 2 1 FFF1 257 258 259 135 256 2 0 45 4 257 .2 0 0 0 127
 2 258 2 2 128 2 259 0 .2 14 252 44 260 ?193 261 262 217 249 -0 0 193 261 24 50
 253 105 0 261 263 249 264 +.2 -2755455298081545e-32 0 -1 0 0 0 1 0 50 202 119 0
 193 249 208 265 +0 .2 0 1 0 0 0 -1 0 141 254 266 267 268 249 137 266 312 0 1 26
9 224 270 +249 271 0 ?141 267 272 273 254 249 141 268 274 254 273 249 137 274 29
8 0 1 196 269 275 +249 276 0 ?141 273 241 268 267 249 133 196 296 0 182 251 274
 0 +251 0 .2 0 0 .2 -.0032 0 .0032 133 269 300 0 194 274 266 0 +274 -83266726846
8867e-31 .2 -.0032 -832667268468867e-31 .2 0 0 .0032 141 275 269 275 275 274 134
 276 0 0 0 0 0 0 +277 278 136 277 1 2 2 2 1 FFF1 279 280 281 135 278 2 0 45 4 27
9 .2 .0032 .2 0 127 2 280 2 2 128 2 281 0 .0032 17 194 0 262 32 197 10 182 195 2
69 0 -15 262 45 0 197 252 0 17 32 0 262 282 194 37 27 33 247 283 -17 197 0 262 1
94 282 28 180 284 224 0 +16 195 48 0 1e-6 182 33 284 0 0 0 1 16 33 50 0 1e-6 27
 26 195 0 0 0 1 16 284 46 0 1e-6 197 195 285 0 0 0 1 16 285 43 0 1e-6 31 284 286
 0 0 0 1 17 31 0 30 27 287 37 288 285 289 32 +16 286 41 0 1e-6 282 285 175 0 0 0
 1 17 282 0 262 197 32 40 283 286 290 183 +16 175 39 0 1e-6 183 286 158 0 0 0 1
 17 183 0 291 283 185 40 74 175 229 0 +15 291 38 0 183 261 0 17 283 0 291 288 18
3 37 282 286 292 0 -17 185 0 291 183 288 49 72 189 293 0 +18 40 40 0 180 37 156
 39 1e-6 1 17 180 0 176 74 36 40 197 284 225 282 -18 37 42 0 31 28 40 41 1e-6 1
 29 41 90 0 37 294 39 .2 .2 0 29 294 89 0 49 295 41 .2 -183697019872103e-31 -.00
32 18 49 31 0 59 296 46 294 1e-6 1 29 295 88 0 296 170 294 .2 -183697019872103e-
31 0 18 296 33 0 72 141 49 295 1e-6 1 29 170 87 0 156 297 295 0 0 -.0032 29 297
 86 0 141 0 170 0 0 0 18 141 35 0 134 156 296 297 1e-6 1 17 72 0 71 56 60 296 18
7 189 298 52 -17 187 0 186 142 177 296 185 189 299 0 -16 189 32 0 1e-6 185 143 6
9 0 0 0 1 133 298 461 0 72 300 301 0 +300 .2 0 -.0032 .2 0 0 0 .0032 17 52 0 51
 134 50 296 56 75 106 287 +15 51 402 0 50 110 0 16 75 416 0 1e-6 52 166 61 0 0 0
 1 17 287 0 30 31 25 296 134 143 302 288 +15 30 56 0 287 216 0 17 25 0 30 287 27
 141 35 9 303 157 +16 143 34 0 1e-6 287 158 189 0 0 0 1 133 302 170 0 287 304 30
5 0 +304 0 0 0 .2 0 0 0 .2 17 288 0 291 185 283 296 31 285 306 0 -133 306 228 0
 288 307 272 0 +307 .2 .2 0 .2 -551091059616309e-31 0 -2755455298081545e-32 .2 1
37 307 226 0 1 289 306 308 +253 309 0 ?137 272 240 0 1 306 290 310 +249 311 0 ?1
33 290 242 0 282 272 312 0 +272 .2 .2 0 .2 .2 -.0032 0 .0032 141 310 290 310 310
 272 134 311 0 0 0 0 0 0 +313 314 136 313 1 2 2 2 1 FFF1 315 316 317 135 314 2 0
 45 4 315 0 0 0 .0032 127 2 316 2 2 128 2 317 0 .0032 137 312 244 0 1 290 292 31
8 +253 319 0 ?133 292 246 0 283 312 232 0 +312 .2 .2 -.0032 .2 .2 0 0 .0032 141
 318 292 318 318 312 134 319 0 0 0 0 0 0 +320 321 136 320 1 2 2 2 1 FFF1 322 323
 324 135 321 2 0 45 4 322 .2 .0032 .2 0 127 2 323 2 2 128 2 324 0 .0032 137 232
 258 0 1 292 229 325 +253 326 0 ?141 325 229 325 325 232 134 326 0 0 0 0 0 0 +32
7 328 136 327 1 2 2 2 1 FFF1 329 330 331 135 328 2 0 45 4 329 -2755455298081545e
-32 .0032 .2 .0032 127 2 330 2 2 128 2 331 -2755455298081545e-32 .2 133 289 224
 0 31 191 307 0 +191 .2 -2755455298081545e-32 0 .2 .2 0 -2755455298081545e-32 .2
 141 308 306 308 308 307 134 309 0 0 0 0 0 0 +332 333 136 332 1 2 2 2 1 FFF1 334
 335 336 135 333 2 0 45 4 334 .2 0 -2755455298081545e-32 0 127 2 335 2 2 128 2 3
36 -2755455298081545e-32 .2 137 191 222 0 1 178 289 337 +208 338 0 ?141 337 289
 337 337 191 134 338 0 0 0 0 0 0 +339 340 136 339 1 2 2 2 1 FFF1 341 342 343 135
 340 2 0 45 4 341 .2 -2755455298081545e-32 .2 .2 127 2 342 2 2 128 2 343 -275545
5298081545e-32 .2 137 304 168 0 1 174 302 344 +208 345 0 ?137 305 172 0 1 302 34
6 347 +263 348 0 ?133 346 174 0 142 305 349 0 +305 .2 0 0 0 0 0 0 .2 141 347 346
 347 347 305 50 263 94 0 215 0 253 350 +0 0 0 0 1 0 1 0 0 134 348 0 0 0 0 0 0 +3
51 352 136 351 1 2 2 2 1 FFF1 353 354 355 135 352 2 0 45 4 353 .2 0 0 0 127 2 35
4 2 2 128 2 355 0 .2 14 215 27 356 ?0 179 186 217 263 -0 0 0 0 119 141 350 357 3
58 359 263 137 357 204 0 1 299 188 360 +263 361 0 ?141 358 362 363 350 263 141 3
59 364 350 363 263 137 364 190 0 1 293 299 365 +263 366 0 ?141 363 305 359 358 2
63 133 293 188 0 185 349 364 0 +349 .2 -2755455298081545e-32 0 .2 -2755455298081
545e-32 -.0032 0 .0032 133 299 192 0 187 364 357 0 +364 .2 0 -.0032 .2 0 0 0 .00
32 141 365 299 365 365 364 134 366 0 0 0 0 0 0 +367 368 136 367 1 2 2 2 1 FFF1 3
69 370 371 135 368 2 0 45 4 369 .2 .0032 .2 0 127 2 370 2 2 128 2 371 0 .0032 13
7 349 186 0 1 346 293 372 +253 373 0 ?141 372 293 372 372 349 134 373 0 0 0 0 0
 0 +374 375 136 374 1 2 2 2 1 FFF1 376 377 378 135 375 2 0 45 4 376 0 0 0 .0032
 127 2 377 2 2 128 2 378 0 .0032 137 362 150 0 1 0 379 380 +263 381 0 ?133 379 1
52 0 173 362 382 0 +362 0 0 0 0 0 -.0032 0 .0032 141 380 379 380 380 362 134 381
 0 0 0 0 0 0 +383 384 136 383 1 2 2 2 1 FFF1 385 386 387 135 384 2 0 45 4 385 0
 0 0 .0032 127 2 386 2 2 128 2 387 0 .0032 17 173 0 186 177 142 156 148 158 379
 0 +137 382 154 0 1 379 174 388 +202 389 0 ?133 174 156 0 157 382 304 0 +382 0 0
 -.0032 0 0 0 0 .0032 141 388 174 388 388 382 134 389 0 0 0 0 0 0 +390 391 136 3
90 1 2 2 2 1 FFF1 392 393 394 135 391 2 0 45 4 392 .2 .0032 .2 0 127 2 393 2 2 1
28 2 394 0 .0032 15 186 28 0 177 215 0 17 142 0 186 173 187 141 287 143 346 0 -1
33 188 206 0 177 357 190 0 +357 0 0 -.0032 .2 0 -.0032 0 .2 141 360 188 360 360
 357 134 361 0 0 0 0 0 0 +395 396 136 395 1 2 2 2 1 FFF1 397 398 399 135 396 2 0
 45 4 397 0 .0032 .2 .0032 127 2 398 2 2 128 2 399 0 .2 137 190 208 0 1 188 178
 400 +205 401 0 ?141 400 178 400 400 190 134 401 0 0 0 0 0 0 +402 403 136 402 1
 2 2 2 1 FFF1 404 405 406 135 403 2 0 45 4 404 .2 0 0 0 127 2 405 2 2 128 2 406
 0 .2 81 1 356 103 11 215 407 0 0 408 409 13 255 217 61 0 0 0 261 0 0 23 0 13 11
9 496 0 0 0 82 0 0 410 215 14 82 383 411 ?110 0 71 119 121 -0 0 120 90 24 19 410
 410 0 1 0 23 119 S0 19 23 60 0 1 410 8 217 S0 81 1 411 385 11 82 412 0 13 413 4
14 50 121 435 0 82 96 111 415 +.2 -.2 0 -1 0 0 0 1 0 14 120 391 413 ?0 16 155 11
9 111 -0 0 110 82 24 14 90 377 13 ?16 110 84 119 96 -0 0 82 0 24 13 24 375 0 0 0
 0 0 0 8 90 81 1 13 379 11 90 416 0 2 411 417 14 16 403 418 ?120 90 58 119 5 -0
 0 261 110 24 81 1 418 405 11 16 419 0 118 0 420 14 261 37 408 ?252 0 291 217 25
3 -0 0 252 16 24 81 1 408 110 11 261 421 0 356 260 422 80 255 1 11 423 424 8017
 0 0 0 0 0 0 0 0 0 TTTTTTTTTTTTTF3 81 1 421 108 425 261 426 408 407 427 428 81 1
 260 117 11 252 427 0 408 429 430 84 255 5 422 Pad.181 1 427 115 425 252 431 260
 421 432 433 81 1 429 124 11 193 432 0 260 434 435 84 5 430 Pad.114 193 51 429 ?
216 252 171 217 202 -0 0 216 252 24 81 1 432 122 425 193 436 429 427 437 438 81
 1 434 131 11 216 437 0 429 12 439 84 5 435 Pad.114 216 55 434 ?179 193 30 217 2
08 +0 0 179 193 24 81 1 437 129 425 216 440 434 432 441 442 81 1 12 138 11 179 4
41 0 434 2 443 84 5 439 Pad.181 1 441 136 425 179 444 12 437 416 445 84 5 443 Pa
d.180 1 425 446 447 8015 0 0 0 0 3 5 0 0 0 FFFFTFFFFFFFFF2 81 1 444 134 448 179
 0 441 440 449 450 81 1 416 380 425 90 449 13 441 412 451 83 255 1 445 .30196078
43137255 81 1 449 381 448 90 0 416 444 452 453 81 1 412 386 425 82 452 411 416 4
54 455 83 1 451 .3019607843137255 81 1 452 387 448 82 0 412 449 456 457 81 1 454
 394 425 120 456 413 412 458 459 83 1 455 .3019607843137255 81 1 456 395 448 120
 0 454 452 460 461 81 1 413 393 11 120 454 0 411 118 462 81 1 458 400 425 110 46
0 118 454 419 463 83 1 459 .3019607843137255 81 1 460 401 448 110 0 458 456 464
 465 81 1 118 399 11 110 458 0 413 418 466 81 1 419 406 425 16 464 418 458 0 467
 83 1 463 .3019607843137255 81 1 464 407 448 16 0 419 460 0 468 83 1 467 .301960
7843137255 80 1 448 0 469 8001 0 0 0 0 3 5 0 0 0 FFFFTFTFFFFFFF2 83 3 468 .82352
9422283173 .823529422283173 1 79 255 15 469 SDL/TYSA_COLOUR84 5 466 Pad.183 3 46
5 .823529422283173 .823529422283173 1 84 5 462 Pad.183 3 461 .823529422283173 .8
23529422283173 1 83 3 457 .823529422283173 .823529422283173 1 83 3 453 .82352942
2283173 .823529422283173 1 81 1 440 127 448 216 0 437 436 444 470 83 3 450 .8235
29422283173 .823529422283173 1 81 1 436 120 448 193 0 432 431 440 471 83 3 470 .
823529422283173 .823529422283173 1 81 1 431 113 448 252 0 427 426 436 472 83 3 4
71 .823529422283173 .823529422283173 1 81 1 426 106 448 261 0 421 473 431 474 83
 3 472 .823529422283173 .823529422283173 1 81 1 473 95 448 215 0 407 0 426 475 8
3 3 474 .823529422283173 .823529422283173 1 81 1 407 101 425 215 473 356 0 421 4
76 83 3 475 .823529422283173 .823529422283173 1 83 1 476 .3019607843137255 79 21
 447 SDL/TYSA_TRANSLUCENCY83 1 442 .3019607843137255 83 1 438 .3019607843137255
 83 1 433 .3019607843137255 83 1 428 .3019607843137255 79 13 424 SDL/TYSA_NAME84
 5 420 Pad.184 5 417 Pad.1141 415 301 477 478 121 137 301 460 0 1 298 73 479 +12
1 480 0 ?141 477 86 481 415 121 141 478 300 415 481 121 137 300 462 0 1 83 298 4
82 +121 483 0 ?141 481 109 478 477 121 137 109 466 0 1 106 83 484 +121 485 0 ?13
3 83 465 0 56 109 300 0 +109 .2 0 0 .2 -.2 0 -2755455298081545e-32 .2 141 484 83
 484 484 109 134 485 0 0 0 0 0 0 +486 487 136 486 1 2 2 2 1 FFF1 488 489 490 135
 487 2 0 45 4 488 .2 0 -2755455298081545e-32 0 127 2 489 2 2 128 2 490 -27554552
98081545e-32 .2 141 482 298 482 482 300 134 483 0 0 0 0 0 0 +491 492 136 491 1 2
 2 2 1 FFF1 493 494 495 135 492 2 0 45 4 493 .2 .0032 .2 0 127 2 494 2 2 128 2 4
95 0 .0032 137 86 476 0 1 496 81 497 +121 498 0 ?133 496 477 0 53 499 86 0 +499
 .2 -.2 0 0 -.2 0 0 .2 141 497 81 497 497 86 134 498 0 0 0 0 0 0 +500 501 136 50
0 1 2 2 2 1 FFF1 502 503 504 135 501 2 0 45 4 502 0 0 0 .0032 127 2 503 2 2 128
 2 504 0 .0032 17 53 0 84 88 79 43 50 54 496 0 -137 499 478 0 1 55 496 505 +96 5
06 0 ?133 55 479 0 50 129 499 0 +129 0 -.2 0 .2 -.2 0 0 .2 141 505 496 505 505 4
99 134 506 0 0 0 0 0 0 +507 508 136 507 1 2 2 2 1 FFF1 509 510 511 135 508 2 0 4
5 4 509 .2 0 0 0 127 2 510 2 2 128 2 511 0 .2 137 129 480 0 1 512 55 513 +17 514
 0 ?133 512 481 0 91 515 129 0 +515 0 -.2 -.0032 0 -.2 0 0 .0032 141 513 55 513
 513 129 134 514 0 0 0 0 0 0 +516 517 136 516 1 2 2 2 1 FFF1 518 519 520 135 517
 2 0 45 4 518 0 0 .2 0 127 2 519 2 2 128 2 520 0 .2 17 91 0 155 144 67 43 88 76
 512 53 -137 515 482 0 1 92 512 521 +111 522 0 ?133 92 483 0 88 207 515 0 +207 0
 -.2 0 0 -.2 -.0032 0 .0032 141 521 512 521 521 515 134 522 0 0 0 0 0 0 +523 524
 136 523 1 2 2 2 1 FFF1 525 526 527 135 524 2 0 45 4 525 .2 .0032 .2 0 127 2 526
 2 2 128 2 527 0 .0032 137 207 484 0 1 181 92 528 +96 529 0 ?141 528 92 528 528
 207 134 529 0 0 0 0 0 0 +530 531 136 530 1 2 2 2 1 FFF1 532 533 534 135 531 2 0
 45 4 532 0 0 0 .0032 127 2 533 2 2 128 2 534 0 .0032 16 76 419 0 1e-6 88 61 54
 0 0 0 1 16 54 420 0 1e-6 50 76 80 0 0 0 1 133 73 459 0 60 301 77 0 +301 .2 -.2
 -.0032 .2 0 -.0032 -2755455298081545e-32 .2 141 479 73 479 479 301 134 480 0 0
 0 0 0 0 +535 536 136 535 1 2 2 2 1 FFF1 537 538 539 135 536 2 0 45 4 537 -27554
55298081545e-32 .0032 .2 .0032 127 2 538 2 2 128 2 539 -2755455298081545e-32 .2
 137 77 458 0 1 73 62 540 +5 541 0 ?141 540 62 540 540 77 134 541 0 0 0 0 0 0 +5
42 543 136 542 1 2 2 2 1 FFF1 544 545 546 135 543 2 0 45 4 544 .2 .2 .2 -2755455
298081545e-32 127 2 545 2 2 128 2 546 -2755455298081545e-32 .2 84 5 414 Pad.184
 5 409 Pad.1141 344 302 344 344 304 134 345 0 0 0 0 0 0 +547 548 136 547 1 2 2 2
 1 FFF1 549 550 551 135 548 2 0 45 4 549 0 0 .2 0 127 2 550 2 2 128 2 551 0 .2 1
7 35 0 171 182 157 10 25 9 200 194 -133 303 332 0 25 552 553 0 +552 0 .2 0 0 0 0
 0 .2 137 552 330 0 1 225 303 554 +208 555 0 ?137 553 334 0 1 303 200 556 +202 5
57 0 ?133 200 336 0 35 553 198 0 +553 0 0 0 0 .2 0 0 .2 141 556 200 556 556 553
 134 557 0 0 0 0 0 0 +558 559 136 558 1 2 2 2 1 FFF1 560 561 562 135 559 2 0 45
 4 560 .2 0 0 0 127 2 561 2 2 128 2 562 0 .2 133 225 318 0 180 223 552 0 +223 -9
71445146547012e-31 .2 -.0032 .2 .2 -.0032 0 .2 141 554 303 554 554 552 134 555 0
 0 0 0 0 0 +563 564 136 563 1 2 2 2 1 FFF1 565 566 567 135 564 2 0 45 4 565 0 .2
 0 0 127 2 566 2 2 128 2 567 0 .2 133 224 314 0 197 266 223 0 +266 .2 .2 -.0032
 -832667268468867e-31 .2 -.0032 0 .2 137 251 294 0 1 247 196 568 +202 569 0 ?141
 568 196 568 568 251 134 569 0 0 0 0 0 0 +570 571 136 570 1 2 2 2 1 FFF1 572 573
 574 135 571 2 0 45 4 572 0 0 0 .0032 127 2 573 2 2 128 2 574 0 .0032 141 270 22
4 270 270 266 134 271 0 0 0 0 0 0 +575 576 136 575 1 2 2 2 1 FFF1 577 578 579 13
5 576 2 0 45 4 577 0 .0032 .2 .0032 127 2 578 2 2 128 2 579 0 .2 141 265 198 580
 581 202 141 580 382 582 265 202 141 581 553 265 582 202 141 582 251 581 580 202
 141 264 232 583 584 253 141 583 349 585 264 253 141 584 312 264 585 253 141 585
 307 584 583 253 141 226 225 226 226 223 134 227 0 0 0 0 0 0 +586 587 136 586 1
 2 2 2 1 FFF1 588 589 590 135 587 2 0 45 4 588 -971445146547012e-31 .2 .2 .2 127
 2 589 2 2 128 2 590 0 .2 141 219 93 591 592 96 141 591 207 593 219 96 141 592 8
7 219 593 96 137 87 474 0 1 81 85 594 +96 595 0 ?141 593 499 592 591 96 133 85 4
73 0 79 87 93 0 +87 .2 -.2 -.0032 .2 -.2 0 0 .0032 141 594 85 594 594 87 134 595
 0 0 0 0 0 0 +596 597 136 596 1 2 2 2 1 FFF1 598 599 600 135 597 2 0 45 4 598 .2
 .0032 .2 0 127 2 599 2 2 128 2 600 0 .0032 141 218 552 601 602 208 141 601 304
 603 218 208 141 602 233 218 603 208 141 603 191 602 601 208 141 201 192 201 201
 198 134 203 0 0 0 0 0 0 +604 605 136 604 1 2 2 2 1 FFF1 606 607 608 135 605 2 0
 45 4 606 0 .0032 .2 .0032 127 2 607 2 2 128 2 608 0 .2 16 168 411 0 1e-6 45 69
 166 0 0 0 1 17 45 0 51 50 134 43 144 168 126 91 +133 126 443 0 45 123 609 0 +12
3 0 0 0 0 -.2 0 0 .2 137 609 442 0 1 126 169 610 +111 611 0 ?133 169 441 0 144 6
09 612 0 +609 0 -.2 0 0 0 0 0 .2 141 610 169 610 610 609 134 611 0 0 0 0 0 0 +61
3 614 136 613 1 2 2 2 1 FFF1 615 616 617 135 614 2 0 45 4 615 .2 0 0 0 127 2 616
 2 2 128 2 617 0 .2 137 612 440 0 1 169 167 618 +111 619 0 ?133 167 439 0 67 612
 20 0 +612 0 0 -.0032 0 -.2 -.0032 0 .2 141 618 167 618 618 612 134 619 0 0 0 0
 0 0 +620 621 136 620 1 2 2 2 1 FFF1 622 623 624 135 621 2 0 45 4 622 0 .0032 .2
 .0032 127 2 623 2 2 128 2 624 0 .2 137 20 438 0 1 167 6 625 +5 626 0 ?141 625 6
 625 625 20 134 626 0 0 0 0 0 0 +627 628 136 627 1 2 2 2 1 FFF1 629 630 631 135
 628 2 0 45 4 629 0 0 0 .2 127 2 630 2 2 128 2 631 0 .2 141 127 126 127 127 123
 134 128 0 0 0 0 0 0 +632 633 136 632 1 2 2 2 1 FFF1 634 635 636 135 633 2 0 45
 4 634 0 .2 0 0 127 2 635 2 2 128 2 636 0 .2 141 122 612 637 638 111 141 637 515
 639 122 111 141 638 609 122 639 111 141 639 135 638 637 111 141 95 89 95 95 93
 134 97 0 0 0 0 0 0 +640 641 136 640 1 2 2 2 1 FFF1 642 643 644 135 641 2 0 45 4
 642 0 .0032 .2 .0032 127 2 643 2 2 128 2 644 0 .2 141 18 20 645 646 5 141 645 9
4 647 18 5 141 646 149 18 647 5 141 647 77 646 645 5 74 4 CI16 index_map_offset0
 0 1 dCCZ20 15 3 0 0 464 419 418 0 0 0 0 0 0 0 0 0 0 0 0 0 0 0 0 0 84 9 14 LWR P
LATE1 0 
