**ABCDEFGHIJKLMNOPQRSTUVWXYZabcdefghijklmnopqrstuvwxyz**************************
**PARASOLID !"#$%&'()*+,-./:;<=>?@[\]^_`{|}~0123456789**************************
**PART1;
MC=x64/Windows NT;
MC_MODEL=genuineintel family 6 model 10 stepping 7, intel(r) core(tm) i5-2500 cpu @ 3.30ghz;
MC_ID=sd18;
OS=windows nt (x64);
OS_RELEASE=6.1 (workstation) (build 7601: service pack 1) ;
FRU=mdc_ugii_v7.0_djl_can_vrh;
APPL=unigraphics;
SITE=unknown;
USER=vidya;
FORMAT=text;
GUISE=transmit;
KEY=Work-piece;
FILE=D:\Nagaraj\Work-piece.x_t;
DATE=5-may-2014;
**PART2;
SCH=SCH_2500176_25001;
USFLD_SIZE=0;
**PART3;
**END_OF_HEADER*****************************************************************
T51 : TRANSMIT FILE created by modeller version 250017617 SCH_1000000_100040 12
 1 102 2 3 0 0 0 0 1e3 1e-8 0 0 0 1 0 1 1 4 5 6 7 8 9 10 81 1 2 102 11 1 12 0 0
 0 13 70 3 0 1 0 0 4 5 20 8 14 14 1 T13 4 3 0 1 0 15 0 0 16 0 50 5 54 0 15 17 0
 0 +.05 .025 .03 0 0 1 1 0 0 30 6 62 0 9 18 0 0 +.05 0 .03 -1 0 0 29 7 58 0 10 1
9 0 0 0 .03 19 8 1 0 1 16 0 20 V16 9 34 21 ?22 0 23 6 0 0 1 18 10 23 0 22 0 24 7
 ?1 17 22 25 26 27 10 28 9 0 29 +18 24 21 0 30 10 31 19 ?1 17 30 32 33 34 24 29
 23 0 35 +18 31 19 0 36 24 37 38 ?1 29 19 57 0 24 38 7 0 .05 .03 29 38 56 0 31 3
9 19 .1 .05 .03 29 39 55 0 37 40 38 .1 0 .03 18 37 17 0 28 31 41 39 ?1 29 40 41
 0 42 43 39 0 0 0 18 42 11 0 26 44 45 40 ?1 29 43 40 0 44 46 40 0 .05 0 18 44 13
 0 33 41 42 43 ?1 29 46 39 0 41 47 43 .1 .05 0 18 41 15 0 48 37 44 46 ?1 29 47 3
8 0 45 0 46 .1 0 0 18 45 10 0 49 42 0 47 ?1 17 49 50 51 52 45 27 53 0 54 -15 50
 7 0 51 55 0 17 51 50 56 49 41 57 58 0 0 +17 52 50 49 56 37 59 60 0 27 +17 27 25
 22 54 37 49 53 0 0 +16 53 18 61 ?27 62 58 63 0 0 1 17 54 25 27 26 45 64 65 0 57
 +15 25 32 0 27 66 0 17 26 25 54 22 42 34 67 0 68 -17 64 69 70 57 42 54 65 0 0 -
16 65 12 71 ?54 72 0 73 0 0 1 17 57 69 64 74 45 51 58 0 0 -15 69 8 0 57 75 0 17
 74 69 57 70 41 76 77 0 51 -16 58 6 78 ?51 53 77 79 0 0 1 81 1 78 78 80 58 0 0 8
1 82 83 16 77 16 81 ?76 58 72 84 0 0 1 30 79 43 0 58 73 84 0 +.1 .025 0 0 1 0 30
 73 42 0 65 0 79 0 +.05 0 0 1 0 0 30 84 44 0 77 79 85 0 +.05 .05 0 -1 0 0 30 85
 45 0 72 84 63 0 +0 .025 0 0 -1 0 16 72 14 86 ?68 77 65 85 0 0 1 30 63 50 0 53 8
5 87 0 +.1 0 0 0 0 1 30 87 51 0 62 63 88 0 +.1 .05 0 0 0 1 16 62 20 89 ?56 90 53
 87 0 0 1 30 88 52 0 90 87 91 0 +0 .05 0 0 0 1 16 90 22 82 ?92 67 62 88 0 0 1 30
 91 53 0 67 88 93 0 +0 0 0 0 0 1 16 67 24 94 ?34 60 90 91 0 0 1 30 93 59 0 60 91
 95 0 +.1 .025 .03 0 -1 0 16 60 25 96 ?52 97 67 93 0 0 1 30 95 60 0 97 93 18 0 +
.05 .05 .03 1 0 0 16 97 28 98 ?36 23 60 95 0 0 1 30 18 61 0 23 95 6 0 +0 .025 .0
3 0 1 0 16 23 31 99 ?30 9 97 18 0 0 1 81 1 99 84 80 23 0 0 89 71 100 80 1 80 101
 102 9000 1 1 1 1 1 1 1 1 FFFFTFTFFFFFF3 81 1 89 83 80 62 0 0 98 99 103 81 1 71
 85 80 65 0 0 99 21 104 84 32 100 b3e176798a64c003d06a1daf2560170e81 1 21 86 80
 9 0 0 71 61 105 84 32 104 5e82305112631e598650ae6f761eba7081 1 61 87 80 53 0 0
 21 94 106 84 32 105 7c0c43a55f92d02da1c1f7aee9720e7c81 1 94 88 80 67 0 0 61 107
 108 84 32 106 ca4166a04cdf962d1bbe29f1ab6f791481 1 107 89 80 109 0 110 94 111 1
12 84 32 108 2c9a0e51b8e8abc35e3c24d3fcb91d3e14 109 30 110 ?113 66 32 4 114 +0 0
 113 66 20 81 1 110 98 115 109 107 0 116 117 118 81 1 111 90 80 66 0 116 107 119
 120 84 32 112 bdf418584b357e312d4410f3aa1e4a1014 66 33 116 ?109 15 25 4 17 +0 0
 109 15 20 81 1 116 97 115 66 111 0 121 110 122 81 1 119 91 80 75 0 123 111 124
 125 84 32 120 4577b9a056de698a68074130fb194ec014 75 9 123 ?55 113 69 4 126 +0 0
 55 113 20 81 1 123 100 115 75 119 0 117 127 128 81 1 124 92 80 15 0 121 119 129
 130 84 32 125 dac4607536c2902009afd8d63fbd66a214 15 36 121 ?66 0 131 4 5 +0 0 6
6 0 20 81 1 121 96 115 15 124 0 0 116 132 81 1 129 93 80 55 0 127 124 133 134 84
 32 130 b7b7b09a698243ad822888415127cca214 55 2 127 ?0 75 50 4 135 +0 0 0 75 20
 81 1 127 101 115 55 129 0 123 0 136 81 1 133 94 80 113 0 117 129 0 137 84 32 13
4 e9a529f680e580b77152ba4ef40812a214 113 27 117 ?75 109 138 4 139 +0 0 75 109 20
 81 1 117 99 115 113 133 0 110 123 140 84 32 137 49ac27d514ef1276ed679f8cfc08f9e
080 1 115 0 141 8001 0 0 0 0 3 5 0 0 FFFFTFTFFFFFF2 83 3 140 .5960784 .6666667 .
6862745 79 15 141 SDL/TYSA_COLOUR15 138 26 0 92 113 0 50 139 47 0 113 135 114 0
 +.05 .05 0 0 1 0 0 0 1 13 20 4 0 0 0 0 0 0 8 15 50 135 46 0 55 126 139 0 +.1 .0
25 0 1 0 0 0 0 -1 50 114 48 0 109 139 17 0 +0 .025 0 -1 0 0 0 0 1 50 17 49 0 66
 114 5 0 +.05 0 0 0 -1 0 0 0 -1 50 126 37 0 75 0 135 0 +.05 .025 0 0 0 -1 -1 0 0
 17 92 138 36 76 24 33 90 0 0 +17 36 138 48 92 31 35 97 0 59 +17 76 138 92 48 44
 74 77 0 70 +17 33 32 68 30 44 92 90 0 76 -15 32 29 0 34 109 0 17 68 32 34 33 42
 70 72 0 64 +17 34 32 30 68 10 26 67 0 0 +17 70 69 74 64 44 68 72 0 0 -17 48 138
 76 36 41 56 62 0 74 -17 56 50 52 51 31 48 62 0 0 +17 35 131 29 59 24 36 97 0 92
 -17 59 131 35 28 31 52 60 0 56 -15 131 35 0 28 15 0 17 28 131 59 29 37 22 9 0 5
2 -17 29 131 28 35 10 30 23 0 34 -83 3 136 .5960784 .6666667 .6862745 83 3 132 .
5960784 .6666667 .6862745 83 3 128 .5960784 .6666667 .6862745 83 3 122 .5960784
 .6666667 .6862745 83 3 118 .5960784 .6666667 .6862745 81 1 98 82 80 97 0 0 86 8
9 142 84 32 103 270a36d445afaef74a9ae4eaf274d92281 1 86 81 80 72 0 0 96 98 143 8
4 32 142 bd3f7dbfa3ca83c85d70ef9fe0f4036a81 1 96 80 80 60 0 0 82 86 144 84 32 14
3 326a2a1507bafad60026cd7807d7f3c781 1 82 79 80 90 0 0 78 96 145 84 32 144 b1b94
00b3e0afa0d0d51f70356f7661c84 32 145 41e196f387bc2b59200f3db47e1f9abf79 15 102 U
GS/ObjectState81 1 81 77 80 77 0 0 0 78 146 84 32 146 7df4dc8ac6b6a895f798ceb877
1998a884 32 83 e6c02811a7007b9122032fe2b28f662919 16 5 0 1 0 8 4 S74 20 14 5 0 1
47 133 12 127 2 0 0 0 0 0 0 0 0 0 0 0 0 0 0 0 81 2 147 76 148 1 0 12 0 0 149 150
 81 1 12 95 101 1 147 2 0 0 151 80 1 101 152 153 9000 0 0 0 0 3 5 0 0 FFTFFFFFFF
FFF1 82 1 151 9 79 7 153 body_id80 2 148 154 155 8004 0 0 0 0 3 5 0 0 FFTFFFFFFF
FFF2 3 83 1 149 7830.64 84 8 150 Kg/Cu M 79 16 155 SDL/TYSA_DENSITY80 1 11 156 1
57 9000 0 0 0 0 3 5 0 0 FFTFFFFFFFFFF1 82 1 13 129 79 24 157 UG2/BODY_COLOR_ATTR
IBUTE1 0 
